<?xml version="1.0" encoding="UTF-8" standalone="no"?>
<!DOCTYPE svg PUBLIC "-//W3C//DTD SVG 1.1//EN"
 "http://www.w3.org/Graphics/SVG/1.1/DTD/svg11.dtd">
<!-- Generated by graphviz version 2.40.1 (20161225.0304)
 -->
<!-- Title: dfa Pages: 1 -->
<svg width="156pt" height="468pt"
 viewBox="0.00 0.00 156.03 468.32" xmlns="http://www.w3.org/2000/svg" xmlns:xlink="http://www.w3.org/1999/xlink">
<g id="graph0" class="graph" transform="scale(1 1) rotate(0) translate(4 464.3183)">
<title>dfa</title>
<polygon fill="#ffffff" stroke="transparent" points="-4,4 -4,-464.3183 152.0292,-464.3183 152.0292,4 -4,4"/>
<!-- Σ -->
<g id="node1" class="node">
<title>Σ</title>
<text text-anchor="middle" x="98.0511" y="-438.1183" font-family="Times,serif" font-size="14.00" fill="#000000">Σ={a,b}</text>
</g>
<!-- Qs -->
<g id="node2" class="node">
<title>Qs</title>
<ellipse fill="none" stroke="#000000" cx="98.0511" cy="-345.7548" rx="21.5654" ry="21.5654"/>
<ellipse fill="none" stroke="#000000" cx="98.0511" cy="-345.7548" rx="25.529" ry="25.529"/>
<text text-anchor="middle" x="98.0511" y="-341.5548" font-family="Times,serif" font-size="14.00" fill="#000000">Qs</text>
</g>
<!-- Σ&#45;&gt;Qs -->
<g id="edge1" class="edge">
<title>Σ&#45;&gt;Qs</title>
<path fill="none" stroke="#000000" d="M98.0511,-424.1554C98.0511,-412.2856 98.0511,-396.372 98.0511,-381.9839"/>
<polygon fill="#000000" stroke="#000000" points="101.5512,-381.8564 98.0511,-371.8565 94.5512,-381.8565 101.5512,-381.8564"/>
<text text-anchor="middle" x="110.1016" y="-393.7183" font-family="Times,serif" font-size="14.00" fill="#000000">start</text>
</g>
<!-- Qs&#45;&gt;Qs -->
<g id="edge6" class="edge">
<title>Qs&#45;&gt;Qs</title>
<path fill="none" stroke="#000000" d="M122.3534,-355.3882C132.8379,-356.1769 141.8146,-352.9658 141.8146,-345.7548 141.8146,-341.1353 138.1305,-338.1574 132.7261,-336.8209"/>
<polygon fill="#000000" stroke="#000000" points="132.5662,-333.3023 122.3534,-336.1215 132.0952,-340.2864 132.5662,-333.3023"/>
<text text-anchor="middle" x="144.9219" y="-341.5548" font-family="Times,serif" font-size="14.00" fill="#000000">a</text>
</g>
<!-- Qf1 -->
<g id="node3" class="node">
<title>Qf1</title>
<ellipse fill="none" stroke="#000000" cx="30.0511" cy="-237.1403" rx="26.0955" ry="26.0955"/>
<ellipse fill="none" stroke="#000000" cx="30.0511" cy="-237.1403" rx="30.1023" ry="30.1023"/>
<text text-anchor="middle" x="30.0511" y="-232.9403" font-family="Times,serif" font-size="14.00" fill="#000000">Qf1</text>
</g>
<!-- Qs&#45;&gt;Qf1 -->
<g id="edge2" class="edge">
<title>Qs&#45;&gt;Qf1</title>
<path fill="none" stroke="#000000" d="M84.2903,-323.7751C74.9048,-308.7838 62.2842,-288.6253 51.5787,-271.5258"/>
<polygon fill="#000000" stroke="#000000" points="54.4555,-269.5249 46.1823,-262.9062 48.5223,-273.2395 54.4555,-269.5249"/>
<text text-anchor="middle" x="74.5511" y="-289.3914" font-family="Times,serif" font-size="14.00" fill="#000000">b</text>
</g>
<!-- Qf1&#45;&gt;Qf1 -->
<g id="edge7" class="edge">
<title>Qf1&#45;&gt;Qf1</title>
<path fill="none" stroke="#000000" d="M58.6628,-247.6172C69.3253,-247.9607 78.1023,-244.4684 78.1023,-237.1403 78.1023,-232.3312 74.3223,-229.1741 68.7102,-227.6689"/>
<polygon fill="#000000" stroke="#000000" points="68.9616,-224.1766 58.6628,-226.6634 68.2645,-231.1419 68.9616,-224.1766"/>
<text text-anchor="middle" x="81.6023" y="-232.9403" font-family="Times,serif" font-size="14.00" fill="#000000">b</text>
</g>
<!-- Qf2 -->
<g id="node4" class="node">
<title>Qf2</title>
<ellipse fill="none" stroke="#000000" cx="75.0511" cy="-124.238" rx="26.0955" ry="26.0955"/>
<ellipse fill="none" stroke="#000000" cx="75.0511" cy="-124.238" rx="30.1023" ry="30.1023"/>
<text text-anchor="middle" x="75.0511" y="-120.038" font-family="Times,serif" font-size="14.00" fill="#000000">Qf2</text>
</g>
<!-- Qf1&#45;&gt;Qf2 -->
<g id="edge3" class="edge">
<title>Qf1&#45;&gt;Qf2</title>
<path fill="none" stroke="#000000" d="M41.2904,-208.9415C46.9281,-194.7969 53.8366,-177.4639 59.9323,-162.1702"/>
<polygon fill="#000000" stroke="#000000" points="63.3478,-163.0538 63.7991,-152.4686 56.8453,-160.462 63.3478,-163.0538"/>
<text text-anchor="middle" x="59.1584" y="-176.4892" font-family="Times,serif" font-size="14.00" fill="#000000">a</text>
</g>
<!-- Qf2&#45;&gt;Qs -->
<g id="edge5" class="edge">
<title>Qf2&#45;&gt;Qs</title>
<path fill="none" stroke="#000000" d="M83.2439,-153.5104C87.2736,-169.2547 91.7497,-189.0842 94.0511,-207.0892 98.4782,-241.7239 99.1739,-281.6028 98.9446,-309.678"/>
<polygon fill="#000000" stroke="#000000" points="95.4432,-309.7814 98.8173,-319.8246 102.4426,-309.8693 95.4432,-309.7814"/>
<text text-anchor="middle" x="102.1584" y="-232.9403" font-family="Times,serif" font-size="14.00" fill="#000000">a</text>
</g>
<!-- q0 -->
<g id="node5" class="node">
<title>q0</title>
<ellipse fill="none" stroke="#000000" cx="75.0511" cy="-20.6935" rx="20.8887" ry="20.8887"/>
<text text-anchor="middle" x="75.0511" y="-16.4935" font-family="Times,serif" font-size="14.00" fill="#000000">q0</text>
</g>
<!-- Qf2&#45;&gt;q0 -->
<g id="edge4" class="edge">
<title>Qf2&#45;&gt;q0</title>
<path fill="none" stroke="#000000" d="M75.0511,-94.0103C75.0511,-80.7278 75.0511,-65.1425 75.0511,-51.7648"/>
<polygon fill="#000000" stroke="#000000" points="78.5512,-51.5956 75.0511,-41.5956 71.5512,-51.5957 78.5512,-51.5956"/>
<text text-anchor="middle" x="78.5511" y="-63.5869" font-family="Times,serif" font-size="14.00" fill="#000000">b</text>
</g>
<!-- q0&#45;&gt;q0 -->
<g id="edge8" class="edge">
<title>q0&#45;&gt;q0</title>
<path fill="none" stroke="#000000" d="M94.1633,-28.9626C104.4097,-30.3678 113.7446,-27.6114 113.7446,-20.6935 113.7446,-16.2616 109.9135,-13.5377 104.4661,-12.5217"/>
<polygon fill="#000000" stroke="#000000" points="104.1959,-9.0191 94.1633,-12.4243 104.1297,-16.0188 104.1959,-9.0191"/>
<text text-anchor="middle" x="119.5749" y="-16.4935" font-family="Times,serif" font-size="14.00" fill="#000000">Σ</text>
</g>
</g>
</svg>
