<?xml version="1.0" encoding="UTF-8" standalone="no"?>
<!DOCTYPE svg PUBLIC "-//W3C//DTD SVG 1.1//EN"
 "http://www.w3.org/Graphics/SVG/1.1/DTD/svg11.dtd">
<!-- Generated by graphviz version 2.40.1 (20161225.0304)
 -->
<!-- Title: dfa Pages: 1 -->
<svg width="203pt" height="753pt"
 viewBox="0.00 0.00 203.05 753.45" xmlns="http://www.w3.org/2000/svg" xmlns:xlink="http://www.w3.org/1999/xlink">
<g id="graph0" class="graph" transform="scale(1 1) rotate(0) translate(4 749.4483)">
<title>dfa</title>
<polygon fill="#ffffff" stroke="transparent" points="-4,4 -4,-749.4483 199.047,-749.4483 199.047,4 -4,4"/>
<g id="node1" class="node">
<title></title>
<text text-anchor="middle" x="158.6935" y="-723.2483" font-family="Times,serif" font-size="14.00" fill="#000000">Σ = {a,b}</text>
</g>
<!-- Qs -->
<g id="node2" class="node">
<title>Qs</title>
<ellipse fill="none" stroke="#000000" cx="158.6935" cy="-630.8849" rx="21.5654" ry="21.5654"/>
<ellipse fill="none" stroke="#000000" cx="158.6935" cy="-630.8849" rx="25.529" ry="25.529"/>
<text text-anchor="middle" x="158.6935" y="-626.6849" font-family="Times,serif" font-size="14.00" fill="#000000">Qs</text>
</g>
<!-- &#45;&gt;Qs -->
<g id="edge1" class="edge">
<title>&#45;&gt;Qs</title>
<path fill="none" stroke="#000000" d="M158.6935,-709.2855C158.6935,-697.4156 158.6935,-681.502 158.6935,-667.114"/>
<polygon fill="#000000" stroke="#000000" points="162.1936,-666.9865 158.6935,-656.9865 155.1936,-666.9865 162.1936,-666.9865"/>
<text text-anchor="middle" x="170.744" y="-678.8483" font-family="Times,serif" font-size="14.00" fill="#000000">start</text>
</g>
<!-- q1 -->
<g id="node3" class="node">
<title>q1</title>
<ellipse fill="none" stroke="#000000" cx="116.6935" cy="-527.628" rx="20.8568" ry="20.8568"/>
<ellipse fill="none" stroke="#000000" cx="116.6935" cy="-527.628" rx="24.8884" ry="24.8884"/>
<text text-anchor="middle" x="116.6935" y="-523.428" font-family="Times,serif" font-size="14.00" fill="#000000">q1</text>
</g>
<!-- Qs&#45;&gt;q1 -->
<g id="edge2" class="edge">
<title>Qs&#45;&gt;q1</title>
<path fill="none" stroke="#000000" d="M139.5009,-613.4781C132.5978,-606.0714 125.5224,-596.8894 121.4789,-587.1214 118.3299,-579.5145 116.6746,-570.8986 115.8892,-562.6328"/>
<polygon fill="#000000" stroke="#000000" points="119.3725,-562.2384 115.3125,-552.4524 112.3837,-562.6344 119.3725,-562.2384"/>
<text text-anchor="middle" x="124.8008" y="-574.5214" font-family="Times,serif" font-size="14.00" fill="#000000">a</text>
</g>
<!-- q5 -->
<g id="node6" class="node">
<title>q5</title>
<ellipse fill="none" stroke="#000000" cx="166.6935" cy="-323.2542" rx="20.8568" ry="20.8568"/>
<ellipse fill="none" stroke="#000000" cx="166.6935" cy="-323.2542" rx="24.8884" ry="24.8884"/>
<text text-anchor="middle" x="166.6935" y="-319.0542" font-family="Times,serif" font-size="14.00" fill="#000000">q5</text>
</g>
<!-- Qs&#45;&gt;q5 -->
<g id="edge6" class="edge">
<title>Qs&#45;&gt;q5</title>
<path fill="none" stroke="#000000" d="M159.3686,-604.9216C160.8037,-549.7376 164.1585,-420.7344 165.7817,-358.3162"/>
<polygon fill="#000000" stroke="#000000" points="169.284,-358.2666 166.0453,-348.179 162.2864,-358.0846 169.284,-358.2666"/>
<text text-anchor="middle" x="166.1935" y="-472.3345" font-family="Times,serif" font-size="14.00" fill="#000000">b</text>
</g>
<!-- q1&#45;&gt;Qs -->
<g id="edge10" class="edge">
<title>q1&#45;&gt;Qs</title>
<path fill="none" stroke="#000000" d="M126.0929,-550.7366C131.6748,-564.4596 138.8502,-582.1002 145.0475,-597.3364"/>
<polygon fill="#000000" stroke="#000000" points="141.9423,-598.9918 148.9522,-606.9361 148.4265,-596.3543 141.9423,-598.9918"/>
<text text-anchor="middle" x="144.1935" y="-574.5214" font-family="Times,serif" font-size="14.00" fill="#000000">b</text>
</g>
<!-- q2 -->
<g id="node4" class="node">
<title>q2</title>
<ellipse fill="none" stroke="#000000" cx="114.6935" cy="-425.4411" rx="20.8568" ry="20.8568"/>
<ellipse fill="none" stroke="#000000" cx="114.6935" cy="-425.4411" rx="24.8884" ry="24.8884"/>
<text text-anchor="middle" x="114.6935" y="-421.2411" font-family="Times,serif" font-size="14.00" fill="#000000">q2</text>
</g>
<!-- q1&#45;&gt;q2 -->
<g id="edge3" class="edge">
<title>q1&#45;&gt;q2</title>
<path fill="none" stroke="#000000" d="M116.2093,-502.8914C115.9606,-490.1827 115.6532,-474.478 115.3804,-460.5397"/>
<polygon fill="#000000" stroke="#000000" points="118.8752,-460.2336 115.1801,-450.3041 111.8765,-460.3707 118.8752,-460.2336"/>
<text text-anchor="middle" x="119.8008" y="-472.3345" font-family="Times,serif" font-size="14.00" fill="#000000">a</text>
</g>
<!-- q3 -->
<g id="node5" class="node">
<title>q3</title>
<ellipse fill="none" stroke="#000000" cx="53.6935" cy="-323.2542" rx="20.8568" ry="20.8568"/>
<ellipse fill="none" stroke="#000000" cx="53.6935" cy="-323.2542" rx="24.8884" ry="24.8884"/>
<text text-anchor="middle" x="53.6935" y="-319.0542" font-family="Times,serif" font-size="14.00" fill="#000000">q3</text>
</g>
<!-- q2&#45;&gt;q3 -->
<g id="edge4" class="edge">
<title>q2&#45;&gt;q3</title>
<path fill="none" stroke="#000000" d="M101.7569,-403.7699C92.9635,-389.0391 81.2154,-369.3588 71.5353,-353.1428"/>
<polygon fill="#000000" stroke="#000000" points="74.5331,-351.3362 66.4022,-344.5437 68.5226,-354.9242 74.5331,-351.3362"/>
<text text-anchor="middle" x="91.8008" y="-370.1476" font-family="Times,serif" font-size="14.00" fill="#000000">a</text>
</g>
<!-- q2&#45;&gt;q5 -->
<g id="edge11" class="edge">
<title>q2&#45;&gt;q5</title>
<path fill="none" stroke="#000000" d="M125.9767,-403.268C133.1997,-389.0738 142.6822,-370.4395 150.6788,-354.7252"/>
<polygon fill="#000000" stroke="#000000" points="154.0163,-355.8837 155.4322,-345.3839 147.7776,-352.709 154.0163,-355.8837"/>
<text text-anchor="middle" x="148.1935" y="-370.1476" font-family="Times,serif" font-size="14.00" fill="#000000">b</text>
</g>
<!-- q6 -->
<g id="node7" class="node">
<title>q6</title>
<ellipse fill="none" stroke="#000000" cx="140.6935" cy="-221.0673" rx="20.8568" ry="20.8568"/>
<ellipse fill="none" stroke="#000000" cx="140.6935" cy="-221.0673" rx="24.8884" ry="24.8884"/>
<text text-anchor="middle" x="140.6935" y="-216.8673" font-family="Times,serif" font-size="14.00" fill="#000000">q6</text>
</g>
<!-- q3&#45;&gt;q6 -->
<g id="edge14" class="edge">
<title>q3&#45;&gt;q6</title>
<path fill="none" stroke="#000000" d="M66.4054,-301.7092C73.746,-289.9925 83.5212,-275.5322 93.6935,-263.7607 99.7028,-256.8066 106.7832,-249.8536 113.5995,-243.6388"/>
<polygon fill="#000000" stroke="#000000" points="116.2371,-245.978 121.4,-236.7262 111.5945,-240.739 116.2371,-245.978"/>
<text text-anchor="middle" x="97.1935" y="-267.9607" font-family="Times,serif" font-size="14.00" fill="#000000">b</text>
</g>
<!-- q4 -->
<g id="node9" class="node">
<title>q4</title>
<ellipse fill="none" stroke="#000000" cx="53.6935" cy="-221.0673" rx="20.8887" ry="20.8887"/>
<text text-anchor="middle" x="53.6935" y="-216.8673" font-family="Times,serif" font-size="14.00" fill="#000000">q4</text>
</g>
<!-- q3&#45;&gt;q4 -->
<g id="edge5" class="edge">
<title>q3&#45;&gt;q4</title>
<path fill="none" stroke="#000000" d="M53.6935,-298.5176C53.6935,-284.5435 53.6935,-266.9473 53.6935,-252.0598"/>
<polygon fill="#000000" stroke="#000000" points="57.1936,-251.7886 53.6935,-241.7886 50.1936,-251.7887 57.1936,-251.7886"/>
<text text-anchor="middle" x="56.8008" y="-267.9607" font-family="Times,serif" font-size="14.00" fill="#000000">a</text>
</g>
<!-- q5&#45;&gt;Qs -->
<g id="edge12" class="edge">
<title>q5&#45;&gt;Qs</title>
<path fill="none" stroke="#000000" d="M174.5936,-346.9448C176.2901,-353.0654 177.8312,-359.6934 178.6935,-365.9476 179.7132,-373.3443 178.7488,-375.2812 178.6935,-382.7476 178.0193,-473.6051 189.933,-497.7245 173.6935,-587.1214 173.1049,-590.3614 172.3201,-593.6861 171.417,-596.9853"/>
<polygon fill="#000000" stroke="#000000" points="168.0248,-596.109 168.431,-606.6961 174.7156,-598.1665 168.0248,-596.109"/>
<text text-anchor="middle" x="184.8008" y="-472.3345" font-family="Times,serif" font-size="14.00" fill="#000000">a</text>
</g>
<!-- q5&#45;&gt;q6 -->
<g id="edge7" class="edge">
<title>q5&#45;&gt;q6</title>
<path fill="none" stroke="#000000" d="M160.5976,-299.2959C157.2641,-286.1944 153.0774,-269.7394 149.4049,-255.3056"/>
<polygon fill="#000000" stroke="#000000" points="152.699,-254.0577 146.8412,-245.2295 145.9151,-255.7838 152.699,-254.0577"/>
<text text-anchor="middle" x="158.1935" y="-267.9607" font-family="Times,serif" font-size="14.00" fill="#000000">b</text>
</g>
<!-- q6&#45;&gt;q2 -->
<g id="edge13" class="edge">
<title>q6&#45;&gt;q2</title>
<path fill="none" stroke="#000000" d="M135.655,-245.4091C132.6471,-260.6305 128.945,-280.6747 126.4789,-298.5607 122.222,-329.4339 119.0813,-364.7507 117.1174,-390.2715"/>
<polygon fill="#000000" stroke="#000000" points="113.603,-390.3346 116.348,-400.5676 120.5836,-390.8563 113.603,-390.3346"/>
<text text-anchor="middle" x="129.8008" y="-319.0542" font-family="Times,serif" font-size="14.00" fill="#000000">a</text>
</g>
<!-- q7 -->
<g id="node8" class="node">
<title>q7</title>
<ellipse fill="none" stroke="#000000" cx="24.6935" cy="-118.8804" rx="20.8568" ry="20.8568"/>
<ellipse fill="none" stroke="#000000" cx="24.6935" cy="-118.8804" rx="24.8884" ry="24.8884"/>
<text text-anchor="middle" x="24.6935" y="-114.6804" font-family="Times,serif" font-size="14.00" fill="#000000">q7</text>
</g>
<!-- q6&#45;&gt;q7 -->
<g id="edge8" class="edge">
<title>q6&#45;&gt;q7</title>
<path fill="none" stroke="#000000" d="M122.056,-204.6492C102.7768,-187.6657 72.5111,-161.004 50.8425,-141.9156"/>
<polygon fill="#000000" stroke="#000000" points="53.1019,-139.2416 43.2846,-135.2577 48.4748,-144.4942 53.1019,-139.2416"/>
<text text-anchor="middle" x="93.1935" y="-165.7738" font-family="Times,serif" font-size="14.00" fill="#000000">b</text>
</g>
<!-- q7&#45;&gt;q3 -->
<g id="edge15" class="edge">
<title>q7&#45;&gt;q3</title>
<path fill="none" stroke="#000000" d="M19.4412,-143.0488C14.7376,-168.8142 9.6803,-210.6531 17.4789,-245.7607 21.1157,-262.1332 28.5919,-279.142 35.8121,-293.0391"/>
<polygon fill="#000000" stroke="#000000" points="32.885,-294.9845 40.7195,-302.117 39.0429,-291.6556 32.885,-294.9845"/>
<text text-anchor="middle" x="20.8008" y="-216.8673" font-family="Times,serif" font-size="14.00" fill="#000000">a</text>
</g>
<!-- q8 -->
<g id="node10" class="node">
<title>q8</title>
<ellipse fill="none" stroke="#000000" cx="24.6935" cy="-20.6935" rx="20.8887" ry="20.8887"/>
<text text-anchor="middle" x="24.6935" y="-16.4935" font-family="Times,serif" font-size="14.00" fill="#000000">q8</text>
</g>
<!-- q7&#45;&gt;q8 -->
<g id="edge9" class="edge">
<title>q7&#45;&gt;q8</title>
<path fill="none" stroke="#000000" d="M24.6935,-94.1037C24.6935,-81.2831 24.6935,-65.5025 24.6935,-51.862"/>
<polygon fill="#000000" stroke="#000000" points="28.1935,-51.4788 24.6935,-41.4789 21.1935,-51.4789 28.1935,-51.4788"/>
<text text-anchor="middle" x="28.1935" y="-63.5869" font-family="Times,serif" font-size="14.00" fill="#000000">b</text>
</g>
<!-- q4&#45;&gt;q4 -->
<g id="edge16" class="edge">
<title>q4&#45;&gt;q4</title>
<path fill="none" stroke="#000000" d="M72.4059,-229.9937C82.808,-231.6599 92.3869,-228.6845 92.3869,-221.0673 92.3869,-216.0685 88.2616,-213.0687 82.4856,-212.068"/>
<polygon fill="#000000" stroke="#000000" points="82.3803,-208.5686 72.4059,-212.1409 82.431,-215.5684 82.3803,-208.5686"/>
<text text-anchor="middle" x="95.4942" y="-216.8673" font-family="Times,serif" font-size="14.00" fill="#000000">a</text>
</g>
<!-- q8&#45;&gt;q8 -->
<g id="edge17" class="edge">
<title>q8&#45;&gt;q8</title>
<path fill="none" stroke="#000000" d="M43.8056,-28.9626C54.052,-30.3678 63.3869,-27.6114 63.3869,-20.6935 63.3869,-16.2616 59.5559,-13.5377 54.1084,-12.5217"/>
<polygon fill="#000000" stroke="#000000" points="53.8383,-9.0191 43.8056,-12.4243 53.772,-16.0188 53.8383,-9.0191"/>
<text text-anchor="middle" x="66.8869" y="-16.4935" font-family="Times,serif" font-size="14.00" fill="#000000">b</text>
</g>
</g>
</svg>
