<?xml version="1.0" encoding="UTF-8" standalone="no"?>
<!DOCTYPE svg PUBLIC "-//W3C//DTD SVG 1.1//EN"
 "http://www.w3.org/Graphics/SVG/1.1/DTD/svg11.dtd">
<!-- Generated by graphviz version 2.40.1 (20161225.0304)
 -->
<!-- Title: dfa Pages: 1 -->
<svg width="230pt" height="555pt"
 viewBox="0.00 0.00 230.19 554.51" xmlns="http://www.w3.org/2000/svg" xmlns:xlink="http://www.w3.org/1999/xlink">
<g id="graph0" class="graph" transform="scale(1 1) rotate(0) translate(4 550.5052)">
<title>dfa</title>
<polygon fill="#ffffff" stroke="transparent" points="-4,4 -4,-550.5052 226.1935,-550.5052 226.1935,4 -4,4"/>
<!-- Σ -->
<g id="node1" class="node">
<title>Σ</title>
<text text-anchor="middle" x="163.6935" y="-524.3052" font-family="Times,serif" font-size="14.00" fill="#000000">Σ={a,b}</text>
</g>
<!-- Qs -->
<g id="node2" class="node">
<title>Qs</title>
<ellipse fill="none" stroke="#000000" cx="163.6935" cy="-435.9418" rx="21.5294" ry="21.5294"/>
<text text-anchor="middle" x="163.6935" y="-431.7418" font-family="Times,serif" font-size="14.00" fill="#000000">Qs</text>
</g>
<!-- Σ&#45;&gt;Qs -->
<g id="edge1" class="edge">
<title>Σ&#45;&gt;Qs</title>
<path fill="none" stroke="#000000" d="M163.6935,-510.2176C163.6935,-498.2099 163.6935,-482.1751 163.6935,-468.0776"/>
<polygon fill="#000000" stroke="#000000" points="167.1935,-467.7736 163.6935,-457.7736 160.1935,-467.7736 167.1935,-467.7736"/>
<text text-anchor="middle" x="175.744" y="-479.9052" font-family="Times,serif" font-size="14.00" fill="#000000">start</text>
</g>
<!-- q0 -->
<g id="node3" class="node">
<title>q0</title>
<ellipse fill="none" stroke="#000000" cx="116.6935" cy="-340.6849" rx="20.8887" ry="20.8887"/>
<text text-anchor="middle" x="116.6935" y="-336.4849" font-family="Times,serif" font-size="14.00" fill="#000000">q0</text>
</g>
<!-- Qs&#45;&gt;q0 -->
<g id="edge2" class="edge">
<title>Qs&#45;&gt;q0</title>
<path fill="none" stroke="#000000" d="M153.955,-416.2045C147.1415,-402.3951 137.9448,-383.756 130.3931,-368.4506"/>
<polygon fill="#000000" stroke="#000000" points="133.5032,-366.8438 125.9397,-359.4246 127.2258,-369.9411 133.5032,-366.8438"/>
<text text-anchor="middle" x="145.8008" y="-383.5783" font-family="Times,serif" font-size="14.00" fill="#000000">a</text>
</g>
<!-- q1 -->
<g id="node4" class="node">
<title>q1</title>
<ellipse fill="none" stroke="#000000" cx="66.6935" cy="-20.6935" rx="20.8887" ry="20.8887"/>
<text text-anchor="middle" x="66.6935" y="-16.4935" font-family="Times,serif" font-size="14.00" fill="#000000">q1</text>
</g>
<!-- Qs&#45;&gt;q1 -->
<g id="edge5" class="edge">
<title>Qs&#45;&gt;q1</title>
<path fill="none" stroke="#000000" d="M178.095,-419.3125C192.2337,-401.2345 211.6935,-370.8702 211.6935,-340.6849 211.6935,-340.6849 211.6935,-340.6849 211.6935,-124.238 211.6935,-68.37 139.5222,-39.7944 97.0136,-27.8089"/>
<polygon fill="#000000" stroke="#000000" points="97.7254,-24.3764 87.1609,-25.1766 95.9186,-31.1392 97.7254,-24.3764"/>
<text text-anchor="middle" x="216.9435" y="-232.9403" font-family="Times,serif" font-size="14.00" fill="#000000"> b</text>
</g>
<!-- q2 -->
<g id="node5" class="node">
<title>q2</title>
<ellipse fill="none" stroke="#000000" cx="20.6935" cy="-237.1403" rx="20.8887" ry="20.8887"/>
<text text-anchor="middle" x="20.6935" y="-232.9403" font-family="Times,serif" font-size="14.00" fill="#000000">q2</text>
</g>
<!-- q0&#45;&gt;q2 -->
<g id="edge9" class="edge">
<title>q0&#45;&gt;q2</title>
<path fill="none" stroke="#000000" d="M102.5283,-325.4065C86.5049,-308.1238 60.2466,-279.8019 41.8052,-259.9112"/>
<polygon fill="#000000" stroke="#000000" points="44.2822,-257.4349 34.9167,-252.4813 39.149,-262.1941 44.2822,-257.4349"/>
<text text-anchor="middle" x="85.5508" y="-289.3914" font-family="Times,serif" font-size="14.00" fill="#000000"> a</text>
</g>
<!-- Qf1 -->
<g id="node6" class="node">
<title>Qf1</title>
<ellipse fill="none" stroke="#000000" cx="116.6935" cy="-237.1403" rx="26.0955" ry="26.0955"/>
<ellipse fill="none" stroke="#000000" cx="116.6935" cy="-237.1403" rx="30.1023" ry="30.1023"/>
<text text-anchor="middle" x="116.6935" y="-232.9403" font-family="Times,serif" font-size="14.00" fill="#000000">Qf1</text>
</g>
<!-- q0&#45;&gt;Qf1 -->
<g id="edge3" class="edge">
<title>q0&#45;&gt;Qf1</title>
<path fill="none" stroke="#000000" d="M116.6935,-319.7311C116.6935,-307.6528 116.6935,-292.0561 116.6935,-277.6749"/>
<polygon fill="#000000" stroke="#000000" points="120.1936,-277.4856 116.6935,-267.4856 113.1936,-277.4857 120.1936,-277.4856"/>
<text text-anchor="middle" x="120.1935" y="-289.3914" font-family="Times,serif" font-size="14.00" fill="#000000">b</text>
</g>
<!-- q1&#45;&gt;q1 -->
<g id="edge6" class="edge">
<title>q1&#45;&gt;q1</title>
<path fill="none" stroke="#000000" d="M85.8056,-28.9626C96.052,-30.3678 105.3869,-27.6114 105.3869,-20.6935 105.3869,-16.2616 101.5559,-13.5377 96.1084,-12.5217"/>
<polygon fill="#000000" stroke="#000000" points="95.8383,-9.0191 85.8056,-12.4243 95.772,-16.0188 95.8383,-9.0191"/>
<text text-anchor="middle" x="110.6369" y="-16.4935" font-family="Times,serif" font-size="14.00" fill="#000000"> b</text>
</g>
<!-- q1&#45;&gt;q2 -->
<g id="edge10" class="edge">
<title>q1&#45;&gt;q2</title>
<path fill="none" stroke="#000000" d="M53.2526,-36.666C42.3113,-50.7764 27.6979,-72.4379 21.4789,-94.1869 10.7833,-131.591 12.8911,-176.7854 16.1332,-206.2065"/>
<polygon fill="#000000" stroke="#000000" points="12.6774,-206.7834 17.3573,-216.2886 19.6264,-205.9396 12.6774,-206.7834"/>
<text text-anchor="middle" x="24.8008" y="-120.038" font-family="Times,serif" font-size="14.00" fill="#000000">a</text>
</g>
<!-- q2&#45;&gt;q2 -->
<g id="edge11" class="edge">
<title>q2&#45;&gt;q2</title>
<path fill="none" stroke="#000000" d="M39.0055,-247.0635C49.5608,-249.0886 59.3869,-245.7809 59.3869,-237.1403 59.3869,-231.4699 55.1552,-228.0961 49.2627,-227.0191"/>
<polygon fill="#000000" stroke="#000000" points="48.936,-223.5247 39.0055,-227.2171 49.0712,-230.5234 48.936,-223.5247"/>
<text text-anchor="middle" x="64.2442" y="-232.9403" font-family="Times,serif" font-size="14.00" fill="#000000"> a</text>
</g>
<!-- Qf2 -->
<g id="node7" class="node">
<title>Qf2</title>
<ellipse fill="none" stroke="#000000" cx="66.6935" cy="-124.238" rx="26.0955" ry="26.0955"/>
<ellipse fill="none" stroke="#000000" cx="66.6935" cy="-124.238" rx="30.1023" ry="30.1023"/>
<text text-anchor="middle" x="66.6935" y="-120.038" font-family="Times,serif" font-size="14.00" fill="#000000">Qf2</text>
</g>
<!-- q2&#45;&gt;Qf2 -->
<g id="edge12" class="edge">
<title>q2&#45;&gt;Qf2</title>
<path fill="none" stroke="#000000" d="M23.1514,-216.3853C25.1812,-203.3517 28.727,-186.3987 34.6935,-172.2892 36.8893,-167.0965 39.6651,-161.8659 42.66,-156.8647"/>
<polygon fill="#000000" stroke="#000000" points="45.7806,-158.4807 48.2095,-148.168 39.8797,-154.7152 45.7806,-158.4807"/>
<text text-anchor="middle" x="41.6935" y="-176.4892" font-family="Times,serif" font-size="14.00" fill="#000000">b &#160;</text>
</g>
<!-- Qf1&#45;&gt;Qf1 -->
<g id="edge4" class="edge">
<title>Qf1&#45;&gt;Qf1</title>
<path fill="none" stroke="#000000" d="M145.3051,-247.6172C155.9677,-247.9607 164.7446,-244.4684 164.7446,-237.1403 164.7446,-232.3312 160.9647,-229.1741 155.3525,-227.6689"/>
<polygon fill="#000000" stroke="#000000" points="155.6039,-224.1766 145.3051,-226.6634 154.9068,-231.1419 155.6039,-224.1766"/>
<text text-anchor="middle" x="170.5749" y="-232.9403" font-family="Times,serif" font-size="14.00" fill="#000000">Σ</text>
</g>
<!-- Qf2&#45;&gt;q1 -->
<g id="edge7" class="edge">
<title>Qf2&#45;&gt;q1</title>
<path fill="none" stroke="#000000" d="M66.6935,-94.0103C66.6935,-80.7278 66.6935,-65.1425 66.6935,-51.7648"/>
<polygon fill="#000000" stroke="#000000" points="70.1936,-51.5956 66.6935,-41.5956 63.1936,-51.5957 70.1936,-51.5956"/>
<text text-anchor="middle" x="71.9435" y="-63.5869" font-family="Times,serif" font-size="14.00" fill="#000000"> b</text>
</g>
<!-- Qf2&#45;&gt;q2 -->
<g id="edge8" class="edge">
<title>Qf2&#45;&gt;q2</title>
<path fill="none" stroke="#000000" d="M62.6202,-154.3334C60.4829,-165.5299 57.3141,-178.1622 52.6935,-189.0892 49.3448,-197.0079 44.6474,-205.015 39.881,-212.1621"/>
<polygon fill="#000000" stroke="#000000" points="36.7807,-210.4872 33.9031,-220.6838 42.5113,-214.5072 36.7807,-210.4872"/>
<text text-anchor="middle" x="63.5508" y="-176.4892" font-family="Times,serif" font-size="14.00" fill="#000000"> a</text>
</g>
</g>
</svg>
