<?xml version="1.0" encoding="UTF-8" standalone="no"?>
<!DOCTYPE svg PUBLIC "-//W3C//DTD SVG 1.1//EN"
 "http://www.w3.org/Graphics/SVG/1.1/DTD/svg11.dtd">
<!-- Generated by graphviz version 2.40.1 (20161225.0304)
 -->
<!-- Title: dfa Pages: 1 -->
<svg width="146pt" height="432pt"
 viewBox="0.00 0.00 145.92 431.95" xmlns="http://www.w3.org/2000/svg" xmlns:xlink="http://www.w3.org/1999/xlink">
<g id="graph0" class="graph" transform="scale(1 1) rotate(0) translate(4 427.946)">
<title>dfa</title>
<polygon fill="#ffffff" stroke="transparent" points="-4,4 -4,-427.946 141.9161,-427.946 141.9161,4 -4,4"/>
<g id="node1" class="node">
<title></title>
</g>
<!-- Qs -->
<g id="node2" class="node">
<title>Qs</title>
<ellipse fill="none" stroke="#000000" cx="64.6935" cy="-313.3826" rx="21.5294" ry="21.5294"/>
<text text-anchor="middle" x="64.6935" y="-309.1826" font-family="Times,serif" font-size="14.00" fill="#000000">Qs</text>
</g>
<!-- &#45;&gt;Qs -->
<g id="edge1" class="edge">
<title>&#45;&gt;Qs</title>
<path fill="none" stroke="#000000" d="M64.6935,-387.6584C64.6935,-375.6507 64.6935,-359.6159 64.6935,-345.5184"/>
<polygon fill="#000000" stroke="#000000" points="68.1935,-345.2144 64.6935,-335.2144 61.1935,-345.2144 68.1935,-345.2144"/>
<text text-anchor="middle" x="76.744" y="-357.346" font-family="Times,serif" font-size="14.00" fill="#000000">start</text>
</g>
<!-- Qs&#45;&gt;Qs -->
<g id="edge2" class="edge">
<title>Qs&#45;&gt;Qs</title>
<path fill="none" stroke="#000000" d="M84.7438,-322.0662C95.1115,-323.4021 104.4569,-320.5076 104.4569,-313.3826 104.4569,-308.8181 100.6215,-305.9898 95.1391,-304.8978"/>
<polygon fill="#000000" stroke="#000000" points="94.809,-301.3909 84.7438,-304.699 94.6751,-308.3896 94.809,-301.3909"/>
<text text-anchor="middle" x="107.9569" y="-309.1826" font-family="Times,serif" font-size="14.00" fill="#000000">b</text>
</g>
<!-- q0 -->
<g id="node3" class="node">
<title>q0</title>
<ellipse fill="none" stroke="#000000" cx="20.6935" cy="-218.1257" rx="20.8887" ry="20.8887"/>
<text text-anchor="middle" x="20.6935" y="-213.9257" font-family="Times,serif" font-size="14.00" fill="#000000">q0</text>
</g>
<!-- Qs&#45;&gt;q0 -->
<g id="edge3" class="edge">
<title>Qs&#45;&gt;q0</title>
<path fill="none" stroke="#000000" d="M47.1038,-299.7513C39.4411,-292.8014 31.1563,-283.6927 26.4789,-273.6191 22.9795,-266.0827 21.1757,-257.3661 20.324,-249.1065"/>
<polygon fill="#000000" stroke="#000000" points="23.8104,-248.7762 19.6986,-239.0118 16.8238,-249.2091 23.8104,-248.7762"/>
<text text-anchor="middle" x="29.8008" y="-261.0191" font-family="Times,serif" font-size="14.00" fill="#000000">a</text>
</g>
<!-- q0&#45;&gt;Qs -->
<g id="edge4" class="edge">
<title>q0&#45;&gt;Qs</title>
<path fill="none" stroke="#000000" d="M29.4127,-237.0023C35.6208,-250.4423 44.0835,-268.7634 51.1644,-284.0931"/>
<polygon fill="#000000" stroke="#000000" points="47.9914,-285.5704 55.3622,-293.181 54.3462,-282.635 47.9914,-285.5704"/>
<text text-anchor="middle" x="48.8008" y="-261.0191" font-family="Times,serif" font-size="14.00" fill="#000000">a</text>
</g>
<!-- q1 -->
<g id="node4" class="node">
<title>q1</title>
<ellipse fill="none" stroke="#000000" cx="62.6935" cy="-123.9388" rx="20.8887" ry="20.8887"/>
<text text-anchor="middle" x="62.6935" y="-119.7388" font-family="Times,serif" font-size="14.00" fill="#000000">q1</text>
</g>
<!-- q0&#45;&gt;q1 -->
<g id="edge5" class="edge">
<title>q0&#45;&gt;q1</title>
<path fill="none" stroke="#000000" d="M29.1928,-199.0655C35.1702,-185.6608 43.2722,-167.4917 50.0112,-152.3793"/>
<polygon fill="#000000" stroke="#000000" points="53.3306,-153.5291 54.2068,-142.9705 46.9375,-150.6782 53.3306,-153.5291"/>
<text text-anchor="middle" x="48.1935" y="-166.8322" font-family="Times,serif" font-size="14.00" fill="#000000">b</text>
</g>
<!-- q1&#45;&gt;Qs -->
<g id="edge6" class="edge">
<title>q1&#45;&gt;Qs</title>
<path fill="none" stroke="#000000" d="M62.9131,-144.7445C63.2606,-177.6625 63.9399,-242.0088 64.3516,-281.0017"/>
<polygon fill="#000000" stroke="#000000" points="60.8546,-281.3177 64.4601,-291.2802 67.8543,-281.2438 60.8546,-281.3177"/>
<text text-anchor="middle" x="67.8008" y="-213.9257" font-family="Times,serif" font-size="14.00" fill="#000000">a</text>
</g>
<!-- Qf -->
<g id="node5" class="node">
<title>Qf</title>
<ellipse fill="none" stroke="#000000" cx="87.6935" cy="-25.2227" rx="21.4117" ry="21.4117"/>
<ellipse fill="none" stroke="#000000" cx="87.6935" cy="-25.2227" rx="25.4473" ry="25.4473"/>
<text text-anchor="middle" x="87.6935" y="-21.0227" font-family="Times,serif" font-size="14.00" fill="#000000">Qf</text>
</g>
<!-- q1&#45;&gt;Qf -->
<g id="edge7" class="edge">
<title>q1&#45;&gt;Qf</title>
<path fill="none" stroke="#000000" d="M67.8735,-103.4847C71.0807,-90.8205 75.2806,-74.2365 78.9884,-59.5958"/>
<polygon fill="#000000" stroke="#000000" points="82.3962,-60.3958 81.4584,-49.8425 75.6105,-58.6772 82.3962,-60.3958"/>
<text text-anchor="middle" x="79.1935" y="-72.6453" font-family="Times,serif" font-size="14.00" fill="#000000">b</text>
</g>
<!-- Qf&#45;&gt;Qs -->
<g id="edge8" class="edge">
<title>Qf&#45;&gt;Qs</title>
<path fill="none" stroke="#000000" d="M89.7246,-50.5026C90.8484,-65.7645 92.1289,-85.6089 92.6935,-103.2453 95.1242,-179.1833 95.5201,-199.5289 78.6935,-273.6191 77.9641,-276.8308 77.0585,-280.142 76.0613,-283.4185"/>
<polygon fill="#000000" stroke="#000000" points="72.7062,-282.4164 72.8789,-293.0098 79.35,-284.6208 72.7062,-282.4164"/>
<text text-anchor="middle" x="96.8008" y="-166.8322" font-family="Times,serif" font-size="14.00" fill="#000000">a</text>
</g>
<!-- Qf&#45;&gt;Qf -->
<g id="edge9" class="edge">
<title>Qf&#45;&gt;Qf</title>
<path fill="none" stroke="#000000" d="M111.257,-34.4512C121.7988,-35.3301 130.9161,-32.2539 130.9161,-25.2227 130.9161,-20.6084 126.9896,-17.6974 121.3108,-16.4898"/>
<polygon fill="#000000" stroke="#000000" points="121.4172,-12.9909 111.257,-15.9941 121.0725,-19.9824 121.4172,-12.9909"/>
<text text-anchor="middle" x="134.4161" y="-21.0227" font-family="Times,serif" font-size="14.00" fill="#000000">b</text>
</g>
</g>
</svg>
