<?xml version="1.0" encoding="UTF-8" standalone="no"?>
<!DOCTYPE svg PUBLIC "-//W3C//DTD SVG 1.1//EN"
 "http://www.w3.org/Graphics/SVG/1.1/DTD/svg11.dtd">
<!-- Generated by graphviz version 2.40.1 (20161225.0304)
 -->
<!-- Title: dfa Pages: 1 -->
<svg width="1335pt" height="338pt"
 viewBox="0.00 0.00 1334.79 337.76" xmlns="http://www.w3.org/2000/svg" xmlns:xlink="http://www.w3.org/1999/xlink">
<g id="graph0" class="graph" transform="scale(1 1) rotate(0) translate(4 333.7591)">
<title>dfa</title>
<polygon fill="#ffffff" stroke="transparent" points="-4,4 -4,-333.7591 1330.7913,-333.7591 1330.7913,4 -4,4"/>
<g id="node1" class="node">
<title></title>
</g>
<!-- Qs -->
<g id="node2" class="node">
<title>Qs</title>
<ellipse fill="none" stroke="#000000" cx="661.6935" cy="-219.1957" rx="21.5294" ry="21.5294"/>
<text text-anchor="middle" x="661.6935" y="-214.9957" font-family="Times,serif" font-size="14.00" fill="#000000">Qs</text>
</g>
<!-- &#45;&gt;Qs -->
<g id="edge1" class="edge">
<title>&#45;&gt;Qs</title>
<path fill="none" stroke="#000000" d="M661.6935,-293.4715C661.6935,-281.4638 661.6935,-265.429 661.6935,-251.3315"/>
<polygon fill="#000000" stroke="#000000" points="665.1935,-251.0275 661.6935,-241.0275 658.1935,-251.0275 665.1935,-251.0275"/>
<text text-anchor="middle" x="673.744" y="-263.1591" font-family="Times,serif" font-size="14.00" fill="#000000">start</text>
</g>
<!-- q0 -->
<g id="node3" class="node">
<title>q0</title>
<ellipse fill="none" stroke="#000000" cx="20.6935" cy="-123.9388" rx="20.8887" ry="20.8887"/>
<text text-anchor="middle" x="20.6935" y="-119.7388" font-family="Times,serif" font-size="14.00" fill="#000000">q0</text>
</g>
<!-- Qs&#45;&gt;q0 -->
<g id="edge2" class="edge">
<title>Qs&#45;&gt;q0</title>
<path fill="none" stroke="#000000" d="M639.6883,-218.8503C573.5494,-217.4763 370.9739,-210.8103 206.5957,-179.4322 149.8931,-168.6083 85.7911,-147.4048 49.6114,-134.5709"/>
<polygon fill="#000000" stroke="#000000" points="50.7712,-131.2687 40.1767,-131.1886 48.4089,-137.858 50.7712,-131.2687"/>
<text text-anchor="middle" x="222.7424" y="-166.8322" font-family="Times,serif" font-size="14.00" fill="#000000">{1&#45;9}</text>
</g>
<!-- q1 -->
<g id="node4" class="node">
<title>q1</title>
<ellipse fill="none" stroke="#000000" cx="129.6935" cy="-123.9388" rx="20.8887" ry="20.8887"/>
<text text-anchor="middle" x="129.6935" y="-119.7388" font-family="Times,serif" font-size="14.00" fill="#000000">q1</text>
</g>
<!-- Qs&#45;&gt;q1 -->
<g id="edge3" class="edge">
<title>Qs&#45;&gt;q1</title>
<path fill="none" stroke="#000000" d="M639.8241,-218.219C583.8076,-215.4014 430.8115,-205.712 306.2679,-179.4322 253.1844,-168.2311 193.3177,-147.6676 158.7037,-134.9627"/>
<polygon fill="#000000" stroke="#000000" points="159.8152,-131.642 149.2222,-131.4466 157.3813,-138.2052 159.8152,-131.642"/>
<text text-anchor="middle" x="334.9063" y="-166.8322" font-family="Times,serif" font-size="14.00" fill="#000000">{0&#45;9}/{1}</text>
</g>
<!-- q2 -->
<g id="node5" class="node">
<title>q2</title>
<ellipse fill="none" stroke="#000000" cx="262.6935" cy="-123.9388" rx="20.8887" ry="20.8887"/>
<text text-anchor="middle" x="262.6935" y="-119.7388" font-family="Times,serif" font-size="14.00" fill="#000000">q2</text>
</g>
<!-- Qs&#45;&gt;q2 -->
<g id="edge4" class="edge">
<title>Qs&#45;&gt;q2</title>
<path fill="none" stroke="#000000" d="M639.9305,-216.9772C597.0274,-212.3115 498.712,-200.1681 418.2679,-179.4322 372.915,-167.7417 322.1084,-148.3807 291.2665,-135.8949"/>
<polygon fill="#000000" stroke="#000000" points="292.5676,-132.6456 281.9867,-132.1011 289.9186,-139.1251 292.5676,-132.6456"/>
<text text-anchor="middle" x="446.9063" y="-166.8322" font-family="Times,serif" font-size="14.00" fill="#000000">{0&#45;9}/{2}</text>
</g>
<!-- q3 -->
<g id="node6" class="node">
<title>q3</title>
<ellipse fill="none" stroke="#000000" cx="395.6935" cy="-123.9388" rx="20.8887" ry="20.8887"/>
<text text-anchor="middle" x="395.6935" y="-119.7388" font-family="Times,serif" font-size="14.00" fill="#000000">q3</text>
</g>
<!-- Qs&#45;&gt;q3 -->
<g id="edge5" class="edge">
<title>Qs&#45;&gt;q3</title>
<path fill="none" stroke="#000000" d="M640.1453,-214.2481C611.9742,-207.5383 561.2726,-194.6304 519.2679,-179.4322 485.4927,-167.2116 448.035,-149.8213 423.3098,-137.7791"/>
<polygon fill="#000000" stroke="#000000" points="424.6936,-134.5594 414.175,-133.2909 421.6067,-140.842 424.6936,-134.5594"/>
<text text-anchor="middle" x="547.9063" y="-166.8322" font-family="Times,serif" font-size="14.00" fill="#000000">{0&#45;9}/{3}</text>
</g>
<!-- q4 -->
<g id="node7" class="node">
<title>q4</title>
<ellipse fill="none" stroke="#000000" cx="528.6935" cy="-123.9388" rx="20.8887" ry="20.8887"/>
<text text-anchor="middle" x="528.6935" y="-119.7388" font-family="Times,serif" font-size="14.00" fill="#000000">q4</text>
</g>
<!-- Qs&#45;&gt;q4 -->
<g id="edge6" class="edge">
<title>Qs&#45;&gt;q4</title>
<path fill="none" stroke="#000000" d="M643.2213,-207.5213C631.1393,-199.7682 615.0914,-189.2471 601.2679,-179.4322 584.8816,-167.7978 566.9378,-154.0863 552.9922,-143.2037"/>
<polygon fill="#000000" stroke="#000000" points="554.9038,-140.2549 544.8754,-136.8371 550.5836,-145.7627 554.9038,-140.2549"/>
<text text-anchor="middle" x="629.9063" y="-166.8322" font-family="Times,serif" font-size="14.00" fill="#000000">{0&#45;9}/{4}</text>
</g>
<!-- q5 -->
<g id="node8" class="node">
<title>q5</title>
<ellipse fill="none" stroke="#000000" cx="661.6935" cy="-123.9388" rx="20.8887" ry="20.8887"/>
<text text-anchor="middle" x="661.6935" y="-119.7388" font-family="Times,serif" font-size="14.00" fill="#000000">q5</text>
</g>
<!-- Qs&#45;&gt;q5 -->
<g id="edge7" class="edge">
<title>Qs&#45;&gt;q5</title>
<path fill="none" stroke="#000000" d="M661.6935,-197.1024C661.6935,-184.5765 661.6935,-168.7052 661.6935,-154.9487"/>
<polygon fill="#000000" stroke="#000000" points="665.1936,-154.9317 661.6935,-144.9317 658.1936,-154.9317 665.1936,-154.9317"/>
<text text-anchor="middle" x="689.9063" y="-166.8322" font-family="Times,serif" font-size="14.00" fill="#000000">{0&#45;9}/{5}</text>
</g>
<!-- q6 -->
<g id="node9" class="node">
<title>q6</title>
<ellipse fill="none" stroke="#000000" cx="794.6935" cy="-123.9388" rx="20.8887" ry="20.8887"/>
<text text-anchor="middle" x="794.6935" y="-119.7388" font-family="Times,serif" font-size="14.00" fill="#000000">q6</text>
</g>
<!-- Qs&#45;&gt;q6 -->
<g id="edge8" class="edge">
<title>Qs&#45;&gt;q6</title>
<path fill="none" stroke="#000000" d="M680.2842,-207.3179C692.2424,-199.5696 708.0417,-189.1295 721.6935,-179.4322 738.1378,-167.7512 756.1865,-154.0392 770.2232,-143.168"/>
<polygon fill="#000000" stroke="#000000" points="772.6516,-145.7132 778.3944,-136.8098 768.3528,-140.1887 772.6516,-145.7132"/>
<text text-anchor="middle" x="771.9063" y="-166.8322" font-family="Times,serif" font-size="14.00" fill="#000000">{0&#45;9}/{6}</text>
</g>
<!-- q7 -->
<g id="node10" class="node">
<title>q7</title>
<ellipse fill="none" stroke="#000000" cx="927.6935" cy="-123.9388" rx="20.8887" ry="20.8887"/>
<text text-anchor="middle" x="927.6935" y="-119.7388" font-family="Times,serif" font-size="14.00" fill="#000000">q7</text>
</g>
<!-- Qs&#45;&gt;q7 -->
<g id="edge9" class="edge">
<title>Qs&#45;&gt;q7</title>
<path fill="none" stroke="#000000" d="M683.308,-215.1313C726.2345,-206.4823 824.4906,-183.7789 898.6935,-144.6322 900.0269,-143.9287 901.3693,-143.1716 902.7069,-142.3775"/>
<polygon fill="#000000" stroke="#000000" points="904.8449,-145.1621 911.3182,-136.7747 901.0274,-139.2946 904.8449,-145.1621"/>
<text text-anchor="middle" x="883.9063" y="-166.8322" font-family="Times,serif" font-size="14.00" fill="#000000">{0&#45;9}/{7}</text>
</g>
<!-- q8 -->
<g id="node11" class="node">
<title>q8</title>
<ellipse fill="none" stroke="#000000" cx="1060.6935" cy="-123.9388" rx="20.8887" ry="20.8887"/>
<text text-anchor="middle" x="1060.6935" y="-119.7388" font-family="Times,serif" font-size="14.00" fill="#000000">q8</text>
</g>
<!-- Qs&#45;&gt;q8 -->
<g id="edge10" class="edge">
<title>Qs&#45;&gt;q8</title>
<path fill="none" stroke="#000000" d="M683.6285,-216.7826C727.8707,-211.6919 830.8189,-198.7126 915.6935,-179.4322 968.1818,-167.5088 983.3586,-168.3163 1031.6935,-144.6322 1033.0473,-143.9688 1034.4062,-143.2442 1035.757,-142.4759"/>
<polygon fill="#000000" stroke="#000000" points="1037.86,-145.2861 1044.4129,-136.9608 1034.0985,-139.3826 1037.86,-145.2861"/>
<text text-anchor="middle" x="1014.9063" y="-166.8322" font-family="Times,serif" font-size="14.00" fill="#000000">{0&#45;9}/{8}</text>
</g>
<!-- q9 -->
<g id="node12" class="node">
<title>q9</title>
<ellipse fill="none" stroke="#000000" cx="1193.6935" cy="-123.9388" rx="20.8887" ry="20.8887"/>
<text text-anchor="middle" x="1193.6935" y="-119.7388" font-family="Times,serif" font-size="14.00" fill="#000000">q9</text>
</g>
<!-- Qs&#45;&gt;q9 -->
<g id="edge11" class="edge">
<title>Qs&#45;&gt;q9</title>
<path fill="none" stroke="#000000" d="M683.6103,-218.343C742.7315,-215.7403 910.2303,-206.3639 1046.6935,-179.4322 1100.3363,-168.8455 1115.5374,-168.5764 1164.6935,-144.6322 1166.0488,-143.972 1167.409,-143.2499 1168.7608,-142.4837"/>
<polygon fill="#000000" stroke="#000000" points="1170.861,-145.2959 1177.42,-136.9755 1167.1039,-139.3896 1170.861,-145.2959"/>
<text text-anchor="middle" x="1136.7424" y="-166.8322" font-family="Times,serif" font-size="14.00" fill="#000000">{0&#45;8}</text>
</g>
<!-- Qf -->
<g id="node13" class="node">
<title>Qf</title>
<ellipse fill="none" stroke="#000000" cx="661.6935" cy="-25.2227" rx="21.4117" ry="21.4117"/>
<ellipse fill="none" stroke="#000000" cx="661.6935" cy="-25.2227" rx="25.4473" ry="25.4473"/>
<text text-anchor="middle" x="661.6935" y="-21.0227" font-family="Times,serif" font-size="14.00" fill="#000000">Qf</text>
</g>
<!-- Qs&#45;&gt;Qf -->
<g id="edge12" class="edge">
<title>Qs&#45;&gt;Qf</title>
<path fill="none" stroke="#000000" d="M683.4477,-218.3609C788.2522,-214.1054 1237.5369,-193.1085 1273.6935,-144.6322 1353.943,-37.0391 1203.4514,-81.5872 1121.6935,-68.4453 964.5542,-43.1866 774.6661,-31.1171 697.1927,-26.9655"/>
<polygon fill="#000000" stroke="#000000" points="697.1918,-23.4607 687.022,-26.4317 696.8248,-30.4511 697.1918,-23.4607"/>
<text text-anchor="middle" x="1310.7424" y="-119.7388" font-family="Times,serif" font-size="14.00" fill="#000000">{0&#45;9}</text>
</g>
<!-- q0&#45;&gt;q0 -->
<g id="edge13" class="edge">
<title>q0&#45;&gt;q0</title>
<path fill="none" stroke="#000000" d="M39.8056,-132.2079C50.052,-133.6131 59.3869,-130.8567 59.3869,-123.9388 59.3869,-119.5069 55.5559,-116.783 50.1084,-115.767"/>
<polygon fill="#000000" stroke="#000000" points="49.8383,-112.2644 39.8056,-115.6696 49.772,-119.2641 49.8383,-112.2644"/>
<text text-anchor="middle" x="75.4358" y="-119.7388" font-family="Times,serif" font-size="14.00" fill="#000000">{1&#45;9}</text>
</g>
<!-- q0&#45;&gt;Qf -->
<g id="edge23" class="edge">
<title>q0&#45;&gt;Qf</title>
<path fill="none" stroke="#000000" d="M40.697,-118.1234C56.5912,-113.6425 79.438,-107.5118 99.6935,-103.2453 296.7529,-61.7376 537.487,-36.7665 626.465,-28.3915"/>
<polygon fill="#000000" stroke="#000000" points="626.9181,-31.8645 636.5505,-27.4524 626.269,-24.8946 626.9181,-31.8645"/>
<text text-anchor="middle" x="288.1935" y="-72.6453" font-family="Times,serif" font-size="14.00" fill="#000000">0</text>
</g>
<!-- q1&#45;&gt;q1 -->
<g id="edge14" class="edge">
<title>q1&#45;&gt;q1</title>
<path fill="none" stroke="#000000" d="M148.8056,-132.2079C159.052,-133.6131 168.3869,-130.8567 168.3869,-123.9388 168.3869,-119.5069 164.5559,-116.783 159.1084,-115.767"/>
<polygon fill="#000000" stroke="#000000" points="158.8383,-112.2644 148.8056,-115.6696 158.772,-119.2641 158.8383,-112.2644"/>
<text text-anchor="middle" x="196.5997" y="-119.7388" font-family="Times,serif" font-size="14.00" fill="#000000">{0&#45;9}/{1}</text>
</g>
<!-- q1&#45;&gt;Qf -->
<g id="edge24" class="edge">
<title>q1&#45;&gt;Qf</title>
<path fill="none" stroke="#000000" d="M150.2006,-119.7538C170.9787,-115.5287 204.053,-108.8454 232.6935,-103.2453 313.9457,-87.358 334.2539,-83.3425 415.6935,-68.4453 490.6426,-54.7353 578.5977,-39.4832 626.3961,-31.2647"/>
<polygon fill="#000000" stroke="#000000" points="627.2658,-34.6667 636.529,-29.5245 626.0808,-27.7677 627.2658,-34.6667"/>
<text text-anchor="middle" x="419.1935" y="-72.6453" font-family="Times,serif" font-size="14.00" fill="#000000">1</text>
</g>
<!-- q2&#45;&gt;q2 -->
<g id="edge15" class="edge">
<title>q2&#45;&gt;q2</title>
<path fill="none" stroke="#000000" d="M281.8056,-132.2079C292.052,-133.6131 301.3869,-130.8567 301.3869,-123.9388 301.3869,-119.5069 297.5559,-116.783 292.1084,-115.767"/>
<polygon fill="#000000" stroke="#000000" points="291.8383,-112.2644 281.8056,-115.6696 291.772,-119.2641 291.8383,-112.2644"/>
<text text-anchor="middle" x="329.5997" y="-119.7388" font-family="Times,serif" font-size="14.00" fill="#000000">{0&#45;9}/{2}</text>
</g>
<!-- q2&#45;&gt;Qf -->
<g id="edge25" class="edge">
<title>q2&#45;&gt;Qf</title>
<path fill="none" stroke="#000000" d="M283.0285,-118.9077C347.2408,-103.021 546.1992,-53.7969 627.0273,-33.7994"/>
<polygon fill="#000000" stroke="#000000" points="628.3104,-37.0875 637.1771,-31.2882 626.6292,-30.2924 628.3104,-37.0875"/>
<text text-anchor="middle" x="490.1935" y="-72.6453" font-family="Times,serif" font-size="14.00" fill="#000000">2</text>
</g>
<!-- q3&#45;&gt;q3 -->
<g id="edge16" class="edge">
<title>q3&#45;&gt;q3</title>
<path fill="none" stroke="#000000" d="M414.8056,-132.2079C425.052,-133.6131 434.3869,-130.8567 434.3869,-123.9388 434.3869,-119.5069 430.5559,-116.783 425.1084,-115.767"/>
<polygon fill="#000000" stroke="#000000" points="424.8383,-112.2644 414.8056,-115.6696 424.772,-119.2641 424.8383,-112.2644"/>
<text text-anchor="middle" x="462.5997" y="-119.7388" font-family="Times,serif" font-size="14.00" fill="#000000">{0&#45;9}/{3}</text>
</g>
<!-- q3&#45;&gt;Qf -->
<g id="edge26" class="edge">
<title>q3&#45;&gt;Qf</title>
<path fill="none" stroke="#000000" d="M415.2531,-116.6799C460.4133,-99.9204 572.364,-58.374 628.495,-37.543"/>
<polygon fill="#000000" stroke="#000000" points="629.8179,-40.7854 637.9754,-34.0247 627.3824,-34.2227 629.8179,-40.7854"/>
<text text-anchor="middle" x="548.1935" y="-72.6453" font-family="Times,serif" font-size="14.00" fill="#000000">3</text>
</g>
<!-- q4&#45;&gt;q4 -->
<g id="edge17" class="edge">
<title>q4&#45;&gt;q4</title>
<path fill="none" stroke="#000000" d="M547.8056,-132.2079C558.052,-133.6131 567.3869,-130.8567 567.3869,-123.9388 567.3869,-119.5069 563.5559,-116.783 558.1084,-115.767"/>
<polygon fill="#000000" stroke="#000000" points="557.8383,-112.2644 547.8056,-115.6696 557.772,-119.2641 557.8383,-112.2644"/>
<text text-anchor="middle" x="595.5997" y="-119.7388" font-family="Times,serif" font-size="14.00" fill="#000000">{0&#45;9}/{4}</text>
</g>
<!-- q4&#45;&gt;Qf -->
<g id="edge27" class="edge">
<title>q4&#45;&gt;Qf</title>
<path fill="none" stroke="#000000" d="M545.538,-111.4363C567.4875,-95.1448 606.2052,-66.4075 632.8666,-46.6187"/>
<polygon fill="#000000" stroke="#000000" points="635.1188,-49.3058 641.0627,-40.5354 630.9468,-43.6849 635.1188,-49.3058"/>
<text text-anchor="middle" x="607.1935" y="-72.6453" font-family="Times,serif" font-size="14.00" fill="#000000">4</text>
</g>
<!-- q5&#45;&gt;q5 -->
<g id="edge18" class="edge">
<title>q5&#45;&gt;q5</title>
<path fill="none" stroke="#000000" d="M680.8056,-132.2079C691.052,-133.6131 700.3869,-130.8567 700.3869,-123.9388 700.3869,-119.5069 696.5559,-116.783 691.1084,-115.767"/>
<polygon fill="#000000" stroke="#000000" points="690.8383,-112.2644 680.8056,-115.6696 690.772,-119.2641 690.8383,-112.2644"/>
<text text-anchor="middle" x="728.5997" y="-119.7388" font-family="Times,serif" font-size="14.00" fill="#000000">{0&#45;9}/{5}</text>
</g>
<!-- q5&#45;&gt;Qf -->
<g id="edge28" class="edge">
<title>q5&#45;&gt;Qf</title>
<path fill="none" stroke="#000000" d="M661.6935,-103.0036C661.6935,-90.8266 661.6935,-75.1484 661.6935,-61.062"/>
<polygon fill="#000000" stroke="#000000" points="665.1935,-60.6846 661.6935,-50.6846 658.1935,-60.6846 665.1935,-60.6846"/>
<text text-anchor="middle" x="665.1935" y="-72.6453" font-family="Times,serif" font-size="14.00" fill="#000000">5</text>
</g>
<!-- q6&#45;&gt;q6 -->
<g id="edge19" class="edge">
<title>q6&#45;&gt;q6</title>
<path fill="none" stroke="#000000" d="M813.8056,-132.2079C824.052,-133.6131 833.3869,-130.8567 833.3869,-123.9388 833.3869,-119.5069 829.5559,-116.783 824.1084,-115.767"/>
<polygon fill="#000000" stroke="#000000" points="823.8383,-112.2644 813.8056,-115.6696 823.772,-119.2641 823.8383,-112.2644"/>
<text text-anchor="middle" x="861.5997" y="-119.7388" font-family="Times,serif" font-size="14.00" fill="#000000">{0&#45;9}/{6}</text>
</g>
<!-- q6&#45;&gt;Qf -->
<g id="edge29" class="edge">
<title>q6&#45;&gt;Qf</title>
<path fill="none" stroke="#000000" d="M777.8489,-111.4363C755.8994,-95.1448 717.1817,-66.4075 690.5203,-46.6187"/>
<polygon fill="#000000" stroke="#000000" points="692.4401,-43.6849 682.3242,-40.5354 688.2681,-49.3058 692.4401,-43.6849"/>
<text text-anchor="middle" x="743.1935" y="-72.6453" font-family="Times,serif" font-size="14.00" fill="#000000">6</text>
</g>
<!-- q7&#45;&gt;q7 -->
<g id="edge20" class="edge">
<title>q7&#45;&gt;q7</title>
<path fill="none" stroke="#000000" d="M946.8056,-132.2079C957.052,-133.6131 966.3869,-130.8567 966.3869,-123.9388 966.3869,-119.5069 962.5559,-116.783 957.1084,-115.767"/>
<polygon fill="#000000" stroke="#000000" points="956.8383,-112.2644 946.8056,-115.6696 956.772,-119.2641 956.8383,-112.2644"/>
<text text-anchor="middle" x="994.5997" y="-119.7388" font-family="Times,serif" font-size="14.00" fill="#000000">{0&#45;9}/{7}</text>
</g>
<!-- q7&#45;&gt;Qf -->
<g id="edge30" class="edge">
<title>q7&#45;&gt;Qf</title>
<path fill="none" stroke="#000000" d="M911.3714,-110.9999C907.3704,-108.1982 902.9971,-105.4255 898.6935,-103.2453 830.4716,-68.6849 743.6302,-44.6854 696.2964,-33.1173"/>
<polygon fill="#000000" stroke="#000000" points="697.0791,-29.7058 686.5381,-30.7723 695.4435,-36.512 697.0791,-29.7058"/>
<text text-anchor="middle" x="858.1935" y="-72.6453" font-family="Times,serif" font-size="14.00" fill="#000000">7</text>
</g>
<!-- q8&#45;&gt;q8 -->
<g id="edge21" class="edge">
<title>q8&#45;&gt;q8</title>
<path fill="none" stroke="#000000" d="M1079.8056,-132.2079C1090.052,-133.6131 1099.3869,-130.8567 1099.3869,-123.9388 1099.3869,-119.5069 1095.5559,-116.783 1090.1084,-115.767"/>
<polygon fill="#000000" stroke="#000000" points="1089.8383,-112.2644 1079.8056,-115.6696 1089.772,-119.2641 1089.8383,-112.2644"/>
<text text-anchor="middle" x="1127.5997" y="-119.7388" font-family="Times,serif" font-size="14.00" fill="#000000">{0&#45;9}/{8}</text>
</g>
<!-- q8&#45;&gt;Qf -->
<g id="edge31" class="edge">
<title>q8&#45;&gt;Qf</title>
<path fill="none" stroke="#000000" d="M1044.5361,-110.6514C1040.5283,-107.864 1036.1106,-105.1851 1031.6935,-103.2453 915.8706,-52.3809 764.781,-33.8834 697.1357,-27.8454"/>
<polygon fill="#000000" stroke="#000000" points="697.2755,-24.3446 687.0137,-26.9802 696.6793,-31.3192 697.2755,-24.3446"/>
<text text-anchor="middle" x="987.1935" y="-72.6453" font-family="Times,serif" font-size="14.00" fill="#000000">8</text>
</g>
<!-- q9&#45;&gt;q9 -->
<g id="edge22" class="edge">
<title>q9&#45;&gt;q9</title>
<path fill="none" stroke="#000000" d="M1212.8056,-132.2079C1223.052,-133.6131 1232.3869,-130.8567 1232.3869,-123.9388 1232.3869,-119.5069 1228.5559,-116.783 1223.1084,-115.767"/>
<polygon fill="#000000" stroke="#000000" points="1222.8383,-112.2644 1212.8056,-115.6696 1222.772,-119.2641 1222.8383,-112.2644"/>
<text text-anchor="middle" x="1248.4358" y="-119.7388" font-family="Times,serif" font-size="14.00" fill="#000000">{0&#45;8}</text>
</g>
<!-- q9&#45;&gt;Qf -->
<g id="edge32" class="edge">
<title>q9&#45;&gt;Qf</title>
<path fill="none" stroke="#000000" d="M1177.5444,-110.6324C1173.5362,-107.8458 1169.1164,-105.1721 1164.6935,-103.2453 1093.9889,-72.4439 1070.7621,-81.1506 994.6935,-68.4453 886.7478,-50.4158 758.0476,-35.5859 697.0798,-28.9583"/>
<polygon fill="#000000" stroke="#000000" points="697.1676,-25.4476 686.8497,-27.8544 696.4164,-32.4072 697.1676,-25.4476"/>
<text text-anchor="middle" x="1114.1935" y="-72.6453" font-family="Times,serif" font-size="14.00" fill="#000000">9</text>
</g>
</g>
</svg>
