<?xml version="1.0" encoding="UTF-8" standalone="no"?>
<!DOCTYPE svg PUBLIC "-//W3C//DTD SVG 1.1//EN"
 "http://www.w3.org/Graphics/SVG/1.1/DTD/svg11.dtd">
<!-- Generated by graphviz version 2.40.1 (20161225.0304)
 -->
<!-- Title: nfa Pages: 1 -->
<svg width="178pt" height="526pt"
 viewBox="0.00 0.00 178.35 526.13" xmlns="http://www.w3.org/2000/svg" xmlns:xlink="http://www.w3.org/1999/xlink">
<g id="graph0" class="graph" transform="scale(1 1) rotate(0) translate(4 522.1329)">
<title>nfa</title>
<polygon fill="#ffffff" stroke="transparent" points="-4,4 -4,-522.1329 174.3541,-522.1329 174.3541,4 -4,4"/>
<!-- Σ -->
<g id="node1" class="node">
<title>Σ</title>
<text text-anchor="middle" x="84.6935" y="-495.9329" font-family="Times,serif" font-size="14.00" fill="#000000">Σ={0,1}</text>
</g>
<!-- Qs -->
<g id="node2" class="node">
<title>Qs</title>
<ellipse fill="none" stroke="#000000" cx="84.6935" cy="-407.5695" rx="21.5294" ry="21.5294"/>
<text text-anchor="middle" x="84.6935" y="-403.3695" font-family="Times,serif" font-size="14.00" fill="#000000">Qs</text>
</g>
<!-- Σ&#45;&gt;Qs -->
<g id="edge1" class="edge">
<title>Σ&#45;&gt;Qs</title>
<path fill="none" stroke="#000000" d="M84.6935,-481.8453C84.6935,-469.8376 84.6935,-453.8028 84.6935,-439.7053"/>
<polygon fill="#000000" stroke="#000000" points="88.1935,-439.4013 84.6935,-429.4013 81.1935,-439.4013 88.1935,-439.4013"/>
<text text-anchor="middle" x="96.744" y="-451.5329" font-family="Times,serif" font-size="14.00" fill="#000000">start</text>
</g>
<!-- Qs&#45;&gt;Qs -->
<g id="edge2" class="edge">
<title>Qs&#45;&gt;Qs</title>
<path fill="none" stroke="#000000" d="M104.7438,-416.2531C115.1115,-417.589 124.4569,-414.6945 124.4569,-407.5695 124.4569,-403.005 120.6215,-400.1767 115.1391,-399.0847"/>
<polygon fill="#000000" stroke="#000000" points="114.809,-395.5778 104.7438,-398.8859 114.6751,-402.5765 114.809,-395.5778"/>
<text text-anchor="middle" x="130.2872" y="-403.3695" font-family="Times,serif" font-size="14.00" fill="#000000">Σ</text>
</g>
<!-- q0 -->
<g id="node3" class="node">
<title>q0</title>
<ellipse fill="none" stroke="#000000" cx="84.6935" cy="-312.3126" rx="20.8887" ry="20.8887"/>
<text text-anchor="middle" x="84.6935" y="-308.1126" font-family="Times,serif" font-size="14.00" fill="#000000">q0</text>
</g>
<!-- Qs&#45;&gt;q0 -->
<g id="edge3" class="edge">
<title>Qs&#45;&gt;q0</title>
<path fill="none" stroke="#000000" d="M84.6935,-385.4762C84.6935,-372.9503 84.6935,-357.0791 84.6935,-343.3226"/>
<polygon fill="#000000" stroke="#000000" points="88.1936,-343.3055 84.6935,-333.3055 81.1936,-343.3056 88.1936,-343.3055"/>
<text text-anchor="middle" x="88.1935" y="-355.206" font-family="Times,serif" font-size="14.00" fill="#000000">0</text>
</g>
<!-- q1 -->
<g id="node4" class="node">
<title>q1</title>
<ellipse fill="none" stroke="#000000" cx="20.6935" cy="-213.5965" rx="20.8887" ry="20.8887"/>
<text text-anchor="middle" x="20.6935" y="-209.3965" font-family="Times,serif" font-size="14.00" fill="#000000">q1</text>
</g>
<!-- q0&#45;&gt;q1 -->
<g id="edge4" class="edge">
<title>q0&#45;&gt;q1</title>
<path fill="none" stroke="#000000" d="M73.2515,-294.6641C63.3315,-279.363 48.8405,-257.0115 37.5856,-239.6515"/>
<polygon fill="#000000" stroke="#000000" points="40.4132,-237.579 32.0363,-231.0921 34.5395,-241.387 40.4132,-237.579"/>
<text text-anchor="middle" x="64.5238" y="-261.0191" font-family="Times,serif" font-size="14.00" fill="#000000">Σ</text>
</g>
<!-- Qf -->
<g id="node7" class="node">
<title>Qf</title>
<ellipse fill="none" stroke="#000000" cx="84.6935" cy="-213.5965" rx="21.4117" ry="21.4117"/>
<ellipse fill="none" stroke="#000000" cx="84.6935" cy="-213.5965" rx="25.4473" ry="25.4473"/>
<text text-anchor="middle" x="84.6935" y="-209.3965" font-family="Times,serif" font-size="14.00" fill="#000000">Qf</text>
</g>
<!-- q0&#45;&gt;Qf -->
<g id="edge8" class="edge">
<title>q0&#45;&gt;Qf</title>
<path fill="none" stroke="#000000" d="M84.6935,-291.3774C84.6935,-279.2004 84.6935,-263.5222 84.6935,-249.4358"/>
<polygon fill="#000000" stroke="#000000" points="88.1935,-249.0584 84.6935,-239.0584 81.1935,-249.0584 88.1935,-249.0584"/>
<text text-anchor="middle" x="88.1935" y="-261.0191" font-family="Times,serif" font-size="14.00" fill="#000000">0</text>
</g>
<!-- q2 -->
<g id="node5" class="node">
<title>q2</title>
<ellipse fill="none" stroke="#000000" cx="93.6935" cy="-114.8804" rx="20.8887" ry="20.8887"/>
<text text-anchor="middle" x="93.6935" y="-110.6804" font-family="Times,serif" font-size="14.00" fill="#000000">q2</text>
</g>
<!-- q1&#45;&gt;q2 -->
<g id="edge5" class="edge">
<title>q1&#45;&gt;q2</title>
<path fill="none" stroke="#000000" d="M33.0769,-196.8506C44.613,-181.2507 61.9666,-157.7838 75.1539,-139.9509"/>
<polygon fill="#000000" stroke="#000000" points="78.1175,-141.8298 81.2492,-131.7083 72.4893,-137.6677 78.1175,-141.8298"/>
<text text-anchor="middle" x="70.5238" y="-157.7738" font-family="Times,serif" font-size="14.00" fill="#000000">Σ</text>
</g>
<!-- q3 -->
<g id="node6" class="node">
<title>q3</title>
<ellipse fill="none" stroke="#000000" cx="129.6935" cy="-20.6935" rx="20.8887" ry="20.8887"/>
<text text-anchor="middle" x="129.6935" y="-16.4935" font-family="Times,serif" font-size="14.00" fill="#000000">q3</text>
</g>
<!-- q2&#45;&gt;q3 -->
<g id="edge6" class="edge">
<title>q2&#45;&gt;q3</title>
<path fill="none" stroke="#000000" d="M101.1527,-95.3648C106.1727,-82.2309 112.8816,-64.6784 118.5335,-49.8912"/>
<polygon fill="#000000" stroke="#000000" points="121.9428,-50.7746 122.2438,-40.184 115.4041,-48.2754 121.9428,-50.7746"/>
<text text-anchor="middle" x="119.5238" y="-63.5869" font-family="Times,serif" font-size="14.00" fill="#000000">Σ</text>
</g>
<!-- q3&#45;&gt;q0 -->
<g id="edge7" class="edge">
<title>q3&#45;&gt;q0</title>
<path fill="none" stroke="#000000" d="M136.7505,-40.4099C149.6236,-79.604 173.3363,-169.5047 147.6935,-238.8191 139.8708,-259.9643 122.9456,-279.1305 108.6065,-292.5849"/>
<polygon fill="#000000" stroke="#000000" points="106.0722,-290.157 100.9806,-299.4482 110.755,-295.3601 106.0722,-290.157"/>
<text text-anchor="middle" x="164.5238" y="-157.7738" font-family="Times,serif" font-size="14.00" fill="#000000">Σ</text>
</g>
<!-- Qf&#45;&gt;Qf -->
<g id="edge9" class="edge">
<title>Qf&#45;&gt;Qf</title>
<path fill="none" stroke="#000000" d="M108.257,-222.825C118.7988,-223.7039 127.9161,-220.6277 127.9161,-213.5965 127.9161,-208.9822 123.9896,-206.0713 118.3108,-204.8636"/>
<polygon fill="#000000" stroke="#000000" points="118.4172,-201.3647 108.257,-204.3679 118.0725,-208.3562 118.4172,-201.3647"/>
<text text-anchor="middle" x="133.7464" y="-209.3965" font-family="Times,serif" font-size="14.00" fill="#000000">Σ</text>
</g>
</g>
</svg>
