<?xml version="1.0" encoding="UTF-8" standalone="no"?>
<!DOCTYPE svg PUBLIC "-//W3C//DTD SVG 1.1//EN"
 "http://www.w3.org/Graphics/SVG/1.1/DTD/svg11.dtd">
<!-- Generated by graphviz version 2.40.1 (20161225.0304)
 -->
<!-- Title: nfa Pages: 1 -->
<svg width="138pt" height="366pt"
 viewBox="0.00 0.00 138.25 366.13" xmlns="http://www.w3.org/2000/svg" xmlns:xlink="http://www.w3.org/1999/xlink">
<g id="graph0" class="graph" transform="scale(1 1) rotate(0) translate(4 362.1314)">
<title>nfa</title>
<polygon fill="#ffffff" stroke="transparent" points="-4,4 -4,-362.1314 134.2541,-362.1314 134.2541,4 -4,4"/>
<!-- Σ={a,b,c} -->
<g id="node1" class="node">
<title>Σ={a,b,c}</title>
<text text-anchor="middle" x="75.0511" y="-335.9314" font-family="Times,serif" font-size="14.00" fill="#000000">Σ={a,b,c}</text>
</g>
<!-- Qs -->
<g id="node2" class="node">
<title>Qs</title>
<ellipse fill="none" stroke="#000000" cx="75.0511" cy="-247.5679" rx="21.5294" ry="21.5294"/>
<text text-anchor="middle" x="75.0511" y="-243.3679" font-family="Times,serif" font-size="14.00" fill="#000000">Qs</text>
</g>
<!-- Σ={a,b,c}&#45;&gt;Qs -->
<g id="edge1" class="edge">
<title>Σ={a,b,c}&#45;&gt;Qs</title>
<path fill="none" stroke="#000000" d="M75.0511,-321.8438C75.0511,-309.8361 75.0511,-293.8013 75.0511,-279.7038"/>
<polygon fill="#000000" stroke="#000000" points="78.5512,-279.3998 75.0511,-269.3998 71.5512,-279.3998 78.5512,-279.3998"/>
<text text-anchor="middle" x="87.1016" y="-291.5314" font-family="Times,serif" font-size="14.00" fill="#000000">start</text>
</g>
<!-- Qs&#45;&gt;Qs -->
<g id="edge2" class="edge">
<title>Qs&#45;&gt;Qs</title>
<path fill="none" stroke="#000000" d="M95.1015,-256.2515C105.4691,-257.5875 114.8146,-254.6929 114.8146,-247.5679 114.8146,-243.0035 110.9792,-240.1752 105.4967,-239.0831"/>
<polygon fill="#000000" stroke="#000000" points="105.1666,-235.5763 95.1015,-238.8844 105.0327,-242.575 105.1666,-235.5763"/>
<text text-anchor="middle" x="120.6449" y="-243.3679" font-family="Times,serif" font-size="14.00" fill="#000000">Σ</text>
</g>
<!-- Qf1 -->
<g id="node3" class="node">
<title>Qf1</title>
<ellipse fill="none" stroke="#000000" cx="30.0511" cy="-142.9534" rx="26.0955" ry="26.0955"/>
<ellipse fill="none" stroke="#000000" cx="30.0511" cy="-142.9534" rx="30.1023" ry="30.1023"/>
<text text-anchor="middle" x="30.0511" y="-138.7534" font-family="Times,serif" font-size="14.00" fill="#000000">Qf1</text>
</g>
<!-- Qs&#45;&gt;Qf1 -->
<g id="edge3" class="edge">
<title>Qs&#45;&gt;Qf1</title>
<path fill="none" stroke="#000000" d="M66.3747,-227.3972C60.6218,-214.0231 52.9004,-196.0726 46.056,-180.1611"/>
<polygon fill="#000000" stroke="#000000" points="49.0999,-178.3796 41.9332,-170.5765 42.6695,-181.1457 49.0999,-178.3796"/>
<text text-anchor="middle" x="61.1584" y="-195.2045" font-family="Times,serif" font-size="14.00" fill="#000000">a</text>
</g>
<!-- Qf1&#45;&gt;Qf1 -->
<g id="edge4" class="edge">
<title>Qf1&#45;&gt;Qf1</title>
<path fill="none" stroke="#000000" d="M58.6628,-153.4303C69.3253,-153.7738 78.1023,-150.2815 78.1023,-142.9534 78.1023,-138.1443 74.3223,-134.9872 68.7102,-133.482"/>
<polygon fill="#000000" stroke="#000000" points="68.9616,-129.9897 58.6628,-132.4764 68.2645,-136.9549 68.9616,-129.9897"/>
<text text-anchor="middle" x="81.2096" y="-138.7534" font-family="Times,serif" font-size="14.00" fill="#000000">a</text>
</g>
<!-- Qf2 -->
<g id="node4" class="node">
<title>Qf2</title>
<ellipse fill="none" stroke="#000000" cx="88.0511" cy="-30.0511" rx="26.0955" ry="26.0955"/>
<ellipse fill="none" stroke="#000000" cx="88.0511" cy="-30.0511" rx="30.1023" ry="30.1023"/>
<text text-anchor="middle" x="88.0511" y="-25.8511" font-family="Times,serif" font-size="14.00" fill="#000000">Qf2</text>
</g>
<!-- Qf1&#45;&gt;Qf2 -->
<g id="edge5" class="edge">
<title>Qf1&#45;&gt;Qf2</title>
<path fill="none" stroke="#000000" d="M25.2752,-113.0351C24.7456,-101.6175 25.7887,-88.7877 30.8481,-78.1023 35.9137,-67.4038 44.6377,-58.2263 53.7679,-50.8451"/>
<polygon fill="#000000" stroke="#000000" points="55.9019,-53.6197 61.8142,-44.8279 51.7097,-48.0139 55.9019,-53.6197"/>
<text text-anchor="middle" x="48.6526" y="-82.3023" font-family="Times,serif" font-size="14.00" fill="#000000">Σ/{a}</text>
</g>
<!-- Qf2&#45;&gt;Qs -->
<g id="edge6" class="edge">
<title>Qf2&#45;&gt;Qs</title>
<path fill="none" stroke="#000000" d="M91.7548,-60.006C94.715,-89.0071 97.6727,-134.1658 93.0511,-173.0045 91.3082,-187.6517 87.7037,-203.5829 84.1749,-216.9449"/>
<polygon fill="#000000" stroke="#000000" points="80.7971,-216.0283 81.5233,-226.5983 87.5471,-217.8825 80.7971,-216.0283"/>
<text text-anchor="middle" x="112.6526" y="-138.7534" font-family="Times,serif" font-size="14.00" fill="#000000">Σ/{a}</text>
</g>
<!-- Qf2&#45;&gt;Qf1 -->
<g id="edge7" class="edge">
<title>Qf2&#45;&gt;Qf1</title>
<path fill="none" stroke="#000000" d="M80.2948,-59.271C76.7085,-70.7185 71.9267,-83.7533 66.0511,-94.9023 63.0532,-100.5908 59.4097,-106.3279 55.6059,-111.7599"/>
<polygon fill="#000000" stroke="#000000" points="52.6586,-109.8604 49.5662,-119.9939 58.303,-114.0006 52.6586,-109.8604"/>
<text text-anchor="middle" x="77.1584" y="-82.3023" font-family="Times,serif" font-size="14.00" fill="#000000">a</text>
</g>
</g>
</svg>
