<?xml version="1.0" encoding="UTF-8" standalone="no"?>
<!DOCTYPE svg PUBLIC "-//W3C//DTD SVG 1.1//EN"
 "http://www.w3.org/Graphics/SVG/1.1/DTD/svg11.dtd">
<!-- Generated by graphviz version 2.40.1 (20161225.0304)
 -->
<!-- Title: enfa Pages: 1 -->
<svg width="203pt" height="407pt"
 viewBox="0.00 0.00 203.21 407.20" xmlns="http://www.w3.org/2000/svg" xmlns:xlink="http://www.w3.org/1999/xlink">
<g id="graph0" class="graph" transform="scale(1 1) rotate(0) translate(4 403.2)">
<title>enfa</title>
<polygon fill="#ffffff" stroke="transparent" points="-4,4 -4,-403.2 199.2146,-403.2 199.2146,4 -4,4"/>
<g id="node1" class="node">
<title></title>
</g>
<!-- 1 -->
<g id="node2" class="node">
<title>1</title>
<ellipse fill="none" stroke="#000000" cx="92" cy="-292.4" rx="18" ry="18"/>
<text text-anchor="middle" x="92" y="-288.2" font-family="Times,serif" font-size="14.00" fill="#000000">1</text>
</g>
<!-- &#45;&gt;1 -->
<g id="edge1" class="edge">
<title>&#45;&gt;1</title>
<path fill="none" stroke="#000000" d="M92,-362.8006C92,-350.6949 92,-334.6076 92,-320.8674"/>
<polygon fill="#000000" stroke="#000000" points="95.5001,-320.472 92,-310.472 88.5001,-320.4721 95.5001,-320.472"/>
<text text-anchor="middle" x="104.0505" y="-332.6" font-family="Times,serif" font-size="14.00" fill="#000000">start</text>
</g>
<!-- 2 -->
<g id="node3" class="node">
<title>2</title>
<ellipse fill="none" stroke="#000000" cx="92" cy="-203.6" rx="18" ry="18"/>
<text text-anchor="middle" x="92" y="-199.4" font-family="Times,serif" font-size="14.00" fill="#000000">2</text>
</g>
<!-- 1&#45;&gt;2 -->
<g id="edge2" class="edge">
<title>1&#45;&gt;2</title>
<path fill="none" stroke="#000000" d="M92,-274.0006C92,-261.8949 92,-245.8076 92,-232.0674"/>
<polygon fill="#000000" stroke="#000000" points="95.5001,-231.672 92,-221.672 88.5001,-231.6721 95.5001,-231.672"/>
<text text-anchor="middle" x="96.0803" y="-243.8" font-family="Times,serif" font-size="14.00" fill="#000000">系</text>
</g>
<!-- 3 -->
<g id="node4" class="node">
<title>3</title>
<ellipse fill="none" stroke="#000000" cx="119" cy="-114.8" rx="18" ry="18"/>
<text text-anchor="middle" x="119" y="-110.6" font-family="Times,serif" font-size="14.00" fill="#000000">3</text>
</g>
<!-- 2&#45;&gt;3 -->
<g id="edge4" class="edge">
<title>2&#45;&gt;3</title>
<path fill="none" stroke="#000000" d="M97.3343,-186.056C101.1433,-173.5287 106.3414,-156.4326 110.6913,-142.1264"/>
<polygon fill="#000000" stroke="#000000" points="114.1163,-142.8933 113.6768,-132.3076 107.419,-140.8569 114.1163,-142.8933"/>
<text text-anchor="middle" x="110.1073" y="-155" font-family="Times,serif" font-size="14.00" fill="#000000">a</text>
</g>
<!-- 5 -->
<g id="node6" class="node">
<title>5</title>
<ellipse fill="none" stroke="#000000" cx="65" cy="-114.8" rx="18" ry="18"/>
<text text-anchor="middle" x="65" y="-110.6" font-family="Times,serif" font-size="14.00" fill="#000000">5</text>
</g>
<!-- 2&#45;&gt;5 -->
<g id="edge3" class="edge">
<title>2&#45;&gt;5</title>
<path fill="none" stroke="#000000" d="M86.6657,-186.056C82.8567,-173.5287 77.6586,-156.4326 73.3087,-142.1264"/>
<polygon fill="#000000" stroke="#000000" points="76.581,-140.8569 70.3232,-132.3076 69.8837,-142.8933 76.581,-140.8569"/>
<text text-anchor="middle" x="84.0803" y="-155" font-family="Times,serif" font-size="14.00" fill="#000000">系</text>
</g>
<!-- 4 -->
<g id="node5" class="node">
<title>4</title>
<ellipse fill="none" stroke="#000000" cx="153" cy="-22" rx="18" ry="18"/>
<text text-anchor="middle" x="153" y="-17.8" font-family="Times,serif" font-size="14.00" fill="#000000">4</text>
</g>
<!-- 3&#45;&gt;4 -->
<g id="edge5" class="edge">
<title>3&#45;&gt;4</title>
<path fill="none" stroke="#000000" d="M125.2361,-97.779C130.2685,-84.0436 137.4386,-64.4734 143.2317,-48.6617"/>
<polygon fill="#000000" stroke="#000000" points="146.6496,-49.5068 146.8034,-38.913 140.0768,-47.0986 146.6496,-49.5068"/>
<text text-anchor="middle" x="141.5" y="-66.2" font-family="Times,serif" font-size="14.00" fill="#000000">4</text>
</g>
<!-- 4&#45;&gt;1 -->
<g id="edge6" class="edge">
<title>4&#45;&gt;1</title>
<path fill="none" stroke="#000000" d="M153.1374,-40.1954C153.0094,-62.2767 151.8382,-100.5577 146,-132.8 138.6501,-173.3906 132.3573,-182.5718 119,-221.6 113.9083,-236.4773 107.685,-252.897 102.497,-266.1752"/>
<polygon fill="#000000" stroke="#000000" points="99.1776,-265.0524 98.7674,-275.6393 105.6901,-267.6189 99.1776,-265.0524"/>
<text text-anchor="middle" x="146.0803" y="-155" font-family="Times,serif" font-size="14.00" fill="#000000">系</text>
</g>
<!-- 4&#45;&gt;4 -->
<g id="edge7" class="edge">
<title>4&#45;&gt;4</title>
<path fill="none" stroke="#000000" d="M169.2903,-30.365C179.3892,-32.3821 189,-29.5938 189,-22 189,-17.1353 185.0557,-14.2427 179.5656,-13.3222"/>
<polygon fill="#000000" stroke="#000000" points="179.1791,-9.8323 169.2903,-13.635 179.3922,-16.829 179.1791,-9.8323"/>
<text text-anchor="middle" x="192.1073" y="-17.8" font-family="Times,serif" font-size="14.00" fill="#000000">a</text>
</g>
<!-- 6 -->
<g id="node7" class="node">
<title>6</title>
<ellipse fill="none" stroke="#000000" cx="82" cy="-22" rx="18" ry="18"/>
<text text-anchor="middle" x="82" y="-17.8" font-family="Times,serif" font-size="14.00" fill="#000000">6</text>
</g>
<!-- 5&#45;&gt;6 -->
<g id="edge8" class="edge">
<title>5&#45;&gt;6</title>
<path fill="none" stroke="#000000" d="M75.5947,-99.7614C79.3432,-93.5695 83.0989,-86.1364 85,-78.8 87.4116,-69.4933 87.555,-59.0501 86.8066,-49.681"/>
<polygon fill="#000000" stroke="#000000" points="90.2758,-49.2118 85.6561,-39.6772 83.3216,-50.0116 90.2758,-49.2118"/>
<text text-anchor="middle" x="90.5" y="-66.2" font-family="Times,serif" font-size="14.00" fill="#000000">b</text>
</g>
<!-- 7 -->
<g id="node8" class="node">
<title>7</title>
<ellipse fill="none" stroke="#000000" cx="22" cy="-22" rx="18" ry="18"/>
<ellipse fill="none" stroke="#000000" cx="22" cy="-22" rx="22" ry="22"/>
<text text-anchor="middle" x="22" y="-17.8" font-family="Times,serif" font-size="14.00" fill="#000000">7</text>
</g>
<!-- 5&#45;&gt;7 -->
<g id="edge9" class="edge">
<title>5&#45;&gt;7</title>
<path fill="none" stroke="#000000" d="M57.3125,-98.2092C51.271,-85.1709 42.7061,-66.6867 35.5245,-51.1879"/>
<polygon fill="#000000" stroke="#000000" points="38.6466,-49.6006 31.2667,-41.9988 32.2953,-52.5436 38.6466,-49.6006"/>
<text text-anchor="middle" x="51.5" y="-66.2" font-family="Times,serif" font-size="14.00" fill="#000000">b</text>
</g>
<!-- 6&#45;&gt;5 -->
<g id="edge10" class="edge">
<title>6&#45;&gt;5</title>
<path fill="none" stroke="#000000" d="M73.1616,-37.8308C69.6565,-44.9812 66.0458,-53.6778 64.2854,-62 62.6233,-69.8577 62.1825,-78.521 62.3218,-86.5183"/>
<polygon fill="#000000" stroke="#000000" points="58.8262,-86.6966 62.785,-96.524 65.8187,-86.3728 58.8262,-86.6966"/>
<text text-anchor="middle" x="72.3573" y="-66.2" font-family="Times,serif" font-size="14.00" fill="#000000"> &#160;a </text>
</g>
<!-- 7&#45;&gt;1 -->
<g id="edge11" class="edge">
<title>7&#45;&gt;1</title>
<path fill="none" stroke="#000000" d="M24.2086,-44.2529C26.6764,-66.7545 31.2352,-102.4477 38,-132.8 46.9736,-173.0628 51.6427,-182.5718 65,-221.6 70.0917,-236.4773 76.315,-252.897 81.503,-266.1752"/>
<polygon fill="#000000" stroke="#000000" points="78.3099,-267.6189 85.2326,-275.6393 84.8224,-265.0524 78.3099,-267.6189"/>
<text text-anchor="middle" x="51.0803" y="-155" font-family="Times,serif" font-size="14.00" fill="#000000">系</text>
</g>
</g>
</svg>
