<?xml version="1.0" encoding="UTF-8" standalone="no"?>
<!DOCTYPE svg PUBLIC "-//W3C//DTD SVG 1.1//EN"
 "http://www.w3.org/Graphics/SVG/1.1/DTD/svg11.dtd">
<!-- Generated by graphviz version 2.40.1 (20161225.0304)
 -->
<!-- Title: nfa Pages: 1 -->
<svg width="229pt" height="526pt"
 viewBox="0.00 0.00 229.00 526.13" xmlns="http://www.w3.org/2000/svg" xmlns:xlink="http://www.w3.org/1999/xlink">
<g id="graph0" class="graph" transform="scale(1 1) rotate(0) translate(4 522.1329)">
<title>nfa</title>
<polygon fill="#ffffff" stroke="transparent" points="-4,4 -4,-522.1329 225,-522.1329 225,4 -4,4"/>
<g id="node1" class="node">
<title></title>
</g>
<!-- Qs -->
<g id="node2" class="node">
<title>Qs</title>
<ellipse fill="none" stroke="#000000" cx="93" cy="-407.5695" rx="21.5294" ry="21.5294"/>
<text text-anchor="middle" x="93" y="-403.3695" font-family="Times,serif" font-size="14.00" fill="#000000">Qs</text>
</g>
<!-- &#45;&gt;Qs -->
<g id="edge1" class="edge">
<title>&#45;&gt;Qs</title>
<path fill="none" stroke="#000000" d="M93,-481.8453C93,-469.8376 93,-453.8028 93,-439.7053"/>
<polygon fill="#000000" stroke="#000000" points="96.5001,-439.4013 93,-429.4013 89.5001,-439.4013 96.5001,-439.4013"/>
<text text-anchor="middle" x="105.0505" y="-451.5329" font-family="Times,serif" font-size="14.00" fill="#000000">start</text>
</g>
<!-- Qs&#45;&gt;Qs -->
<g id="edge2" class="edge">
<title>Qs&#45;&gt;Qs</title>
<path fill="none" stroke="#000000" d="M113.0504,-416.2531C123.418,-417.589 132.7634,-414.6945 132.7634,-407.5695 132.7634,-403.005 128.9281,-400.1767 123.4456,-399.0847"/>
<polygon fill="#000000" stroke="#000000" points="123.1155,-395.5778 113.0504,-398.8859 122.9816,-402.5765 123.1155,-395.5778"/>
<text text-anchor="middle" x="136.2634" y="-403.3695" font-family="Times,serif" font-size="14.00" fill="#000000">b</text>
</g>
<!-- q1 -->
<g id="node3" class="node">
<title>q1</title>
<ellipse fill="none" stroke="#000000" cx="87" cy="-312.3126" rx="20.8887" ry="20.8887"/>
<text text-anchor="middle" x="87" y="-308.1126" font-family="Times,serif" font-size="14.00" fill="#000000">q1</text>
</g>
<!-- Qs&#45;&gt;q1 -->
<g id="edge7" class="edge">
<title>Qs&#45;&gt;q1</title>
<path fill="none" stroke="#000000" d="M86.5927,-386.7112C85.0247,-380.6719 83.5719,-374.0287 82.7854,-367.806 81.7745,-359.8079 81.8703,-351.1284 82.4587,-343.0613"/>
<polygon fill="#000000" stroke="#000000" points="85.9606,-343.2144 83.4644,-332.9179 78.9948,-342.5237 85.9606,-343.2144"/>
<text text-anchor="middle" x="86.1073" y="-355.206" font-family="Times,serif" font-size="14.00" fill="#000000">a</text>
</g>
<!-- q3 -->
<g id="node6" class="node">
<title>q3</title>
<ellipse fill="none" stroke="#000000" cx="44" cy="-25.2227" rx="20.8887" ry="20.8887"/>
<text text-anchor="middle" x="44" y="-21.0227" font-family="Times,serif" font-size="14.00" fill="#000000">q3</text>
</g>
<!-- Qs&#45;&gt;q3 -->
<g id="edge5" class="edge">
<title>Qs&#45;&gt;q3</title>
<path fill="none" stroke="#000000" d="M73.2771,-398.3677C45.9778,-384.1075 0,-353.9148 0,-312.3126 0,-312.3126 0,-312.3126 0,-123.9388 0,-97.2117 13.6221,-69.6652 25.7074,-50.4857"/>
<polygon fill="#000000" stroke="#000000" points="28.6933,-52.3153 31.2734,-42.0394 22.8483,-48.4635 28.6933,-52.3153"/>
<text text-anchor="middle" x="3.5" y="-213.9257" font-family="Times,serif" font-size="14.00" fill="#000000">b</text>
</g>
<!-- Qf -->
<g id="node7" class="node">
<title>Qf</title>
<ellipse fill="none" stroke="#000000" cx="183" cy="-25.2227" rx="21.4117" ry="21.4117"/>
<ellipse fill="none" stroke="#000000" cx="183" cy="-25.2227" rx="25.4473" ry="25.4473"/>
<text text-anchor="middle" x="183" y="-21.0227" font-family="Times,serif" font-size="14.00" fill="#000000">Qf</text>
</g>
<!-- Qs&#45;&gt;Qf -->
<g id="edge4" class="edge">
<title>Qs&#45;&gt;Qf</title>
<path fill="none" stroke="#000000" d="M114.0766,-401.6161C148.7439,-390.3873 214,-362.5753 214,-312.3126 214,-312.3126 214,-312.3126 214,-123.9388 214,-100.9933 206.2821,-76.369 198.5482,-57.4538"/>
<polygon fill="#000000" stroke="#000000" points="201.7035,-55.9309 194.5433,-48.1219 195.2709,-58.6917 201.7035,-55.9309"/>
<text text-anchor="middle" x="217.5" y="-213.9257" font-family="Times,serif" font-size="14.00" fill="#000000">b</text>
</g>
<!-- q1&#45;&gt;Qs -->
<g id="edge10" class="edge">
<title>q1&#45;&gt;Qs</title>
<path fill="none" stroke="#000000" d="M88.3019,-332.9819C89.0796,-345.3293 90.0844,-361.2811 90.965,-375.2617"/>
<polygon fill="#000000" stroke="#000000" points="87.4866,-375.716 91.6084,-385.4762 94.4728,-375.2759 87.4866,-375.716"/>
<text text-anchor="middle" x="94.5" y="-355.206" font-family="Times,serif" font-size="14.00" fill="#000000">b</text>
</g>
<!-- q4 -->
<g id="node4" class="node">
<title>q4</title>
<ellipse fill="none" stroke="#000000" cx="130" cy="-218.1257" rx="20.8887" ry="20.8887"/>
<text text-anchor="middle" x="130" y="-213.9257" font-family="Times,serif" font-size="14.00" fill="#000000">q4</text>
</g>
<!-- q1&#45;&gt;q4 -->
<g id="edge8" class="edge">
<title>q1&#45;&gt;q4</title>
<path fill="none" stroke="#000000" d="M95.7017,-293.2524C101.8215,-279.8477 110.1164,-261.6786 117.0158,-246.5662"/>
<polygon fill="#000000" stroke="#000000" points="120.342,-247.7079 121.3112,-237.1574 113.9742,-244.8007 120.342,-247.7079"/>
<text text-anchor="middle" x="114.5" y="-261.0191" font-family="Times,serif" font-size="14.00" fill="#000000">b</text>
</g>
<!-- q2 -->
<g id="node5" class="node">
<title>q2</title>
<ellipse fill="none" stroke="#000000" cx="84" cy="-123.9388" rx="20.8887" ry="20.8887"/>
<text text-anchor="middle" x="84" y="-119.7388" font-family="Times,serif" font-size="14.00" fill="#000000">q2</text>
</g>
<!-- q1&#45;&gt;q2 -->
<g id="edge9" class="edge">
<title>q1&#45;&gt;q2</title>
<path fill="none" stroke="#000000" d="M86.6675,-291.4335C86.1404,-258.336 85.1099,-193.6316 84.4955,-155.052"/>
<polygon fill="#000000" stroke="#000000" points="87.9929,-154.8543 84.334,-144.9113 80.9938,-154.9658 87.9929,-154.8543"/>
<text text-anchor="middle" x="89.5" y="-213.9257" font-family="Times,serif" font-size="14.00" fill="#000000">b</text>
</g>
<!-- q4&#45;&gt;Qs -->
<g id="edge12" class="edge">
<title>q4&#45;&gt;Qs</title>
<path fill="none" stroke="#000000" d="M128.882,-239.0806C127.3557,-262.2645 123.97,-300.6293 117,-333.006 113.8071,-347.8377 108.8391,-363.903 104.2496,-377.31"/>
<polygon fill="#000000" stroke="#000000" points="100.8648,-376.3849 100.8494,-386.9797 107.4685,-378.707 100.8648,-376.3849"/>
<text text-anchor="middle" x="126.1073" y="-308.1126" font-family="Times,serif" font-size="14.00" fill="#000000">a</text>
</g>
<!-- q4&#45;&gt;q4 -->
<g id="edge13" class="edge">
<title>q4&#45;&gt;q4</title>
<path fill="none" stroke="#000000" d="M149.1121,-226.3948C159.3586,-227.8 168.6935,-225.0436 168.6935,-218.1257 168.6935,-213.6938 164.8624,-210.9699 159.4149,-209.9539"/>
<polygon fill="#000000" stroke="#000000" points="159.1448,-206.4513 149.1121,-209.8565 159.0786,-213.451 159.1448,-206.4513"/>
<text text-anchor="middle" x="173.5508" y="-213.9257" font-family="Times,serif" font-size="14.00" fill="#000000"> a</text>
</g>
<!-- q4&#45;&gt;q2 -->
<g id="edge11" class="edge">
<title>q4&#45;&gt;q2</title>
<path fill="none" stroke="#000000" d="M120.9119,-199.5174C114.2769,-185.9319 105.1677,-167.2806 97.6588,-151.9058"/>
<polygon fill="#000000" stroke="#000000" points="100.7602,-150.2804 93.2267,-142.8308 94.4703,-153.3524 100.7602,-150.2804"/>
<text text-anchor="middle" x="112.1073" y="-166.8322" font-family="Times,serif" font-size="14.00" fill="#000000">a</text>
</g>
<!-- q2&#45;&gt;Qs -->
<g id="edge6" class="edge">
<title>q2&#45;&gt;Qs</title>
<path fill="none" stroke="#000000" d="M76.9404,-143.4709C64.4725,-180.7224 41.2888,-264.3294 57,-333.006 60.7768,-349.5149 68.7017,-366.6205 76.157,-380.2773"/>
<polygon fill="#000000" stroke="#000000" points="73.204,-382.1649 81.1866,-389.1312 79.2905,-378.7074 73.204,-382.1649"/>
<text text-anchor="middle" x="56.5" y="-261.0191" font-family="Times,serif" font-size="14.00" fill="#000000">b</text>
</g>
<!-- q2&#45;&gt;q2 -->
<g id="edge3" class="edge">
<title>q2&#45;&gt;q2</title>
<path fill="none" stroke="#000000" d="M103.1121,-132.2079C113.3586,-133.6131 122.6935,-130.8567 122.6935,-123.9388 122.6935,-119.5069 118.8624,-116.783 113.4149,-115.767"/>
<polygon fill="#000000" stroke="#000000" points="113.1448,-112.2644 103.1121,-115.6696 113.0786,-119.2641 113.1448,-112.2644"/>
<text text-anchor="middle" x="126.1935" y="-119.7388" font-family="Times,serif" font-size="14.00" fill="#000000">b</text>
</g>
<!-- q2&#45;&gt;q3 -->
<g id="edge14" class="edge">
<title>q2&#45;&gt;q3</title>
<path fill="none" stroke="#000000" d="M76.445,-104.6447C72.237,-93.9587 66.8775,-80.4467 62,-68.4453 60.1102,-63.7952 58.0847,-58.8736 56.0991,-54.0821"/>
<polygon fill="#000000" stroke="#000000" points="59.209,-52.4455 52.1353,-44.558 52.7464,-55.1352 59.209,-52.4455"/>
<text text-anchor="middle" x="72.5" y="-72.6453" font-family="Times,serif" font-size="14.00" fill="#000000">b</text>
</g>
<!-- q2&#45;&gt;Qf -->
<g id="edge15" class="edge">
<title>q2&#45;&gt;Qf</title>
<path fill="none" stroke="#000000" d="M99.036,-108.9459C114.5603,-93.4661 139.063,-69.0337 157.6005,-50.5493"/>
<polygon fill="#000000" stroke="#000000" points="160.5264,-52.5745 165.1363,-43.0351 155.5838,-47.6176 160.5264,-52.5745"/>
<text text-anchor="middle" x="142.5" y="-72.6453" font-family="Times,serif" font-size="14.00" fill="#000000">b</text>
</g>
<!-- q3&#45;&gt;q2 -->
<g id="edge16" class="edge">
<title>q3&#45;&gt;q2</title>
<path fill="none" stroke="#000000" d="M38.7284,-45.2442C36.5868,-57.3289 35.7461,-72.7534 41.2854,-85.2453 44.9587,-93.5291 51.3786,-100.7942 58.1421,-106.7248"/>
<polygon fill="#000000" stroke="#000000" points="56.0918,-109.5662 66.0959,-113.0548 60.4509,-104.089 56.0918,-109.5662"/>
<text text-anchor="middle" x="50.3573" y="-72.6453" font-family="Times,serif" font-size="14.00" fill="#000000"> &#160;a </text>
</g>
</g>
</svg>
