<?xml version="1.0" encoding="UTF-8" standalone="no"?>
<!DOCTYPE svg PUBLIC "-//W3C//DTD SVG 1.1//EN"
 "http://www.w3.org/Graphics/SVG/1.1/DTD/svg11.dtd">
<!-- Generated by graphviz version 2.38.0 (20140413.2041)
 -->
<!-- Title: pda Pages: 1 -->
<svg width="366pt" height="446pt"
 viewBox="0.00 0.00 366.40 445.98" xmlns="http://www.w3.org/2000/svg" xmlns:xlink="http://www.w3.org/1999/xlink">
<g id="graph0" class="graph" transform="scale(1 1) rotate(0) translate(4 441.984)">
<title>pda</title>
<polygon fill="white" stroke="none" points="-4,4 -4,-441.984 362.396,-441.984 362.396,4 -4,4"/>
<g id="node1" class="node"><title></title>
<text text-anchor="middle" x="199.698" y="-416.284" font-family="Times New Roman,serif" font-size="14.00">Σ={a,b}</text>
</g>
<!-- Qs -->
<g id="node2" class="node"><title>Qs</title>
<ellipse fill="none" stroke="black" cx="199.698" cy="-329.536" rx="21.3963" ry="21.3963"/>
<text text-anchor="middle" x="199.698" y="-325.836" font-family="Times New Roman,serif" font-size="14.00">Qs</text>
</g>
<!-- &#45;&gt;Qs -->
<g id="edge1" class="edge"><title>&#45;&gt;Qs</title>
<path fill="none" stroke="black" d="M199.698,-401.93C199.698,-390.522 199.698,-375.177 199.698,-361.636"/>
<polygon fill="black" stroke="black" points="203.198,-361.273 199.698,-351.273 196.198,-361.273 203.198,-361.273"/>
<text text-anchor="middle" x="212.198" y="-372.784" font-family="Times New Roman,serif" font-size="14.00">start</text>
</g>
<!-- q0 -->
<g id="node3" class="node"><title>q0</title>
<ellipse fill="none" stroke="black" cx="128.698" cy="-236.939" rx="20.2975" ry="20.2975"/>
<text text-anchor="middle" x="128.698" y="-233.239" font-family="Times New Roman,serif" font-size="14.00">q0</text>
</g>
<!-- Qs&#45;&gt;q0 -->
<g id="edge5" class="edge"><title>Qs&#45;&gt;q0</title>
<path fill="none" stroke="black" d="M186.675,-311.919C175.596,-297.782 159.555,-277.313 147.153,-261.488"/>
<polygon fill="black" stroke="black" points="149.615,-258.956 140.692,-253.244 144.105,-263.274 149.615,-258.956"/>
<text text-anchor="middle" x="194.698" y="-278.888" font-family="Times New Roman,serif" font-size="14.00"> a, Z ; aZ</text>
</g>
<!-- q2 -->
<g id="node8" class="node"><title>q2</title>
<ellipse fill="none" stroke="black" cx="258.698" cy="-236.939" rx="27" ry="18"/>
<text text-anchor="middle" x="258.698" y="-233.239" font-family="Times New Roman,serif" font-size="14.00">q2</text>
</g>
<!-- Qs&#45;&gt;q2 -->
<g id="edge2" class="edge"><title>Qs&#45;&gt;q2</title>
<path fill="none" stroke="black" d="M211.074,-311.068C220.087,-297.227 232.786,-277.728 242.804,-262.345"/>
<polygon fill="black" stroke="black" points="245.82,-264.126 248.345,-253.837 239.955,-260.306 245.82,-264.126"/>
<text text-anchor="middle" x="260.698" y="-278.888" font-family="Times New Roman,serif" font-size="14.00"> a, Z ; aZ</text>
</g>
<!-- q0&#45;&gt;q0 -->
<g id="edge7" class="edge"><title>q0&#45;&gt;q0</title>
<path fill="none" stroke="black" d="M147.541,-244.849C157.643,-246.193 166.846,-243.557 166.846,-236.939 166.846,-232.7 163.069,-230.095 157.698,-229.123"/>
<polygon fill="black" stroke="black" points="157.572,-225.622 147.541,-229.03 157.508,-232.622 157.572,-225.622"/>
<text text-anchor="middle" x="190.346" y="-233.239" font-family="Times New Roman,serif" font-size="14.00"> a, a ; aa</text>
</g>
<!-- q1 -->
<g id="node4" class="node"><title>q1</title>
<ellipse fill="none" stroke="black" cx="28.6978" cy="-137.093" rx="20.2975" ry="20.2975"/>
<text text-anchor="middle" x="28.6978" y="-133.393" font-family="Times New Roman,serif" font-size="14.00">q1</text>
</g>
<!-- q0&#45;&gt;q1 -->
<g id="edge8" class="edge"><title>q0&#45;&gt;q1</title>
<path fill="none" stroke="black" d="M114.793,-222.334C98.0216,-205.924 69.6479,-178.161 50.0841,-159.019"/>
<polygon fill="black" stroke="black" points="52.4021,-156.39 42.8067,-151.898 47.5065,-161.394 52.4021,-156.39"/>
<text text-anchor="middle" x="112.198" y="-187.591" font-family="Times New Roman,serif" font-size="14.00"> b, a ; ε</text>
</g>
<!-- Qf3 -->
<g id="node7" class="node"><title>Qf3</title>
<ellipse fill="none" stroke="black" cx="156.698" cy="-137.093" rx="24.8692" ry="24.8692"/>
<ellipse fill="none" stroke="black" cx="156.698" cy="-137.093" rx="28.897" ry="28.897"/>
<text text-anchor="middle" x="156.698" y="-133.393" font-family="Times New Roman,serif" font-size="14.00">Qf3</text>
</g>
<!-- q0&#45;&gt;Qf3 -->
<g id="edge6" class="edge"><title>q0&#45;&gt;Qf3</title>
<path fill="none" stroke="black" d="M134.096,-217.074C137.531,-205.072 142.093,-189.129 146.219,-174.711"/>
<polygon fill="black" stroke="black" points="149.6,-175.618 148.986,-165.041 142.87,-173.692 149.6,-175.618"/>
<text text-anchor="middle" x="166.198" y="-187.591" font-family="Times New Roman,serif" font-size="14.00"> b, a ; Z</text>
</g>
<!-- q1&#45;&gt;q1 -->
<g id="edge9" class="edge"><title>q1&#45;&gt;q1</title>
<path fill="none" stroke="black" d="M46.7518,-146.662C57.1584,-148.615 66.846,-145.425 66.846,-137.093 66.846,-131.626 62.6739,-128.372 56.8644,-127.334"/>
<polygon fill="black" stroke="black" points="56.6839,-123.836 46.7518,-127.525 56.8161,-130.835 56.6839,-123.836"/>
<text text-anchor="middle" x="88.346" y="-133.393" font-family="Times New Roman,serif" font-size="14.00"> b, a ; ε</text>
</g>
<!-- Qf1 -->
<g id="node5" class="node"><title>Qf1</title>
<ellipse fill="none" stroke="black" cx="28.6978" cy="-28.6978" rx="24.8692" ry="24.8692"/>
<ellipse fill="none" stroke="black" cx="28.6978" cy="-28.6978" rx="28.897" ry="28.897"/>
<text text-anchor="middle" x="28.6978" y="-24.9978" font-family="Times New Roman,serif" font-size="14.00">Qf1</text>
</g>
<!-- q1&#45;&gt;Qf1 -->
<g id="edge10" class="edge"><title>q1&#45;&gt;Qf1</title>
<path fill="none" stroke="black" d="M28.6978,-116.579C28.6978,-102.996 28.6978,-84.4375 28.6978,-67.9593"/>
<polygon fill="black" stroke="black" points="32.1979,-67.5043 28.6978,-57.5044 25.1979,-67.5044 32.1979,-67.5043"/>
<text text-anchor="middle" x="51.6978" y="-79.1956" font-family="Times New Roman,serif" font-size="14.00"> ε, Z ; Z</text>
</g>
<!-- Qf2 -->
<g id="node6" class="node"><title>Qf2</title>
<ellipse fill="none" stroke="black" cx="258.698" cy="-137.093" rx="24.8692" ry="24.8692"/>
<ellipse fill="none" stroke="black" cx="258.698" cy="-137.093" rx="28.897" ry="28.897"/>
<text text-anchor="middle" x="258.698" y="-133.393" font-family="Times New Roman,serif" font-size="14.00">Qf2</text>
</g>
<!-- Qf2&#45;&gt;Qf2 -->
<g id="edge4" class="edge"><title>Qf2&#45;&gt;Qf2</title>
<path fill="none" stroke="black" d="M286.038,-147.179C296.609,-147.627 305.396,-144.265 305.396,-137.093 305.396,-132.387 301.612,-129.321 296.023,-127.896"/>
<polygon fill="black" stroke="black" points="296.309,-124.408 286.038,-127.008 295.689,-131.381 296.309,-124.408"/>
<text text-anchor="middle" x="331.896" y="-133.393" font-family="Times New Roman,serif" font-size="14.00"> b, b ; bb</text>
</g>
<!-- q2&#45;&gt;Qf2 -->
<g id="edge3" class="edge"><title>q2&#45;&gt;Qf2</title>
<path fill="none" stroke="black" d="M258.698,-218.896C258.698,-207.176 258.698,-191.133 258.698,-176.43"/>
<polygon fill="black" stroke="black" points="262.198,-176.042 258.698,-166.042 255.198,-176.042 262.198,-176.042"/>
<text text-anchor="middle" x="284.698" y="-187.591" font-family="Times New Roman,serif" font-size="14.00"> b, a ; bZ</text>
</g>
</g>
</svg>
