<?xml version="1.0" encoding="UTF-8" standalone="no"?>
<!DOCTYPE svg PUBLIC "-//W3C//DTD SVG 1.1//EN"
 "http://www.w3.org/Graphics/SVG/1.1/DTD/svg11.dtd">
<!-- Generated by graphviz version 2.38.0 (20140413.2041)
 -->
<!-- Title: pda Pages: 1 -->
<svg width="132pt" height="330pt"
 viewBox="0.00 0.00 131.80 329.79" xmlns="http://www.w3.org/2000/svg" xmlns:xlink="http://www.w3.org/1999/xlink">
<g id="graph0" class="graph" transform="scale(1 1) rotate(0) translate(4 325.789)">
<title>pda</title>
<polygon fill="white" stroke="none" points="-4,4 -4,-325.789 127.798,-325.789 127.798,4 -4,4"/>
<g id="node1" class="node"><title></title>
<text text-anchor="middle" x="32" y="-300.089" font-family="Times New Roman,serif" font-size="14.00">Σ={a,b}</text>
</g>
<!-- Qs -->
<g id="node2" class="node"><title>Qs</title>
<ellipse fill="none" stroke="black" cx="32" cy="-213.341" rx="21.3963" ry="21.3963"/>
<text text-anchor="middle" x="32" y="-209.641" font-family="Times New Roman,serif" font-size="14.00">Qs</text>
</g>
<!-- &#45;&gt;Qs -->
<g id="edge1" class="edge"><title>&#45;&gt;Qs</title>
<path fill="none" stroke="black" d="M32,-285.735C32,-274.327 32,-258.982 32,-245.441"/>
<polygon fill="black" stroke="black" points="35.5001,-245.078 32,-235.078 28.5001,-245.078 35.5001,-245.078"/>
<text text-anchor="middle" x="44.5" y="-256.589" font-family="Times New Roman,serif" font-size="14.00">start</text>
</g>
<!-- q0 -->
<g id="node3" class="node"><title>q0</title>
<ellipse fill="none" stroke="black" cx="32" cy="-120.745" rx="20.2975" ry="20.2975"/>
<text text-anchor="middle" x="32" y="-117.045" font-family="Times New Roman,serif" font-size="14.00">q0</text>
</g>
<!-- Qs&#45;&gt;q0 -->
<g id="edge2" class="edge"><title>Qs&#45;&gt;q0</title>
<path fill="none" stroke="black" d="M32,-191.783C32,-179.754 32,-164.368 32,-151.082"/>
<polygon fill="black" stroke="black" points="35.5001,-150.982 32,-140.982 28.5001,-150.982 35.5001,-150.982"/>
<text text-anchor="middle" x="56" y="-162.693" font-family="Times New Roman,serif" font-size="14.00">a, Z ; aZ</text>
</g>
<!-- Qf -->
<g id="node4" class="node"><title>Qf</title>
<ellipse fill="none" stroke="black" cx="32" cy="-24.7982" rx="20.6302" ry="20.6302"/>
<ellipse fill="none" stroke="black" cx="32" cy="-24.7982" rx="24.5979" ry="24.5979"/>
<text text-anchor="middle" x="32" y="-21.0982" font-family="Times New Roman,serif" font-size="14.00">Qf</text>
</g>
<!-- q0&#45;&gt;Qf -->
<g id="edge3" class="edge"><title>q0&#45;&gt;Qf</title>
<path fill="none" stroke="black" d="M32,-100.279C32,-88.7437 32,-73.7917 32,-60.3144"/>
<polygon fill="black" stroke="black" points="35.5001,-59.9154 32,-49.9154 28.5001,-59.9154 35.5001,-59.9154"/>
<text text-anchor="middle" x="56.5" y="-71.3963" font-family="Times New Roman,serif" font-size="14.00">b, a ; bZ</text>
</g>
<!-- Qf&#45;&gt;Qf -->
<g id="edge4" class="edge"><title>Qf&#45;&gt;Qf</title>
<path fill="none" stroke="black" d="M55.3321,-34.0267C65.7704,-34.9056 74.7982,-31.8294 74.7982,-24.7982 74.7982,-20.2938 71.0932,-17.4125 65.6858,-16.1545"/>
<polygon fill="black" stroke="black" points="65.5136,-12.6392 55.3321,-15.5696 65.1188,-19.6281 65.5136,-12.6392"/>
<text text-anchor="middle" x="99.2982" y="-21.0982" font-family="Times New Roman,serif" font-size="14.00">b, b ; bb</text>
</g>
</g>
</svg>
