<?xml version="1.0" encoding="UTF-8" standalone="no"?>
<!DOCTYPE svg PUBLIC "-//W3C//DTD SVG 1.1//EN"
 "http://www.w3.org/Graphics/SVG/1.1/DTD/svg11.dtd">
<!-- Generated by graphviz version 2.38.0 (20140413.2041)
 -->
<!-- Title: pda Pages: 1 -->
<svg width="125pt" height="421pt"
 viewBox="0.00 0.00 125.15 421.09" xmlns="http://www.w3.org/2000/svg" xmlns:xlink="http://www.w3.org/1999/xlink">
<g id="graph0" class="graph" transform="scale(1 1) rotate(0) translate(4 417.085)">
<title>pda</title>
<polygon fill="white" stroke="none" points="-4,4 -4,-417.085 121.148,-417.085 121.148,4 -4,4"/>
<g id="node1" class="node"><title></title>
<text text-anchor="middle" x="32" y="-391.385" font-family="Times New Roman,serif" font-size="14.00">Σ={a,b}</text>
</g>
<!-- Qs -->
<g id="node2" class="node"><title>Qs</title>
<ellipse fill="none" stroke="black" cx="32" cy="-304.637" rx="21.3963" ry="21.3963"/>
<text text-anchor="middle" x="32" y="-300.937" font-family="Times New Roman,serif" font-size="14.00">Qs</text>
</g>
<!-- &#45;&gt;Qs -->
<g id="edge1" class="edge"><title>&#45;&gt;Qs</title>
<path fill="none" stroke="black" d="M32,-377.032C32,-365.624 32,-350.278 32,-336.737"/>
<polygon fill="black" stroke="black" points="35.5001,-336.374 32,-326.374 28.5001,-336.374 35.5001,-336.374"/>
<text text-anchor="middle" x="44.5" y="-347.885" font-family="Times New Roman,serif" font-size="14.00">start</text>
</g>
<!-- q0 -->
<g id="node3" class="node"><title>q0</title>
<ellipse fill="none" stroke="black" cx="32" cy="-212.041" rx="20.2975" ry="20.2975"/>
<text text-anchor="middle" x="32" y="-208.341" font-family="Times New Roman,serif" font-size="14.00">q0</text>
</g>
<!-- Qs&#45;&gt;q0 -->
<g id="edge2" class="edge"><title>Qs&#45;&gt;q0</title>
<path fill="none" stroke="black" d="M32,-283.08C32,-271.051 32,-255.665 32,-242.379"/>
<polygon fill="black" stroke="black" points="35.5001,-242.278 32,-232.278 28.5001,-242.278 35.5001,-242.278"/>
<text text-anchor="middle" x="58" y="-253.989" font-family="Times New Roman,serif" font-size="14.00"> a, Z ; aZ</text>
</g>
<!-- q0&#45;&gt;q0 -->
<g id="edge3" class="edge"><title>q0&#45;&gt;q0</title>
<path fill="none" stroke="black" d="M50.8428,-219.951C60.9449,-221.295 70.1482,-218.658 70.1482,-212.041 70.1482,-207.802 66.3712,-205.196 61.0004,-204.225"/>
<polygon fill="black" stroke="black" points="60.8745,-200.723 50.8428,-204.131 60.8103,-207.723 60.8745,-200.723"/>
<text text-anchor="middle" x="93.6482" y="-208.341" font-family="Times New Roman,serif" font-size="14.00"> a, a ; aa</text>
</g>
<!-- q1 -->
<g id="node4" class="node"><title>q1</title>
<ellipse fill="none" stroke="black" cx="32" cy="-120.745" rx="20.2975" ry="20.2975"/>
<text text-anchor="middle" x="32" y="-117.045" font-family="Times New Roman,serif" font-size="14.00">q1</text>
</g>
<!-- q0&#45;&gt;q1 -->
<g id="edge4" class="edge"><title>q0&#45;&gt;q1</title>
<path fill="none" stroke="black" d="M32,-191.665C32,-179.846 32,-164.505 32,-151.205"/>
<polygon fill="black" stroke="black" points="35.5001,-151.083 32,-141.083 28.5001,-151.083 35.5001,-151.083"/>
<text text-anchor="middle" x="53.5" y="-162.693" font-family="Times New Roman,serif" font-size="14.00"> b, a ; ε</text>
</g>
<!-- q1&#45;&gt;q1 -->
<g id="edge5" class="edge"><title>q1&#45;&gt;q1</title>
<path fill="none" stroke="black" d="M50.8428,-128.654C60.9449,-129.998 70.1482,-127.362 70.1482,-120.745 70.1482,-116.505 66.3712,-113.9 61.0004,-112.928"/>
<polygon fill="black" stroke="black" points="60.8745,-109.427 50.8428,-112.835 60.8103,-116.427 60.8745,-109.427"/>
<text text-anchor="middle" x="91.6482" y="-117.045" font-family="Times New Roman,serif" font-size="14.00"> b, a ; ε</text>
</g>
<!-- Qf -->
<g id="node5" class="node"><title>Qf</title>
<ellipse fill="none" stroke="black" cx="32" cy="-24.7982" rx="20.6302" ry="20.6302"/>
<ellipse fill="none" stroke="black" cx="32" cy="-24.7982" rx="24.5979" ry="24.5979"/>
<text text-anchor="middle" x="32" y="-21.0982" font-family="Times New Roman,serif" font-size="14.00">Qf</text>
</g>
<!-- q1&#45;&gt;Qf -->
<g id="edge6" class="edge"><title>q1&#45;&gt;Qf</title>
<path fill="none" stroke="black" d="M32,-100.279C32,-88.7437 32,-73.7917 32,-60.3144"/>
<polygon fill="black" stroke="black" points="35.5001,-59.9154 32,-49.9154 28.5001,-59.9154 35.5001,-59.9154"/>
<text text-anchor="middle" x="55" y="-71.3963" font-family="Times New Roman,serif" font-size="14.00"> ε, Z ; Z</text>
</g>
</g>
</svg>
