<?xml version="1.0" encoding="UTF-8" standalone="no"?>
<!DOCTYPE svg PUBLIC "-//W3C//DTD SVG 1.1//EN"
 "http://www.w3.org/Graphics/SVG/1.1/DTD/svg11.dtd">
<!-- Generated by graphviz version 2.38.0 (20140413.2041)
 -->
<!-- Title: dfa Pages: 1 -->
<svg width="398pt" height="317pt"
 viewBox="0.00 0.00 397.61 316.52" xmlns="http://www.w3.org/2000/svg" xmlns:xlink="http://www.w3.org/1999/xlink">
<g id="graph0" class="graph" transform="scale(1 1) rotate(0) translate(222.908 151.43)">
<title>dfa</title>
<polygon fill="white" stroke="none" points="-222.908,165.089 -222.908,-151.43 174.699,-151.43 174.699,165.089 -222.908,165.089"/>
<!-- Σ -->
<g id="node1" class="node"><title>Σ</title>
<text text-anchor="middle" x="-186.908" y="-64.2307" font-family="Times New Roman,serif" font-size="14.00">Σ={a,b}</text>
</g>
<!-- Qs -->
<g id="node2" class="node"><title>Qs</title>
<ellipse fill="none" stroke="black" cx="-112.248" cy="-41.5036" rx="21.3963" ry="21.3963"/>
<text text-anchor="middle" x="-112.248" y="-37.8036" font-family="Times New Roman,serif" font-size="14.00">Qs</text>
</g>
<!-- Σ&#45;&gt;Qs -->
<g id="edge1" class="edge"><title>Σ&#45;&gt;Qs</title>
<path fill="none" stroke="black" d="M-154.812,-56.5699C-150.748,-55.1316 -146.601,-53.6634 -142.566,-52.2353"/>
<polygon fill="black" stroke="black" points="-141.143,-55.4443 -132.884,-48.808 -143.478,-48.8455 -141.143,-55.4443"/>
<text text-anchor="middle" x="-148.689" y="-43.2026" font-family="Times New Roman,serif" font-size="14.00">start</text>
</g>
<!-- q1 -->
<g id="node3" class="node"><title>q1</title>
<ellipse fill="none" stroke="black" cx="-54.7689" cy="-101.817" rx="20.2726" ry="20.2726"/>
<ellipse fill="none" stroke="black" cx="-54.7689" cy="-101.817" rx="24.2973" ry="24.2973"/>
<text text-anchor="middle" x="-54.7689" y="-98.1165" font-family="Times New Roman,serif" font-size="14.00">q1</text>
</g>
<!-- Qs&#45;&gt;q1 -->
<g id="edge2" class="edge"><title>Qs&#45;&gt;q1</title>
<path fill="none" stroke="black" d="M-97.4455,-57.0357C-91.8033,-62.9561 -85.2155,-69.8687 -78.9279,-76.4664"/>
<polygon fill="black" stroke="black" points="-81.192,-79.1639 -71.7593,-83.9884 -76.1246,-74.3346 -81.192,-79.1639"/>
<text text-anchor="middle" x="-92.6867" y="-70.551" font-family="Times New Roman,serif" font-size="14.00">Σ</text>
</g>
<!-- q2 -->
<g id="node4" class="node"><title>q2</title>
<ellipse fill="none" stroke="black" cx="23.3456" cy="-123.281" rx="20.2726" ry="20.2726"/>
<ellipse fill="none" stroke="black" cx="23.3456" cy="-123.281" rx="24.2973" ry="24.2973"/>
<text text-anchor="middle" x="23.3456" y="-119.581" font-family="Times New Roman,serif" font-size="14.00">q2</text>
</g>
<!-- q1&#45;&gt;q2 -->
<g id="edge3" class="edge"><title>q1&#45;&gt;q2</title>
<path fill="none" stroke="black" d="M-31.332,-108.257C-24.6894,-110.082 -17.325,-112.106 -10.2093,-114.061"/>
<polygon fill="black" stroke="black" points="-10.6448,-117.571 -0.0748148,-116.846 -8.79,-110.821 -10.6448,-117.571"/>
<text text-anchor="middle" x="-25.2706" y="-114.959" font-family="Times New Roman,serif" font-size="14.00">Σ</text>
</g>
<!-- q3 -->
<g id="node5" class="node"><title>q3</title>
<ellipse fill="none" stroke="black" cx="99.8427" cy="-95.1684" rx="20.2726" ry="20.2726"/>
<ellipse fill="none" stroke="black" cx="99.8427" cy="-95.1684" rx="24.2973" ry="24.2973"/>
<text text-anchor="middle" x="99.8427" y="-91.4684" font-family="Times New Roman,serif" font-size="14.00">q3</text>
</g>
<!-- q2&#45;&gt;q3 -->
<g id="edge4" class="edge"><title>q2&#45;&gt;q3</title>
<path fill="none" stroke="black" d="M46.2972,-114.847C53.0141,-112.378 60.4846,-109.633 67.6624,-106.995"/>
<polygon fill="black" stroke="black" points="68.9919,-110.235 77.1708,-103.5 66.5773,-103.665 68.9919,-110.235"/>
<text text-anchor="middle" x="52.4798" y="-114.721" font-family="Times New Roman,serif" font-size="14.00">Σ</text>
</g>
<!-- q4 -->
<g id="node6" class="node"><title>q4</title>
<ellipse fill="none" stroke="black" cx="146.551" cy="-28.163" rx="20.2726" ry="20.2726"/>
<ellipse fill="none" stroke="black" cx="146.551" cy="-28.163" rx="24.2973" ry="24.2973"/>
<text text-anchor="middle" x="146.551" y="-24.463" font-family="Times New Roman,serif" font-size="14.00">q4</text>
</g>
<!-- q3&#45;&gt;q4 -->
<g id="edge5" class="edge"><title>q3&#45;&gt;q4</title>
<path fill="none" stroke="black" d="M113.857,-75.0646C117.921,-69.2341 122.437,-62.7554 126.783,-56.5203"/>
<polygon fill="black" stroke="black" points="129.699,-58.4577 132.547,-48.2526 123.957,-54.4547 129.699,-58.4577"/>
<text text-anchor="middle" x="115.82" y="-54.5924" font-family="Times New Roman,serif" font-size="14.00">Σ</text>
</g>
<!-- q5 -->
<g id="node7" class="node"><title>q5</title>
<ellipse fill="none" stroke="black" cx="145.471" cy="53.5504" rx="20.2726" ry="20.2726"/>
<ellipse fill="none" stroke="black" cx="145.471" cy="53.5504" rx="24.2973" ry="24.2973"/>
<text text-anchor="middle" x="145.471" y="57.2504" font-family="Times New Roman,serif" font-size="14.00">q5</text>
</g>
<!-- q4&#45;&gt;q5 -->
<g id="edge6" class="edge"><title>q4&#45;&gt;q5</title>
<path fill="none" stroke="black" d="M146.227,-3.64628C146.132,3.52865 146.027,11.5085 145.925,19.1758"/>
<polygon fill="black" stroke="black" points="149.423,19.3798 145.791,29.3326 142.424,19.2872 149.423,19.3798"/>
<text text-anchor="middle" x="141.576" y="18.9648" font-family="Times New Roman,serif" font-size="14.00">Σ</text>
</g>
<!-- q6 -->
<g id="node8" class="node"><title>q6</title>
<ellipse fill="none" stroke="black" cx="93.504" cy="116.675" rx="20.2726" ry="20.2726"/>
<ellipse fill="none" stroke="black" cx="93.504" cy="116.675" rx="24.2973" ry="24.2973"/>
<text text-anchor="middle" x="93.504" y="120.375" font-family="Times New Roman,serif" font-size="14.00">q6</text>
</g>
<!-- q5&#45;&gt;q6 -->
<g id="edge7" class="edge"><title>q5&#45;&gt;q6</title>
<path fill="none" stroke="black" d="M129.879,72.49C125.357,77.9828 120.333,84.0862 115.497,89.9602"/>
<polygon fill="black" stroke="black" points="118.143,92.2532 109.085,97.7491 112.739,87.8042 118.143,92.2532"/>
<text text-anchor="middle" x="127.188" y="92.4251" font-family="Times New Roman,serif" font-size="14.00">Σ</text>
</g>
<!-- q7 -->
<g id="node9" class="node"><title>q7</title>
<ellipse fill="none" stroke="black" cx="14.4092" cy="136.941" rx="20.2726" ry="20.2726"/>
<ellipse fill="none" stroke="black" cx="14.4092" cy="136.941" rx="24.2973" ry="24.2973"/>
<text text-anchor="middle" x="14.4092" y="140.641" font-family="Times New Roman,serif" font-size="14.00">q7</text>
</g>
<!-- q6&#45;&gt;q7 -->
<g id="edge8" class="edge"><title>q6&#45;&gt;q7</title>
<path fill="none" stroke="black" d="M69.7729,122.756C62.8279,124.535 55.1038,126.514 47.6822,128.416"/>
<polygon fill="black" stroke="black" points="48.4068,131.843 37.8509,130.935 46.6693,125.062 48.4068,131.843"/>
<text text-anchor="middle" x="54.2276" y="121.786" font-family="Times New Roman,serif" font-size="14.00">Σ</text>
</g>
<!-- q8 -->
<g id="node10" class="node"><title>q8</title>
<ellipse fill="none" stroke="black" cx="-62.1381" cy="109.031" rx="20.2726" ry="20.2726"/>
<ellipse fill="none" stroke="black" cx="-62.1381" cy="109.031" rx="24.2973" ry="24.2973"/>
<text text-anchor="middle" x="-62.1381" y="112.731" font-family="Times New Roman,serif" font-size="14.00">q8</text>
</g>
<!-- q7&#45;&gt;q8 -->
<g id="edge9" class="edge"><title>q7&#45;&gt;q8</title>
<path fill="none" stroke="black" d="M-8.5575,128.567C-15.2183,126.138 -22.6195,123.44 -29.7426,120.843"/>
<polygon fill="black" stroke="black" points="-30.9915,124.113 -39.1876,117.399 -28.5936,117.536 -30.9915,124.113"/>
<text text-anchor="middle" x="-23.65" y="120.905" font-family="Times New Roman,serif" font-size="14.00">Σ</text>
</g>
<!-- q9 -->
<g id="node11" class="node"><title>q9</title>
<ellipse fill="none" stroke="black" cx="-107.061" cy="41.6658" rx="20.2726" ry="20.2726"/>
<ellipse fill="none" stroke="black" cx="-107.061" cy="41.6658" rx="24.2973" ry="24.2973"/>
<text text-anchor="middle" x="-107.061" y="45.3658" font-family="Times New Roman,serif" font-size="14.00">q9</text>
</g>
<!-- q8&#45;&gt;q9 -->
<g id="edge10" class="edge"><title>q8&#45;&gt;q9</title>
<path fill="none" stroke="black" d="M-75.6165,88.8194C-79.4366,83.0909 -83.6718,76.7399 -87.764,70.6033"/>
<polygon fill="black" stroke="black" points="-90.956,72.1251 -93.5922,61.8634 -85.1321,68.2414 -90.956,72.1251"/>
<text text-anchor="middle" x="-77.1902" y="75.9114" font-family="Times New Roman,serif" font-size="14.00">Σ</text>
</g>
<!-- q9&#45;&gt;Qs -->
<g id="edge11" class="edge"><title>q9&#45;&gt;Qs</title>
<path fill="none" stroke="black" d="M-108.589,17.1621C-109.117,8.68998 -109.717,-0.927001 -110.276,-9.88775"/>
<polygon fill="black" stroke="black" points="-113.777,-9.79903 -110.907,-19.9975 -106.791,-10.2348 -113.777,-9.79903"/>
<text text-anchor="middle" x="-113.933" y="-0.162823" font-family="Times New Roman,serif" font-size="14.00">Σ</text>
</g>
</g>
</svg>
