<?xml version="1.0" encoding="UTF-8" standalone="no"?>
<!DOCTYPE svg PUBLIC "-//W3C//DTD SVG 1.1//EN"
 "http://www.w3.org/Graphics/SVG/1.1/DTD/svg11.dtd">
<!-- Generated by graphviz version 2.38.0 (20140413.2041)
 -->
<!-- Title: dfa Pages: 1 -->
<svg width="111pt" height="338pt"
 viewBox="0.00 0.00 110.95 337.79" xmlns="http://www.w3.org/2000/svg" xmlns:xlink="http://www.w3.org/1999/xlink">
<g id="graph0" class="graph" transform="scale(1 1) rotate(0) translate(4 333.789)">
<title>dfa</title>
<polygon fill="white" stroke="none" points="-4,4 -4,-333.789 106.946,-333.789 106.946,4 -4,4"/>
<!-- Σ -->
<g id="node1" class="node"><title>Σ</title>
<text text-anchor="middle" x="49.1482" y="-308.089" font-family="Times New Roman,serif" font-size="14.00">Σ={a,b}</text>
</g>
<!-- Qs -->
<g id="node4" class="node"><title>Qs</title>
<ellipse fill="none" stroke="black" cx="49.1482" cy="-217.341" rx="21.4044" ry="21.4044"/>
<ellipse fill="none" stroke="black" cx="49.1482" cy="-217.341" rx="25.3963" ry="25.3963"/>
<text text-anchor="middle" x="49.1482" y="-213.641" font-family="Times New Roman,serif" font-size="14.00">Qs</text>
</g>
<!-- Σ&#45;&gt;Qs -->
<g id="edge1" class="edge"><title>Σ&#45;&gt;Qs</title>
<path fill="none" stroke="black" d="M49.1482,-293.4C49.1482,-282.063 49.1482,-266.873 49.1482,-253.124"/>
<polygon fill="black" stroke="black" points="52.6483,-252.979 49.1482,-242.979 45.6483,-252.979 52.6483,-252.979"/>
<text text-anchor="middle" x="61.6482" y="-264.589" font-family="Times New Roman,serif" font-size="14.00">start</text>
</g>
<!-- q1 -->
<g id="node2" class="node"><title>q1</title>
<ellipse fill="none" stroke="black" cx="20.1482" cy="-120.745" rx="20.2975" ry="20.2975"/>
<text text-anchor="middle" x="20.1482" y="-117.045" font-family="Times New Roman,serif" font-size="14.00">q1</text>
</g>
<!-- q1&#45;&gt;Qs -->
<g id="edge3" class="edge"><title>q1&#45;&gt;Qs</title>
<path fill="none" stroke="black" d="M25.8172,-140.236C29.4992,-152.247 34.4083,-168.26 38.7733,-182.499"/>
<polygon fill="black" stroke="black" points="35.5529,-183.935 41.8303,-192.47 42.2455,-181.883 35.5529,-183.935"/>
<text text-anchor="middle" x="39.6482" y="-162.693" font-family="Times New Roman,serif" font-size="14.00">a</text>
</g>
<!-- q2 -->
<g id="node3" class="node"><title>q2</title>
<ellipse fill="none" stroke="black" cx="79.1482" cy="-120.745" rx="20.2975" ry="20.2975"/>
<text text-anchor="middle" x="79.1482" y="-117.045" font-family="Times New Roman,serif" font-size="14.00">q2</text>
</g>
<!-- Qf -->
<g id="node5" class="node"><title>Qf</title>
<ellipse fill="none" stroke="black" cx="78.1482" cy="-24.7982" rx="20.6302" ry="20.6302"/>
<ellipse fill="none" stroke="black" cx="78.1482" cy="-24.7982" rx="24.5979" ry="24.5979"/>
<text text-anchor="middle" x="78.1482" y="-21.0982" font-family="Times New Roman,serif" font-size="14.00">Qf</text>
</g>
<!-- q2&#45;&gt;Qf -->
<g id="edge5" class="edge"><title>q2&#45;&gt;Qf</title>
<path fill="none" stroke="black" d="M70.9676,-101.978C68.5993,-95.9569 66.3341,-89.1056 65.1482,-82.5963 63.6694,-74.4792 64.4526,-65.7689 66.2064,-57.6674"/>
<polygon fill="black" stroke="black" points="69.6371,-58.387 68.8499,-47.8214 62.8765,-56.5718 69.6371,-58.387"/>
<text text-anchor="middle" x="69.1482" y="-71.3963" font-family="Times New Roman,serif" font-size="14.00">b</text>
</g>
<!-- Qs&#45;&gt;q1 -->
<g id="edge2" class="edge"><title>Qs&#45;&gt;q1</title>
<path fill="none" stroke="black" d="M33.6176,-196.703C29.0666,-189.867 24.6455,-181.897 22.1482,-173.893 19.9106,-166.721 18.9127,-158.724 18.5862,-151.188"/>
<polygon fill="black" stroke="black" points="22.0847,-150.952 18.5125,-140.977 15.0849,-151.003 22.0847,-150.952"/>
<text text-anchor="middle" x="25.6482" y="-162.693" font-family="Times New Roman,serif" font-size="14.00">a</text>
</g>
<!-- Qs&#45;&gt;q2 -->
<g id="edge4" class="edge"><title>Qs&#45;&gt;q2</title>
<path fill="none" stroke="black" d="M56.5639,-192.957C60.6843,-179.965 65.8408,-163.705 70.186,-150.004"/>
<polygon fill="black" stroke="black" points="73.6332,-150.712 73.32,-140.122 66.9607,-148.596 73.6332,-150.712"/>
<text text-anchor="middle" x="70.1482" y="-162.693" font-family="Times New Roman,serif" font-size="14.00">b</text>
</g>
<!-- Qf&#45;&gt;q2 -->
<g id="edge6" class="edge"><title>Qf&#45;&gt;q2</title>
<path fill="none" stroke="black" d="M78.4049,-49.9154C78.535,-62.1326 78.694,-77.0773 78.8316,-90.0017"/>
<polygon fill="black" stroke="black" points="75.3347,-90.3166 78.941,-100.279 82.3343,-90.2421 75.3347,-90.3166"/>
<text text-anchor="middle" x="84.1482" y="-71.3963" font-family="Times New Roman,serif" font-size="14.00"> b</text>
</g>
</g>
</svg>
