<?xml version="1.0" encoding="UTF-8" standalone="no"?>
<!DOCTYPE svg PUBLIC "-//W3C//DTD SVG 1.1//EN"
 "http://www.w3.org/Graphics/SVG/1.1/DTD/svg11.dtd">
<!-- Generated by graphviz version 2.38.0 (20140413.2041)
 -->
<!-- Title: dfa Pages: 1 -->
<svg width="126pt" height="590pt"
 viewBox="0.00 0.00 126.15 589.68" xmlns="http://www.w3.org/2000/svg" xmlns:xlink="http://www.w3.org/1999/xlink">
<g id="graph0" class="graph" transform="scale(1 1) rotate(0) translate(4 585.678)">
<title>dfa</title>
<polygon fill="white" stroke="none" points="-4,4 -4,-585.678 122.148,-585.678 122.148,4 -4,4"/>
<g id="node1" class="node"><title></title>
<text text-anchor="middle" x="27" y="-559.978" font-family="Times New Roman,serif" font-size="14.00">start</text>
</g>
<!-- Qs -->
<g id="node2" class="node"><title>Qs</title>
<ellipse fill="none" stroke="black" cx="27" cy="-487.23" rx="21.3963" ry="21.3963"/>
<text text-anchor="middle" x="27" y="-483.53" font-family="Times New Roman,serif" font-size="14.00">Qs</text>
</g>
<!-- &#45;&gt;Qs -->
<g id="edge1" class="edge"><title>&#45;&gt;Qs</title>
<path fill="none" stroke="black" d="M27,-545.411C27,-537.569 27,-528.05 27,-519.046"/>
<polygon fill="black" stroke="black" points="30.5001,-518.844 27,-508.844 23.5001,-518.845 30.5001,-518.844"/>
</g>
<!-- q0 -->
<g id="node3" class="node"><title>q0</title>
<ellipse fill="none" stroke="black" cx="27" cy="-394.634" rx="20.2975" ry="20.2975"/>
<text text-anchor="middle" x="27" y="-390.934" font-family="Times New Roman,serif" font-size="14.00">q0</text>
</g>
<!-- Qs&#45;&gt;q0 -->
<g id="edge2" class="edge"><title>Qs&#45;&gt;q0</title>
<path fill="none" stroke="black" d="M27,-465.672C27,-453.644 27,-438.258 27,-424.972"/>
<polygon fill="black" stroke="black" points="30.5001,-424.871 27,-414.871 23.5001,-424.871 30.5001,-424.871"/>
<text text-anchor="middle" x="53" y="-436.582" font-family="Times New Roman,serif" font-size="14.00"> a, Z ; aZ</text>
</g>
<!-- q0&#45;&gt;q0 -->
<g id="edge3" class="edge"><title>q0&#45;&gt;q0</title>
<path fill="none" stroke="black" d="M45.8428,-402.543C55.9449,-403.888 65.1482,-401.251 65.1482,-394.634 65.1482,-390.395 61.3712,-387.789 56.0004,-386.817"/>
<polygon fill="black" stroke="black" points="55.8745,-383.316 45.8428,-386.724 55.8103,-390.316 55.8745,-383.316"/>
<text text-anchor="middle" x="88.6482" y="-390.934" font-family="Times New Roman,serif" font-size="14.00"> a, a ; aa</text>
</g>
<!-- q1 -->
<g id="node4" class="node"><title>q1</title>
<ellipse fill="none" stroke="black" cx="27" cy="-303.337" rx="20.2975" ry="20.2975"/>
<text text-anchor="middle" x="27" y="-299.637" font-family="Times New Roman,serif" font-size="14.00">q1</text>
</g>
<!-- q0&#45;&gt;q1 -->
<g id="edge4" class="edge"><title>q0&#45;&gt;q1</title>
<path fill="none" stroke="black" d="M27,-374.258C27,-362.439 27,-347.098 27,-333.798"/>
<polygon fill="black" stroke="black" points="30.5001,-333.676 27,-323.676 23.5001,-333.676 30.5001,-333.676"/>
<text text-anchor="middle" x="56" y="-345.286" font-family="Times New Roman,serif" font-size="14.00"> b, a ; baZ</text>
</g>
<!-- q1&#45;&gt;q1 -->
<g id="edge5" class="edge"><title>q1&#45;&gt;q1</title>
<path fill="none" stroke="black" d="M45.8428,-311.247C55.9449,-312.591 65.1482,-309.955 65.1482,-303.337 65.1482,-299.098 61.3712,-296.493 56.0004,-295.521"/>
<polygon fill="black" stroke="black" points="55.8745,-292.02 45.8428,-295.428 55.8103,-299.019 55.8745,-292.02"/>
<text text-anchor="middle" x="91.6482" y="-299.637" font-family="Times New Roman,serif" font-size="14.00"> b, b ; bb</text>
</g>
<!-- q2 -->
<g id="node5" class="node"><title>q2</title>
<ellipse fill="none" stroke="black" cx="27" cy="-212.041" rx="20.2975" ry="20.2975"/>
<text text-anchor="middle" x="27" y="-208.341" font-family="Times New Roman,serif" font-size="14.00">q2</text>
</g>
<!-- q1&#45;&gt;q2 -->
<g id="edge6" class="edge"><title>q1&#45;&gt;q2</title>
<path fill="none" stroke="black" d="M27,-282.961C27,-271.143 27,-255.802 27,-242.502"/>
<polygon fill="black" stroke="black" points="30.5001,-242.379 27,-232.379 23.5001,-242.379 30.5001,-242.379"/>
<text text-anchor="middle" x="48.5" y="-253.989" font-family="Times New Roman,serif" font-size="14.00"> a, b ; ϵ</text>
</g>
<!-- q2&#45;&gt;q2 -->
<g id="edge7" class="edge"><title>q2&#45;&gt;q2</title>
<path fill="none" stroke="black" d="M45.8428,-219.951C55.9449,-221.295 65.1482,-218.658 65.1482,-212.041 65.1482,-207.802 61.3712,-205.196 56.0004,-204.225"/>
<polygon fill="black" stroke="black" points="55.8745,-200.723 45.8428,-204.131 55.8103,-207.723 55.8745,-200.723"/>
<text text-anchor="middle" x="86.6482" y="-208.341" font-family="Times New Roman,serif" font-size="14.00"> a, b ; ϵ</text>
</g>
<!-- q3 -->
<g id="node6" class="node"><title>q3</title>
<ellipse fill="none" stroke="black" cx="27" cy="-120.745" rx="20.2975" ry="20.2975"/>
<text text-anchor="middle" x="27" y="-117.045" font-family="Times New Roman,serif" font-size="14.00">q3</text>
</g>
<!-- q2&#45;&gt;q3 -->
<g id="edge8" class="edge"><title>q2&#45;&gt;q3</title>
<path fill="none" stroke="black" d="M27,-191.665C27,-179.846 27,-164.505 27,-151.205"/>
<polygon fill="black" stroke="black" points="30.5001,-151.083 27,-141.083 23.5001,-151.083 30.5001,-151.083"/>
<text text-anchor="middle" x="48.5" y="-162.693" font-family="Times New Roman,serif" font-size="14.00"> b, a ; ϵ</text>
</g>
<!-- q3&#45;&gt;q3 -->
<g id="edge9" class="edge"><title>q3&#45;&gt;q3</title>
<path fill="none" stroke="black" d="M45.8428,-128.654C55.9449,-129.998 65.1482,-127.362 65.1482,-120.745 65.1482,-116.505 61.3712,-113.9 56.0004,-112.928"/>
<polygon fill="black" stroke="black" points="55.8745,-109.427 45.8428,-112.835 55.8103,-116.427 55.8745,-109.427"/>
<text text-anchor="middle" x="86.6482" y="-117.045" font-family="Times New Roman,serif" font-size="14.00"> b, a ; ϵ</text>
</g>
<!-- Qf -->
<g id="node7" class="node"><title>Qf</title>
<ellipse fill="none" stroke="black" cx="27" cy="-24.7982" rx="20.6302" ry="20.6302"/>
<ellipse fill="none" stroke="black" cx="27" cy="-24.7982" rx="24.5979" ry="24.5979"/>
<text text-anchor="middle" x="27" y="-21.0982" font-family="Times New Roman,serif" font-size="14.00">Qf</text>
</g>
<!-- q3&#45;&gt;Qf -->
<g id="edge10" class="edge"><title>q3&#45;&gt;Qf</title>
<path fill="none" stroke="black" d="M27,-100.279C27,-88.7437 27,-73.7917 27,-60.3144"/>
<polygon fill="black" stroke="black" points="30.5001,-59.9154 27,-49.9154 23.5001,-59.9154 30.5001,-59.9154"/>
<text text-anchor="middle" x="50" y="-71.3963" font-family="Times New Roman,serif" font-size="14.00"> ϵ, Z ; Z</text>
</g>
</g>
</svg>
