<?xml version="1.0" encoding="UTF-8" standalone="no"?>
<!DOCTYPE svg PUBLIC "-//W3C//DTD SVG 1.1//EN"
 "http://www.w3.org/Graphics/SVG/1.1/DTD/svg11.dtd">
<!-- Generated by graphviz version 2.38.0 (20140413.2041)
 -->
<!-- Title: dfa Pages: 1 -->
<svg width="168pt" height="312pt"
 viewBox="0.00 0.00 168.15 311.89" xmlns="http://www.w3.org/2000/svg" xmlns:xlink="http://www.w3.org/1999/xlink">
<g id="graph0" class="graph" transform="scale(1 1) rotate(0) translate(4 307.889)">
<title>dfa</title>
<polygon fill="white" stroke="none" points="-4,4 -4,-307.889 164.148,-307.889 164.148,4 -4,4"/>
<g id="node1" class="node"><title></title>
<text text-anchor="middle" x="27" y="-282.189" font-family="Times New Roman,serif" font-size="14.00">start</text>
</g>
<!-- q0 -->
<g id="node2" class="node"><title>q0</title>
<ellipse fill="none" stroke="black" cx="27" cy="-210.741" rx="20.2975" ry="20.2975"/>
<text text-anchor="middle" x="27" y="-207.041" font-family="Times New Roman,serif" font-size="14.00">q0</text>
</g>
<!-- &#45;&gt;q0 -->
<g id="edge1" class="edge"><title>&#45;&gt;q0</title>
<path fill="none" stroke="black" d="M27,-267.554C27,-259.659 27,-250.092 27,-241.125"/>
<polygon fill="black" stroke="black" points="30.5001,-241.011 27,-231.011 23.5001,-241.011 30.5001,-241.011"/>
</g>
<!-- q0&#45;&gt;q0 -->
<g id="edge2" class="edge"><title>q0&#45;&gt;q0</title>
<path fill="none" stroke="black" d="M46.2359,-217.616C56.1824,-218.673 65.1482,-216.382 65.1482,-210.741 65.1482,-207.216 61.6459,-204.999 56.5909,-204.09"/>
<polygon fill="black" stroke="black" points="56.309,-200.583 46.2359,-203.867 56.1582,-207.581 56.309,-200.583"/>
<text text-anchor="middle" x="112.648" y="-207.041" font-family="Times New Roman,serif" font-size="14.00">a,X|XX &#160;&#160;&#160;a,Z|XZ</text>
</g>
<!-- q1 -->
<g id="node3" class="node"><title>q1</title>
<ellipse fill="none" stroke="black" cx="27" cy="-119.445" rx="20.2975" ry="20.2975"/>
<text text-anchor="middle" x="27" y="-115.745" font-family="Times New Roman,serif" font-size="14.00">q1</text>
</g>
<!-- q0&#45;&gt;q1 -->
<g id="edge3" class="edge"><title>q0&#45;&gt;q1</title>
<path fill="none" stroke="black" d="M27,-190.365C27,-178.546 27,-163.205 27,-149.905"/>
<polygon fill="black" stroke="black" points="30.5001,-149.783 27,-139.783 23.5001,-149.783 30.5001,-149.783"/>
<text text-anchor="middle" x="65" y="-161.393" font-family="Times New Roman,serif" font-size="14.00">系,X|X &#160;&#160;&#160;系,Z|Z</text>
</g>
<!-- q1&#45;&gt;q1 -->
<g id="edge4" class="edge"><title>q1&#45;&gt;q1</title>
<path fill="none" stroke="black" d="M45.8428,-127.354C55.9449,-128.698 65.1482,-126.062 65.1482,-119.445 65.1482,-115.206 61.3712,-112.6 56.0004,-111.628"/>
<polygon fill="black" stroke="black" points="55.8745,-108.127 45.8428,-111.535 55.8103,-115.127 55.8745,-108.127"/>
<text text-anchor="middle" x="80.1482" y="-115.745" font-family="Times New Roman,serif" font-size="14.00">b,X|系</text>
</g>
<!-- q2 -->
<g id="node4" class="node"><title>q2</title>
<ellipse fill="none" stroke="black" cx="27" cy="-24.1482" rx="20.2726" ry="20.2726"/>
<ellipse fill="none" stroke="black" cx="27" cy="-24.1482" rx="24.2973" ry="24.2973"/>
<text text-anchor="middle" x="27" y="-20.4482" font-family="Times New Roman,serif" font-size="14.00">q2</text>
</g>
<!-- q1&#45;&gt;q2 -->
<g id="edge5" class="edge"><title>q1&#45;&gt;q2</title>
<path fill="none" stroke="black" d="M27,-99.1136C27,-87.3748 27,-72.0726 27,-58.4345"/>
<polygon fill="black" stroke="black" points="30.5001,-58.4164 27,-48.4164 23.5001,-58.4164 30.5001,-58.4164"/>
<text text-anchor="middle" x="41.5" y="-70.0964" font-family="Times New Roman,serif" font-size="14.00">系,Z|Z</text>
</g>
</g>
</svg>
