<?xml version="1.0" encoding="UTF-8" standalone="no"?>
<!DOCTYPE svg PUBLIC "-//W3C//DTD SVG 1.1//EN"
 "http://www.w3.org/Graphics/SVG/1.1/DTD/svg11.dtd">
<!-- Generated by graphviz version 2.40.1 (20161225.0304)
 -->
<!-- Title: dfa Pages: 1 -->
<svg width="128pt" height="429pt"
 viewBox="0.00 0.00 128.39 428.75" xmlns="http://www.w3.org/2000/svg" xmlns:xlink="http://www.w3.org/1999/xlink">
<g id="graph0" class="graph" transform="scale(1 1) rotate(0) translate(4 424.7476)">
<title>dfa</title>
<polygon fill="#ffffff" stroke="transparent" points="-4,4 -4,-424.7476 124.3869,-424.7476 124.3869,4 -4,4"/>
<!-- q0 -->
<g id="node1" class="node">
<title>q0</title>
<ellipse fill="none" stroke="#000000" cx="60.6935" cy="-400.0542" rx="20.8887" ry="20.8887"/>
<text text-anchor="middle" x="60.6935" y="-395.8542" font-family="Times,serif" font-size="14.00" fill="#000000">q0</text>
</g>
<!-- q1 -->
<g id="node2" class="node">
<title>q1</title>
<ellipse fill="none" stroke="#000000" cx="20.6935" cy="-305.8673" rx="20.8887" ry="20.8887"/>
<text text-anchor="middle" x="20.6935" y="-301.6673" font-family="Times,serif" font-size="14.00" fill="#000000">q1</text>
</g>
<!-- q0&#45;&gt;q1 -->
<g id="edge1" class="edge">
<title>q0&#45;&gt;q1</title>
<path fill="none" stroke="#000000" d="M52.5989,-380.994C46.9435,-367.6775 39.2913,-349.6591 32.8987,-334.6065"/>
<polygon fill="#000000" stroke="#000000" points="36.0439,-333.0585 28.9133,-325.2223 29.6008,-335.7948 36.0439,-333.0585"/>
<text text-anchor="middle" x="46.8008" y="-348.7607" font-family="Times,serif" font-size="14.00" fill="#000000">a</text>
</g>
<!-- q2 -->
<g id="node3" class="node">
<title>q2</title>
<ellipse fill="none" stroke="#000000" cx="61.6935" cy="-211.6804" rx="20.8887" ry="20.8887"/>
<text text-anchor="middle" x="61.6935" y="-207.4804" font-family="Times,serif" font-size="14.00" fill="#000000">q2</text>
</g>
<!-- q0&#45;&gt;q2 -->
<g id="edge2" class="edge">
<title>q0&#45;&gt;q2</title>
<path fill="none" stroke="#000000" d="M65.5887,-379.9245C68.9001,-365.2369 72.9723,-344.7938 74.6935,-326.5607 76.4221,-308.2479 76.3016,-303.4976 74.6935,-285.1738 73.4421,-270.9148 70.8499,-255.2767 68.3072,-242.105"/>
<polygon fill="#000000" stroke="#000000" points="71.7071,-241.258 66.3052,-232.1437 64.8443,-242.6373 71.7071,-241.258"/>
<text text-anchor="middle" x="80.1935" y="-301.6673" font-family="Times,serif" font-size="14.00" fill="#000000">b</text>
</g>
<!-- q1&#45;&gt;q1 -->
<g id="edge3" class="edge">
<title>q1&#45;&gt;q1</title>
<path fill="none" stroke="#000000" d="M39.8056,-314.1364C50.052,-315.5416 59.3869,-312.7852 59.3869,-305.8673 59.3869,-301.4354 55.5559,-298.7115 50.1084,-297.6955"/>
<polygon fill="#000000" stroke="#000000" points="49.8383,-294.1929 39.8056,-297.5981 49.772,-301.1926 49.8383,-294.1929"/>
<text text-anchor="middle" x="62.4942" y="-301.6673" font-family="Times,serif" font-size="14.00" fill="#000000">a</text>
</g>
<!-- q1&#45;&gt;q2 -->
<g id="edge4" class="edge">
<title>q1&#45;&gt;q2</title>
<path fill="none" stroke="#000000" d="M28.9904,-286.8071C34.8256,-273.4024 42.7346,-255.2333 49.3131,-240.1209"/>
<polygon fill="#000000" stroke="#000000" points="52.6266,-241.2781 53.4088,-230.7121 46.2084,-238.4841 52.6266,-241.2781"/>
<text text-anchor="middle" x="47.1935" y="-254.5738" font-family="Times,serif" font-size="14.00" fill="#000000">b</text>
</g>
<!-- q3 -->
<g id="node4" class="node">
<title>q3</title>
<ellipse fill="none" stroke="#000000" cx="28.6935" cy="-113.4935" rx="20.8568" ry="20.8568"/>
<ellipse fill="none" stroke="#000000" cx="28.6935" cy="-113.4935" rx="24.8884" ry="24.8884"/>
<text text-anchor="middle" x="28.6935" y="-109.2935" font-family="Times,serif" font-size="14.00" fill="#000000">q3</text>
</g>
<!-- q2&#45;&gt;q3 -->
<g id="edge5" class="edge">
<title>q2&#45;&gt;q3</title>
<path fill="none" stroke="#000000" d="M55.0154,-191.8108C50.7002,-178.9715 44.9758,-161.9394 39.9677,-147.0384"/>
<polygon fill="#000000" stroke="#000000" points="43.1446,-145.5044 36.6411,-137.1405 36.5093,-147.7345 43.1446,-145.5044"/>
<text text-anchor="middle" x="51.8008" y="-160.3869" font-family="Times,serif" font-size="14.00" fill="#000000">a</text>
</g>
<!-- q4 -->
<g id="node5" class="node">
<title>q4</title>
<ellipse fill="none" stroke="#000000" cx="95.6935" cy="-113.4935" rx="20.8568" ry="20.8568"/>
<ellipse fill="none" stroke="#000000" cx="95.6935" cy="-113.4935" rx="24.8884" ry="24.8884"/>
<text text-anchor="middle" x="95.6935" y="-109.2935" font-family="Times,serif" font-size="14.00" fill="#000000">q4</text>
</g>
<!-- q2&#45;&gt;q4 -->
<g id="edge6" class="edge">
<title>q2&#45;&gt;q4</title>
<path fill="none" stroke="#000000" d="M68.5739,-191.8108C73.0626,-178.848 79.0312,-161.6115 84.2262,-146.6092"/>
<polygon fill="#000000" stroke="#000000" points="87.5401,-147.7353 87.505,-137.1405 80.9254,-145.4447 87.5401,-147.7353"/>
<text text-anchor="middle" x="85.1935" y="-160.3869" font-family="Times,serif" font-size="14.00" fill="#000000">b</text>
</g>
<!-- q5 -->
<g id="node6" class="node">
<title>q5</title>
<ellipse fill="none" stroke="#000000" cx="61.6935" cy="-18" rx="27" ry="18"/>
<text text-anchor="middle" x="61.6935" y="-13.8" font-family="Times,serif" font-size="14.00" fill="#000000">q5</text>
</g>
<!-- q3&#45;&gt;q5 -->
<g id="edge7" class="edge">
<title>q3&#45;&gt;q5</title>
<path fill="none" stroke="#000000" d="M36.8508,-89.8883C41.5198,-76.3774 47.3982,-59.3666 52.2646,-45.2846"/>
<polygon fill="#000000" stroke="#000000" points="55.6392,-46.2349 55.5975,-35.6402 49.0232,-43.9485 55.6392,-46.2349"/>
<text text-anchor="middle" x="56.3008" y="-58.2" font-family="Times,serif" font-size="14.00" fill="#000000">ab</text>
</g>
<!-- q4&#45;&gt;q5 -->
<g id="edge8" class="edge">
<title>q4&#45;&gt;q5</title>
<path fill="none" stroke="#000000" d="M87.289,-89.8883C82.4785,-76.3774 76.4218,-59.3666 71.408,-45.2846"/>
<polygon fill="#000000" stroke="#000000" points="74.6257,-43.8869 67.9742,-35.6402 68.0312,-46.2349 74.6257,-43.8869"/>
<text text-anchor="middle" x="87.3008" y="-58.2" font-family="Times,serif" font-size="14.00" fill="#000000">ab</text>
</g>
<!-- q5&#45;&gt;q5 -->
<g id="edge9" class="edge">
<title>q5&#45;&gt;q5</title>
<path fill="none" stroke="#000000" d="M86.2259,-26.1211C97.2013,-26.8945 106.6935,-24.1875 106.6935,-18 106.6935,-13.8428 102.4085,-11.2567 96.2678,-10.2417"/>
<polygon fill="#000000" stroke="#000000" points="96.3458,-6.7424 86.2259,-9.8789 96.093,-13.7378 96.3458,-6.7424"/>
<text text-anchor="middle" x="113.3008" y="-13.8" font-family="Times,serif" font-size="14.00" fill="#000000">ab</text>
</g>
</g>
</svg>
