<?xml version="1.0" encoding="UTF-8" standalone="no"?>
<!DOCTYPE svg PUBLIC "-//W3C//DTD SVG 1.1//EN"
 "http://www.w3.org/Graphics/SVG/1.1/DTD/svg11.dtd">
<!-- Generated by graphviz version 2.40.1 (20161225.0304)
 -->
<!-- Title: dfa Pages: 1 -->
<svg width="97pt" height="379pt"
 viewBox="0.00 0.00 96.92 378.58" xmlns="http://www.w3.org/2000/svg" xmlns:xlink="http://www.w3.org/1999/xlink">
<g id="graph0" class="graph" transform="scale(1 1) rotate(0) translate(4 374.5754)">
<title>dfa</title>
<polygon fill="#ffffff" stroke="transparent" points="-4,4 -4,-374.5754 92.9154,-374.5754 92.9154,4 -4,4"/>
<!-- q0q1 -->
<g id="node1" class="node">
<title>q0q1</title>
<ellipse fill="none" stroke="#000000" cx="34.3504" cy="-340.225" rx="30.2015" ry="30.2015"/>
<text text-anchor="middle" x="34.3504" y="-336.025" font-family="Times,serif" font-size="14.00" fill="#000000">q0q1</text>
</g>
<!-- q0q1&#45;&gt;q0q1 -->
<g id="edge1" class="edge">
<title>q0q1&#45;&gt;q0q1</title>
<path fill="none" stroke="#000000" d="M63.1402,-350.7019C73.8692,-351.0454 82.7008,-347.5531 82.7008,-340.225 82.7008,-335.4159 78.8974,-332.2588 73.2502,-330.7536"/>
<polygon fill="#000000" stroke="#000000" points="73.4376,-327.255 63.1402,-329.7481 72.7447,-334.2207 73.4376,-327.255"/>
<text text-anchor="middle" x="85.8081" y="-336.025" font-family="Times,serif" font-size="14.00" fill="#000000">a</text>
</g>
<!-- q2 -->
<g id="node2" class="node">
<title>q2</title>
<ellipse fill="none" stroke="#000000" cx="34.3504" cy="-236.3812" rx="20.8887" ry="20.8887"/>
<text text-anchor="middle" x="34.3504" y="-232.1812" font-family="Times,serif" font-size="14.00" fill="#000000">q2</text>
</g>
<!-- q0q1&#45;&gt;q2 -->
<g id="edge2" class="edge">
<title>q0q1&#45;&gt;q2</title>
<path fill="none" stroke="#000000" d="M34.3504,-309.6301C34.3504,-296.3177 34.3504,-280.7413 34.3504,-267.3833"/>
<polygon fill="#000000" stroke="#000000" points="37.8505,-267.2316 34.3504,-257.2316 30.8505,-267.2316 37.8505,-267.2316"/>
<text text-anchor="middle" x="37.8504" y="-279.2746" font-family="Times,serif" font-size="14.00" fill="#000000">b</text>
</g>
<!-- q3q4 -->
<g id="node4" class="node">
<title>q3q4</title>
<ellipse fill="none" stroke="#000000" cx="34.3504" cy="-128.5373" rx="30.2188" ry="30.2188"/>
<ellipse fill="none" stroke="#000000" cx="34.3504" cy="-128.5373" rx="34.2014" ry="34.2014"/>
<text text-anchor="middle" x="34.3504" y="-124.3373" font-family="Times,serif" font-size="14.00" fill="#000000">q3q4</text>
</g>
<!-- q2&#45;&gt;q3q4 -->
<g id="edge3" class="edge">
<title>q2&#45;&gt;q3q4</title>
<path fill="none" stroke="#000000" d="M34.3504,-215.5878C34.3504,-203.6686 34.3504,-188.2235 34.3504,-173.6588"/>
<polygon fill="#000000" stroke="#000000" points="37.8505,-173.272 34.3504,-163.272 30.8505,-173.272 37.8505,-173.272"/>
<text text-anchor="middle" x="40.9577" y="-185.0877" font-family="Times,serif" font-size="14.00" fill="#000000">ab</text>
</g>
<!-- q5 -->
<g id="node3" class="node">
<title>q5</title>
<ellipse fill="none" stroke="#000000" cx="34.3504" cy="-20.6935" rx="20.8887" ry="20.8887"/>
<text text-anchor="middle" x="34.3504" y="-16.4935" font-family="Times,serif" font-size="14.00" fill="#000000">q5</text>
</g>
<!-- q5&#45;&gt;q5 -->
<g id="edge5" class="edge">
<title>q5&#45;&gt;q5</title>
<path fill="none" stroke="#000000" d="M53.4625,-28.9626C63.709,-30.3678 73.0439,-27.6114 73.0439,-20.6935 73.0439,-16.2616 69.2128,-13.5377 63.7653,-12.5217"/>
<polygon fill="#000000" stroke="#000000" points="63.4952,-9.0191 53.4625,-12.4243 63.429,-16.0188 63.4952,-9.0191"/>
<text text-anchor="middle" x="79.6512" y="-16.4935" font-family="Times,serif" font-size="14.00" fill="#000000">ab</text>
</g>
<!-- q3q4&#45;&gt;q5 -->
<g id="edge4" class="edge">
<title>q3q4&#45;&gt;q5</title>
<path fill="none" stroke="#000000" d="M34.3504,-94.1183C34.3504,-80.4991 34.3504,-64.9614 34.3504,-51.697"/>
<polygon fill="#000000" stroke="#000000" points="37.8505,-51.6267 34.3504,-41.6267 30.8505,-51.6267 37.8505,-51.6267"/>
<text text-anchor="middle" x="40.9577" y="-63.5869" font-family="Times,serif" font-size="14.00" fill="#000000">ab</text>
</g>
</g>
</svg>
