<?xml version="1.0" encoding="UTF-8" standalone="no"?>
<!DOCTYPE svg PUBLIC "-//W3C//DTD SVG 1.1//EN"
 "http://www.w3.org/Graphics/SVG/1.1/DTD/svg11.dtd">
<!-- Generated by graphviz version 2.40.1 (20161225.0304)
 -->
<!-- Title: dfa Pages: 1 -->
<svg width="109pt" height="324pt"
 viewBox="0.00 0.00 108.91 323.79" xmlns="http://www.w3.org/2000/svg" xmlns:xlink="http://www.w3.org/1999/xlink">
<g id="graph0" class="graph" transform="scale(1 1) rotate(0) translate(4 319.7869)">
<title>dfa</title>
<polygon fill="#ffffff" stroke="transparent" points="-4,4 -4,-319.7869 104.9081,-319.7869 104.9081,4 -4,4"/>
<g id="node1" class="node">
<title></title>
</g>
<!-- q0 -->
<g id="node3" class="node">
<title>q0</title>
<ellipse fill="none" stroke="#000000" cx="72.6935" cy="-208.9869" rx="27" ry="18"/>
<text text-anchor="middle" x="72.6935" y="-204.7869" font-family="Times,serif" font-size="14.00" fill="#000000">q0</text>
</g>
<!-- &#45;&gt;q0 -->
<g id="edge1" class="edge">
<title>&#45;&gt;q0</title>
<path fill="none" stroke="#000000" d="M72.6935,-279.3875C72.6935,-267.2818 72.6935,-251.1945 72.6935,-237.4543"/>
<polygon fill="#000000" stroke="#000000" points="76.1935,-237.0589 72.6935,-227.0589 69.1935,-237.059 76.1935,-237.0589"/>
<text text-anchor="middle" x="84.744" y="-249.1869" font-family="Times,serif" font-size="14.00" fill="#000000">start</text>
</g>
<!-- q2 -->
<g id="node2" class="node">
<title>q2</title>
<ellipse fill="none" stroke="#000000" cx="24.6935" cy="-113.4935" rx="20.8568" ry="20.8568"/>
<ellipse fill="none" stroke="#000000" cx="24.6935" cy="-113.4935" rx="24.8884" ry="24.8884"/>
<text text-anchor="middle" x="24.6935" y="-109.2935" font-family="Times,serif" font-size="14.00" fill="#000000">q2</text>
</g>
<!-- q2&#45;&gt;q0 -->
<g id="edge7" class="edge">
<title>q2&#45;&gt;q0</title>
<path fill="none" stroke="#000000" d="M35.9113,-135.8108C42.9765,-149.8667 52.1285,-168.0739 59.5358,-182.8104"/>
<polygon fill="#000000" stroke="#000000" points="56.4937,-184.5517 64.112,-191.9146 62.7481,-181.4079 56.4937,-184.5517"/>
<text text-anchor="middle" x="58.1935" y="-160.3869" font-family="Times,serif" font-size="14.00" fill="#000000">b</text>
</g>
<!-- q1 -->
<g id="node4" class="node">
<title>q1</title>
<ellipse fill="none" stroke="#000000" cx="72.6935" cy="-18" rx="27" ry="18"/>
<text text-anchor="middle" x="72.6935" y="-13.8" font-family="Times,serif" font-size="14.00" fill="#000000">q1</text>
</g>
<!-- q2&#45;&gt;q1 -->
<g id="edge6" class="edge">
<title>q2&#45;&gt;q1</title>
<path fill="none" stroke="#000000" d="M26.8693,-88.6786C28.6198,-77.5674 31.7787,-64.6092 37.4789,-54 40.2203,-48.8976 43.9012,-44.0251 47.8517,-39.6053"/>
<polygon fill="#000000" stroke="#000000" points="50.6182,-41.7824 55.1092,-32.1865 45.6143,-36.8873 50.6182,-41.7824"/>
<text text-anchor="middle" x="40.8008" y="-58.2" font-family="Times,serif" font-size="14.00" fill="#000000">a</text>
</g>
<!-- q0&#45;&gt;q2 -->
<g id="edge3" class="edge">
<title>q0&#45;&gt;q2</title>
<path fill="none" stroke="#000000" d="M53.185,-196.0828C45.5523,-189.9995 37.4922,-182.0748 32.6935,-172.9869 28.7495,-165.5178 26.5009,-156.815 25.2696,-148.4083"/>
<polygon fill="#000000" stroke="#000000" points="28.7447,-147.9867 24.2265,-138.4036 21.7824,-148.7127 28.7447,-147.9867"/>
<text text-anchor="middle" x="36.1935" y="-160.3869" font-family="Times,serif" font-size="14.00" fill="#000000">b</text>
</g>
<!-- q0&#45;&gt;q1 -->
<g id="edge2" class="edge">
<title>q0&#45;&gt;q1</title>
<path fill="none" stroke="#000000" d="M72.6935,-190.6743C72.6935,-157.2347 72.6935,-86.0814 72.6935,-46.3421"/>
<polygon fill="#000000" stroke="#000000" points="76.1936,-46.2571 72.6935,-36.2572 69.1936,-46.2572 76.1936,-46.2571"/>
<text text-anchor="middle" x="75.8008" y="-109.2935" font-family="Times,serif" font-size="14.00" fill="#000000">a</text>
</g>
<!-- q1&#45;&gt;q2 -->
<g id="edge5" class="edge">
<title>q1&#45;&gt;q2</title>
<path fill="none" stroke="#000000" d="M64.0149,-35.2655C57.4735,-48.2792 48.3226,-66.4846 40.4943,-82.0584"/>
<polygon fill="#000000" stroke="#000000" points="37.1902,-80.8386 35.8263,-91.3453 43.4446,-83.9824 37.1902,-80.8386"/>
<text text-anchor="middle" x="58.1935" y="-58.2" font-family="Times,serif" font-size="14.00" fill="#000000">b</text>
</g>
<!-- q1&#45;&gt;q0 -->
<g id="edge4" class="edge">
<title>q1&#45;&gt;q0</title>
<path fill="none" stroke="#000000" d="M80.8727,-35.1945C83.2409,-41.0283 85.5064,-47.6726 86.6935,-54 96.4443,-105.9763 96.4443,-121.0106 86.6935,-172.9869 86.1185,-176.0517 85.2905,-179.1909 84.3204,-182.2763"/>
<polygon fill="#000000" stroke="#000000" points="80.9884,-181.1982 80.8727,-191.7924 87.5698,-183.5826 80.9884,-181.1982"/>
<text text-anchor="middle" x="97.8008" y="-109.2935" font-family="Times,serif" font-size="14.00" fill="#000000">a</text>
</g>
</g>
</svg>
