<?xml version="1.0" encoding="UTF-8" standalone="no"?>
<!DOCTYPE svg PUBLIC "-//W3C//DTD SVG 1.1//EN"
 "http://www.w3.org/Graphics/SVG/1.1/DTD/svg11.dtd">
<!-- Generated by graphviz version 2.40.1 (20161225.0304)
 -->
<!-- Title: dfa Pages: 1 -->
<svg width="86pt" height="235pt"
 viewBox="0.00 0.00 86.21 234.99" xmlns="http://www.w3.org/2000/svg" xmlns:xlink="http://www.w3.org/1999/xlink">
<g id="graph0" class="graph" transform="scale(1 1) rotate(0) translate(4 230.9869)">
<title>dfa</title>
<polygon fill="#ffffff" stroke="transparent" points="-4,4 -4,-230.9869 82.2146,-230.9869 82.2146,4 -4,4"/>
<g id="node1" class="node">
<title></title>
</g>
<!-- q0 -->
<g id="node3" class="node">
<title>q0</title>
<ellipse fill="none" stroke="#000000" cx="27" cy="-120.1869" rx="27" ry="18"/>
<text text-anchor="middle" x="27" y="-115.9869" font-family="Times,serif" font-size="14.00" fill="#000000">q0</text>
</g>
<!-- &#45;&gt;q0 -->
<g id="edge1" class="edge">
<title>&#45;&gt;q0</title>
<path fill="none" stroke="#000000" d="M27,-190.5875C27,-178.4818 27,-162.3945 27,-148.6543"/>
<polygon fill="#000000" stroke="#000000" points="30.5001,-148.2589 27,-138.2589 23.5001,-148.259 30.5001,-148.2589"/>
<text text-anchor="middle" x="39.0505" y="-160.3869" font-family="Times,serif" font-size="14.00" fill="#000000">start</text>
</g>
<!-- q2 -->
<g id="node2" class="node">
<title>q2</title>
<ellipse fill="none" stroke="#000000" cx="27" cy="-24.6935" rx="20.8568" ry="20.8568"/>
<ellipse fill="none" stroke="#000000" cx="27" cy="-24.6935" rx="24.8884" ry="24.8884"/>
<text text-anchor="middle" x="27" y="-20.4935" font-family="Times,serif" font-size="14.00" fill="#000000">q2</text>
</g>
<!-- q2&#45;&gt;q0 -->
<g id="edge4" class="edge">
<title>q2&#45;&gt;q0</title>
<path fill="none" stroke="#000000" d="M27,-49.5495C27,-62.4457 27,-78.2606 27,-91.6543"/>
<polygon fill="#000000" stroke="#000000" points="23.5001,-91.7748 27,-101.7748 30.5001,-91.7748 23.5001,-91.7748"/>
<text text-anchor="middle" x="30.5" y="-71.5869" font-family="Times,serif" font-size="14.00" fill="#000000">b</text>
</g>
<!-- q0&#45;&gt;q2 -->
<g id="edge3" class="edge">
<title>q0&#45;&gt;q2</title>
<path fill="none" stroke="#000000" d="M19.8573,-102.5274C17.8734,-96.7772 15.992,-90.2997 15,-84.1869 13.6201,-75.6835 14.3455,-66.5435 15.9723,-58.0408"/>
<polygon fill="#000000" stroke="#000000" points="19.4346,-58.6074 18.3226,-48.0711 12.6214,-57.0011 19.4346,-58.6074"/>
<text text-anchor="middle" x="18.5" y="-71.5869" font-family="Times,serif" font-size="14.00" fill="#000000">b</text>
</g>
<!-- q0&#45;&gt;q0 -->
<g id="edge2" class="edge">
<title>q0&#45;&gt;q0</title>
<path fill="none" stroke="#000000" d="M51.5325,-128.308C62.5078,-129.0814 72,-126.3744 72,-120.1869 72,-116.0297 67.7151,-113.4436 61.5743,-112.4286"/>
<polygon fill="#000000" stroke="#000000" points="61.6524,-108.9293 51.5325,-112.0658 61.3995,-115.9247 61.6524,-108.9293"/>
<text text-anchor="middle" x="75.1073" y="-115.9869" font-family="Times,serif" font-size="14.00" fill="#000000">a</text>
</g>
</g>
</svg>
