<?xml version="1.0" encoding="UTF-8" standalone="no"?>
<!DOCTYPE svg PUBLIC "-//W3C//DTD SVG 1.1//EN"
 "http://www.w3.org/Graphics/SVG/1.1/DTD/svg11.dtd">
<!-- Generated by graphviz version 2.40.1 (20161225.0304)
 -->
<!-- Title: dfa Pages: 1 -->
<svg width="271pt" height="617pt"
 viewBox="0.00 0.00 271.21 617.12" xmlns="http://www.w3.org/2000/svg" xmlns:xlink="http://www.w3.org/1999/xlink">
<g id="graph0" class="graph" transform="scale(1 1) rotate(0) translate(4 613.1214)">
<title>dfa</title>
<polygon fill="#ffffff" stroke="transparent" points="-4,4 -4,-613.1214 267.2146,-613.1214 267.2146,4 -4,4"/>
<g id="node1" class="node">
<title></title>
</g>
<!-- q1 -->
<g id="node2" class="node">
<title>q1</title>
<ellipse fill="none" stroke="#000000" cx="38" cy="-499.628" rx="20.8887" ry="20.8887"/>
<text text-anchor="middle" x="38" y="-495.428" font-family="Times,serif" font-size="14.00" fill="#000000">q1</text>
</g>
<!-- &#45;&gt;q1 -->
<g id="edge1" class="edge">
<title>&#45;&gt;q1</title>
<path fill="none" stroke="#000000" d="M38,-573.0453C38,-561.0103 38,-544.8828 38,-530.8089"/>
<polygon fill="#000000" stroke="#000000" points="41.5001,-530.5485 38,-520.5485 34.5001,-530.5486 41.5001,-530.5485"/>
<text text-anchor="middle" x="50.0505" y="-542.5214" font-family="Times,serif" font-size="14.00" fill="#000000">start</text>
</g>
<!-- q2 -->
<g id="node3" class="node">
<title>q2</title>
<ellipse fill="none" stroke="#000000" cx="133" cy="-405.4411" rx="20.8887" ry="20.8887"/>
<text text-anchor="middle" x="133" y="-401.2411" font-family="Times,serif" font-size="14.00" fill="#000000">q2</text>
</g>
<!-- q1&#45;&gt;q2 -->
<g id="edge3" class="edge">
<title>q1&#45;&gt;q2</title>
<path fill="none" stroke="#000000" d="M52.8438,-484.9113C68.4601,-469.4286 93.2039,-444.8966 111.0709,-427.1825"/>
<polygon fill="#000000" stroke="#000000" points="113.6233,-429.5806 118.2605,-420.0544 108.6948,-424.6096 113.6233,-429.5806"/>
<text text-anchor="middle" x="94.5" y="-448.3345" font-family="Times,serif" font-size="14.00" fill="#000000">b</text>
</g>
<!-- q4 -->
<g id="node5" class="node">
<title>q4</title>
<ellipse fill="none" stroke="#000000" cx="76" cy="-217.0673" rx="20.8887" ry="20.8887"/>
<text text-anchor="middle" x="76" y="-212.8673" font-family="Times,serif" font-size="14.00" fill="#000000">q4</text>
</g>
<!-- q1&#45;&gt;q4 -->
<g id="edge4" class="edge">
<title>q1&#45;&gt;q4</title>
<path fill="none" stroke="#000000" d="M40.7942,-478.8506C47.4098,-429.6583 64.0586,-305.8613 71.8536,-247.899"/>
<polygon fill="#000000" stroke="#000000" points="75.3375,-248.2524 73.2017,-237.8751 68.4,-247.3193 75.3375,-248.2524"/>
<text text-anchor="middle" x="61.1073" y="-354.1476" font-family="Times,serif" font-size="14.00" fill="#000000">c</text>
</g>
<!-- q6 -->
<g id="node6" class="node">
<title>q6</title>
<ellipse fill="none" stroke="#000000" cx="147" cy="-20.6935" rx="20.8887" ry="20.8887"/>
<text text-anchor="middle" x="147" y="-16.4935" font-family="Times,serif" font-size="14.00" fill="#000000">q6</text>
</g>
<!-- q1&#45;&gt;q6 -->
<g id="edge2" class="edge">
<title>q1&#45;&gt;q6</title>
<path fill="none" stroke="#000000" d="M26.3923,-482.4109C15.2172,-464.1356 0,-434.0058 0,-405.4411 0,-405.4411 0,-405.4411 0,-118.8804 0,-63.3095 73.5414,-37.2287 116.5917,-26.7221"/>
<polygon fill="#000000" stroke="#000000" points="117.5973,-30.0823 126.5603,-24.433 116.0306,-23.2599 117.5973,-30.0823"/>
<text text-anchor="middle" x="3.1073" y="-259.9607" font-family="Times,serif" font-size="14.00" fill="#000000">a</text>
</g>
<!-- q3 -->
<g id="node4" class="node">
<title>q3</title>
<ellipse fill="none" stroke="#000000" cx="133" cy="-311.2542" rx="20.8887" ry="20.8887"/>
<text text-anchor="middle" x="133" y="-307.0542" font-family="Times,serif" font-size="14.00" fill="#000000">q3</text>
</g>
<!-- q2&#45;&gt;q3 -->
<g id="edge5" class="edge">
<title>q2&#45;&gt;q3</title>
<path fill="none" stroke="#000000" d="M133,-384.5379C133,-372.1 133,-356.0882 133,-342.2056"/>
<polygon fill="#000000" stroke="#000000" points="136.5001,-342.0988 133,-332.0989 129.5001,-342.0989 136.5001,-342.0988"/>
<text text-anchor="middle" x="136.1073" y="-354.1476" font-family="Times,serif" font-size="14.00" fill="#000000">a</text>
</g>
<!-- q2&#45;&gt;q6 -->
<g id="edge6" class="edge">
<title>q2&#45;&gt;q6</title>
<path fill="none" stroke="#000000" d="M151.3802,-394.9745C175.2785,-379.8399 214,-349.4279 214,-311.2542 214,-311.2542 214,-311.2542 214,-118.8804 214,-87.5019 190.3641,-58.7599 171.1693,-40.5921"/>
<polygon fill="#000000" stroke="#000000" points="173.3244,-37.8219 163.5618,-33.7057 168.6267,-43.0115 173.3244,-37.8219"/>
<text text-anchor="middle" x="217.5" y="-212.8673" font-family="Times,serif" font-size="14.00" fill="#000000">b</text>
</g>
<!-- q2&#45;&gt;q6 -->
<g id="edge7" class="edge">
<title>q2&#45;&gt;q6</title>
<path fill="none" stroke="#000000" d="M153.1987,-400.2128C188.3356,-389.763 257,-362.7537 257,-311.2542 257,-311.2542 257,-311.2542 257,-118.8804 257,-84.625 233.6731,-82.0655 208,-59.3869 197.7931,-50.3706 185.2693,-42.0411 174.2307,-35.4381"/>
<polygon fill="#000000" stroke="#000000" points="175.7991,-32.3019 165.3912,-30.3205 172.2919,-38.3599 175.7991,-32.3019"/>
<text text-anchor="middle" x="260.1073" y="-212.8673" font-family="Times,serif" font-size="14.00" fill="#000000">c</text>
</g>
<!-- q3&#45;&gt;q4 -->
<g id="edge8" class="edge">
<title>q3&#45;&gt;q4</title>
<path fill="none" stroke="#000000" d="M122.2787,-293.5383C113.8139,-279.551 101.8651,-259.8067 92.2293,-243.8846"/>
<polygon fill="#000000" stroke="#000000" points="95.0389,-241.7671 86.867,-235.0239 89.0502,-245.3914 95.0389,-241.7671"/>
<text text-anchor="middle" x="110.1073" y="-259.9607" font-family="Times,serif" font-size="14.00" fill="#000000">a</text>
</g>
<!-- q3&#45;&gt;q6 -->
<g id="edge10" class="edge">
<title>q3&#45;&gt;q6</title>
<path fill="none" stroke="#000000" d="M138.4094,-290.8933C139.7872,-285.0155 141.1243,-278.5665 142,-272.5607 154.6157,-186.0355 151.3321,-163.5862 154,-76.1869 154.2278,-68.7237 154.6673,-66.8237 154,-59.3869 153.7567,-56.6757 153.4194,-53.8703 153.0232,-51.0658"/>
<polygon fill="#000000" stroke="#000000" points="156.4591,-50.3886 151.3936,-41.0832 149.5506,-51.5165 156.4591,-50.3886"/>
<text text-anchor="middle" x="155.1073" y="-165.7738" font-family="Times,serif" font-size="14.00" fill="#000000">c</text>
</g>
<!-- q5 -->
<g id="node7" class="node">
<title>q5</title>
<ellipse fill="none" stroke="#000000" cx="115" cy="-118.8804" rx="20.8568" ry="20.8568"/>
<ellipse fill="none" stroke="#000000" cx="115" cy="-118.8804" rx="24.8884" ry="24.8884"/>
<text text-anchor="middle" x="115" y="-114.6804" font-family="Times,serif" font-size="14.00" fill="#000000">q5</text>
</g>
<!-- q3&#45;&gt;q5 -->
<g id="edge9" class="edge">
<title>q3&#45;&gt;q5</title>
<path fill="none" stroke="#000000" d="M131.0394,-290.3006C127.9697,-257.4935 121.9953,-193.6422 118.2678,-153.8049"/>
<polygon fill="#000000" stroke="#000000" points="121.7425,-153.3701 117.326,-143.7396 114.7729,-154.0223 121.7425,-153.3701"/>
<text text-anchor="middle" x="129.5" y="-212.8673" font-family="Times,serif" font-size="14.00" fill="#000000">b</text>
</g>
<!-- q4&#45;&gt;q2 -->
<g id="edge11" class="edge">
<title>q4&#45;&gt;q2</title>
<path fill="none" stroke="#000000" d="M77.9951,-237.8318C80.6396,-261.176 86.2523,-299.9935 96.7854,-331.9476 102.104,-348.0827 110.3427,-365.1595 117.619,-378.7871"/>
<polygon fill="#000000" stroke="#000000" points="114.5815,-380.5273 122.455,-387.6166 120.7209,-377.1646 114.5815,-380.5273"/>
<text text-anchor="middle" x="99.1073" y="-307.0542" font-family="Times,serif" font-size="14.00" fill="#000000">a</text>
</g>
<!-- q4&#45;&gt;q6 -->
<g id="edge12" class="edge">
<title>q4&#45;&gt;q6</title>
<path fill="none" stroke="#000000" d="M70.886,-196.5786C65.6583,-171.4135 60.0946,-127.9181 74,-94.1869 83.5139,-71.1085 104.1718,-51.4505 121.0922,-38.2885"/>
<polygon fill="#000000" stroke="#000000" points="123.5894,-40.7929 129.5209,-32.014 119.4095,-35.1778 123.5894,-40.7929"/>
<text text-anchor="middle" x="77.5" y="-114.6804" font-family="Times,serif" font-size="14.00" fill="#000000">b</text>
</g>
<!-- q4&#45;&gt;q5 -->
<g id="edge13" class="edge">
<title>q4&#45;&gt;q5</title>
<path fill="none" stroke="#000000" d="M83.7051,-197.6687C88.9132,-184.5568 95.9192,-166.9183 101.982,-151.6546"/>
<polygon fill="#000000" stroke="#000000" points="105.3628,-152.6243 105.8015,-142.0385 98.8572,-150.0402 105.3628,-152.6243"/>
<text text-anchor="middle" x="100.1073" y="-165.7738" font-family="Times,serif" font-size="14.00" fill="#000000">c</text>
</g>
<!-- q6&#45;&gt;q6 -->
<g id="edge15" class="edge">
<title>q6&#45;&gt;q6</title>
<path fill="none" stroke="#000000" d="M166.1121,-28.9626C176.3586,-30.3678 185.6935,-27.6114 185.6935,-20.6935 185.6935,-16.2616 181.8624,-13.5377 176.4149,-12.5217"/>
<polygon fill="#000000" stroke="#000000" points="176.1448,-9.0191 166.1121,-12.4243 176.0786,-16.0188 176.1448,-9.0191"/>
<text text-anchor="middle" x="198.9081" y="-16.4935" font-family="Times,serif" font-size="14.00" fill="#000000">a,b,c</text>
</g>
<!-- q5&#45;&gt;q6 -->
<g id="edge14" class="edge">
<title>q5&#45;&gt;q6</title>
<path fill="none" stroke="#000000" d="M118.7489,-94.1778C120.769,-83.3286 123.6636,-70.5462 127.5708,-59.3869 128.9021,-55.5846 130.5275,-51.6785 132.2656,-47.8787"/>
<polygon fill="#000000" stroke="#000000" points="135.4698,-49.2934 136.7146,-38.7719 129.1802,-46.2207 135.4698,-49.2934"/>
<text text-anchor="middle" x="140.2146" y="-63.5869" font-family="Times,serif" font-size="14.00" fill="#000000">a,b,c</text>
</g>
</g>
</svg>
