<?xml version="1.0" encoding="UTF-8" standalone="no"?>
<!DOCTYPE svg PUBLIC "-//W3C//DTD SVG 1.1//EN"
 "http://www.w3.org/Graphics/SVG/1.1/DTD/svg11.dtd">
<!-- Generated by graphviz version 2.40.1 (20161225.0304)
 -->
<!-- Title: nfa Pages: 1 -->
<svg width="395pt" height="639pt"
 viewBox="0.00 0.00 394.70 638.58" xmlns="http://www.w3.org/2000/svg" xmlns:xlink="http://www.w3.org/1999/xlink">
<g id="graph0" class="graph" transform="scale(1 1) rotate(0) translate(4 634.5753)">
<title>nfa</title>
<polygon fill="#ffffff" stroke="transparent" points="-4,4 -4,-634.5753 390.6977,-634.5753 390.6977,4 -4,4"/>
<g id="node1" class="node">
<title></title>
</g>
<!-- Qs -->
<g id="node2" class="node">
<title>Qs</title>
<ellipse fill="none" stroke="#000000" cx="199.1757" cy="-520.0119" rx="21.5294" ry="21.5294"/>
<text text-anchor="middle" x="199.1757" y="-515.8119" font-family="Times,serif" font-size="14.00" fill="#000000">Qs</text>
</g>
<!-- &#45;&gt;Qs -->
<g id="edge1" class="edge">
<title>&#45;&gt;Qs</title>
<path fill="none" stroke="#000000" d="M199.1757,-594.2877C199.1757,-582.28 199.1757,-566.2452 199.1757,-552.1477"/>
<polygon fill="#000000" stroke="#000000" points="202.6758,-551.8437 199.1757,-541.8437 195.6758,-551.8437 202.6758,-551.8437"/>
<text text-anchor="middle" x="211.2262" y="-563.9753" font-family="Times,serif" font-size="14.00" fill="#000000">start</text>
</g>
<!-- q0 -->
<g id="node3" class="node">
<title>q0</title>
<ellipse fill="none" stroke="#000000" cx="170.1757" cy="-424.755" rx="20.8887" ry="20.8887"/>
<text text-anchor="middle" x="170.1757" y="-420.555" font-family="Times,serif" font-size="14.00" fill="#000000">q0</text>
</g>
<!-- Qs&#45;&gt;q0 -->
<g id="edge2" class="edge">
<title>Qs&#45;&gt;q0</title>
<path fill="none" stroke="#000000" d="M192.7397,-498.8713C188.792,-485.9041 183.6749,-469.0961 179.3121,-454.7652"/>
<polygon fill="#000000" stroke="#000000" points="182.5568,-453.4054 176.296,-444.8583 175.8602,-455.4441 182.5568,-453.4054"/>
<text text-anchor="middle" x="191.256" y="-467.6484" font-family="Times,serif" font-size="14.00" fill="#000000">ϵ</text>
</g>
<!-- q8 -->
<g id="node11" class="node">
<title>q8</title>
<ellipse fill="none" stroke="#000000" cx="240.1757" cy="-424.755" rx="20.8887" ry="20.8887"/>
<text text-anchor="middle" x="240.1757" y="-420.555" font-family="Times,serif" font-size="14.00" fill="#000000">q8</text>
</g>
<!-- Qs&#45;&gt;q8 -->
<g id="edge3" class="edge">
<title>Qs&#45;&gt;q8</title>
<path fill="none" stroke="#000000" d="M207.8708,-499.8103C213.6941,-486.2808 221.4452,-468.2723 227.8953,-453.2866"/>
<polygon fill="#000000" stroke="#000000" points="231.174,-454.5219 231.9127,-443.9528 224.7443,-451.7544 231.174,-454.5219"/>
<text text-anchor="middle" x="228.256" y="-467.6484" font-family="Times,serif" font-size="14.00" fill="#000000">ϵ</text>
</g>
<!-- q1 -->
<g id="node4" class="node">
<title>q1</title>
<ellipse fill="none" stroke="#000000" cx="104.1757" cy="-326.5681" rx="20.8568" ry="20.8568"/>
<ellipse fill="none" stroke="#000000" cx="104.1757" cy="-326.5681" rx="24.8884" ry="24.8884"/>
<text text-anchor="middle" x="104.1757" y="-322.3681" font-family="Times,serif" font-size="14.00" fill="#000000">q1</text>
</g>
<!-- q0&#45;&gt;q1 -->
<g id="edge4" class="edge">
<title>q0&#45;&gt;q1</title>
<path fill="none" stroke="#000000" d="M158.3763,-407.2011C148.7777,-392.9215 135.0293,-372.4683 123.7814,-355.735"/>
<polygon fill="#000000" stroke="#000000" points="126.646,-353.7227 118.1626,-347.376 120.8365,-357.6278 126.646,-353.7227"/>
<text text-anchor="middle" x="146.6757" y="-373.4615" font-family="Times,serif" font-size="14.00" fill="#000000">1</text>
</g>
<!-- q2 -->
<g id="node5" class="node">
<title>q2</title>
<ellipse fill="none" stroke="#000000" cx="45.1757" cy="-223.5527" rx="20.8887" ry="20.8887"/>
<text text-anchor="middle" x="45.1757" y="-219.3527" font-family="Times,serif" font-size="14.00" fill="#000000">q2</text>
</g>
<!-- q1&#45;&gt;q2 -->
<g id="edge5" class="edge">
<title>q1&#45;&gt;q2</title>
<path fill="none" stroke="#000000" d="M91.6634,-304.7211C82.5874,-288.8743 70.2572,-267.3455 60.576,-250.4419"/>
<polygon fill="#000000" stroke="#000000" points="63.5147,-248.5304 55.5076,-241.5923 57.4404,-252.0094 63.5147,-248.5304"/>
<text text-anchor="middle" x="83.256" y="-271.2746" font-family="Times,serif" font-size="14.00" fill="#000000">ϵ</text>
</g>
<!-- q5 -->
<g id="node8" class="node">
<title>q5</title>
<ellipse fill="none" stroke="#000000" cx="104.1757" cy="-223.5527" rx="20.8887" ry="20.8887"/>
<text text-anchor="middle" x="104.1757" y="-219.3527" font-family="Times,serif" font-size="14.00" fill="#000000">q5</text>
</g>
<!-- q1&#45;&gt;q5 -->
<g id="edge6" class="edge">
<title>q1&#45;&gt;q5</title>
<path fill="none" stroke="#000000" d="M104.1757,-301.6309C104.1757,-287.5436 104.1757,-269.8047 104.1757,-254.7965"/>
<polygon fill="#000000" stroke="#000000" points="107.6758,-254.442 104.1757,-244.442 100.6758,-254.4421 107.6758,-254.442"/>
<text text-anchor="middle" x="108.256" y="-271.2746" font-family="Times,serif" font-size="14.00" fill="#000000">ϵ</text>
</g>
<!-- q3 -->
<g id="node6" class="node">
<title>q3</title>
<ellipse fill="none" stroke="#000000" cx="45.1757" cy="-119.7088" rx="20.8887" ry="20.8887"/>
<text text-anchor="middle" x="45.1757" y="-115.5088" font-family="Times,serif" font-size="14.00" fill="#000000">q3</text>
</g>
<!-- q2&#45;&gt;q3 -->
<g id="edge7" class="edge">
<title>q2&#45;&gt;q3</title>
<path fill="none" stroke="#000000" d="M45.1757,-202.5383C45.1757,-187.7592 45.1757,-167.7273 45.1757,-151.0654"/>
<polygon fill="#000000" stroke="#000000" points="48.6758,-150.6919 45.1757,-140.6919 41.6758,-150.692 48.6758,-150.6919"/>
<text text-anchor="middle" x="48.6757" y="-167.4308" font-family="Times,serif" font-size="14.00" fill="#000000">1</text>
</g>
<!-- q4 -->
<g id="node7" class="node">
<title>q4</title>
<ellipse fill="none" stroke="#000000" cx="33.1757" cy="-20.6935" rx="20.8887" ry="20.8887"/>
<text text-anchor="middle" x="33.1757" y="-16.4935" font-family="Times,serif" font-size="14.00" fill="#000000">q4</text>
</g>
<!-- q3&#45;&gt;q4 -->
<g id="edge8" class="edge">
<title>q3&#45;&gt;q4</title>
<path fill="none" stroke="#000000" d="M42.6308,-98.7102C40.9651,-84.9653 38.7603,-66.7731 36.8988,-51.4137"/>
<polygon fill="#000000" stroke="#000000" points="40.3536,-50.8285 35.6758,-41.3223 33.4045,-51.6708 40.3536,-50.8285"/>
<text text-anchor="middle" x="43.6757" y="-63.5869" font-family="Times,serif" font-size="14.00" fill="#000000">0</text>
</g>
<!-- q4&#45;&gt;q1 -->
<g id="edge11" class="edge">
<title>q4&#45;&gt;q1</title>
<path fill="none" stroke="#000000" d="M25.5753,-40.1308C10.8715,-80.9627 -17.2873,-177.7644 15.1757,-249.0746 27.134,-275.3429 52.8824,-296.1674 73.6224,-309.5849"/>
<polygon fill="#000000" stroke="#000000" points="71.807,-312.5775 82.1495,-314.876 75.4978,-306.6295 71.807,-312.5775"/>
<text text-anchor="middle" x="5.256" y="-167.4308" font-family="Times,serif" font-size="14.00" fill="#000000">ϵ</text>
</g>
<!-- q6 -->
<g id="node9" class="node">
<title>q6</title>
<ellipse fill="none" stroke="#000000" cx="104.1757" cy="-119.7088" rx="20.8887" ry="20.8887"/>
<text text-anchor="middle" x="104.1757" y="-115.5088" font-family="Times,serif" font-size="14.00" fill="#000000">q6</text>
</g>
<!-- q5&#45;&gt;q6 -->
<g id="edge9" class="edge">
<title>q5&#45;&gt;q6</title>
<path fill="none" stroke="#000000" d="M104.1757,-202.5383C104.1757,-187.7592 104.1757,-167.7273 104.1757,-151.0654"/>
<polygon fill="#000000" stroke="#000000" points="107.6758,-150.6919 104.1757,-140.6919 100.6758,-150.692 107.6758,-150.6919"/>
<text text-anchor="middle" x="107.6757" y="-167.4308" font-family="Times,serif" font-size="14.00" fill="#000000">0</text>
</g>
<!-- q7 -->
<g id="node10" class="node">
<title>q7</title>
<ellipse fill="none" stroke="#000000" cx="116.1757" cy="-20.6935" rx="20.8887" ry="20.8887"/>
<text text-anchor="middle" x="116.1757" y="-16.4935" font-family="Times,serif" font-size="14.00" fill="#000000">q7</text>
</g>
<!-- q6&#45;&gt;q7 -->
<g id="edge10" class="edge">
<title>q6&#45;&gt;q7</title>
<path fill="none" stroke="#000000" d="M106.7206,-98.7102C108.3864,-84.9653 110.5912,-66.7731 112.4527,-51.4137"/>
<polygon fill="#000000" stroke="#000000" points="115.947,-51.6708 113.6757,-41.3223 108.9979,-50.8285 115.947,-51.6708"/>
<text text-anchor="middle" x="115.6757" y="-63.5869" font-family="Times,serif" font-size="14.00" fill="#000000">1</text>
</g>
<!-- q7&#45;&gt;q1 -->
<g id="edge12" class="edge">
<title>q7&#45;&gt;q1</title>
<path fill="none" stroke="#000000" d="M122.4659,-40.7288C126.7215,-55.3707 131.9566,-75.798 134.1757,-94.1869 142.4232,-162.53 146.8168,-181.4062 134.1757,-249.0746 131.2765,-264.5943 125.3736,-281.0068 119.565,-294.7125"/>
<polygon fill="#000000" stroke="#000000" points="116.2301,-293.6005 115.3963,-304.1625 122.6347,-296.4257 116.2301,-293.6005"/>
<text text-anchor="middle" x="146.256" y="-167.4308" font-family="Times,serif" font-size="14.00" fill="#000000">ϵ</text>
</g>
<!-- q9 -->
<g id="node12" class="node">
<title>q9</title>
<ellipse fill="none" stroke="#000000" cx="251.1757" cy="-326.5681" rx="20.8568" ry="20.8568"/>
<ellipse fill="none" stroke="#000000" cx="251.1757" cy="-326.5681" rx="24.8884" ry="24.8884"/>
<text text-anchor="middle" x="251.1757" y="-322.3681" font-family="Times,serif" font-size="14.00" fill="#000000">q9</text>
</g>
<!-- q8&#45;&gt;q9 -->
<g id="edge13" class="edge">
<title>q8&#45;&gt;q9</title>
<path fill="none" stroke="#000000" d="M242.5086,-403.932C243.899,-391.5204 245.6992,-375.4517 247.2984,-361.1773"/>
<polygon fill="#000000" stroke="#000000" points="250.7834,-361.506 248.4186,-351.1785 243.8269,-360.7266 250.7834,-361.506"/>
<text text-anchor="middle" x="250.6757" y="-373.4615" font-family="Times,serif" font-size="14.00" fill="#000000">0</text>
</g>
<!-- q10 -->
<g id="node13" class="node">
<title>q10</title>
<ellipse fill="none" stroke="#000000" cx="251.1757" cy="-223.5527" rx="25.5439" ry="25.5439"/>
<text text-anchor="middle" x="251.1757" y="-219.3527" font-family="Times,serif" font-size="14.00" fill="#000000">q10</text>
</g>
<!-- q9&#45;&gt;q10 -->
<g id="edge14" class="edge">
<title>q9&#45;&gt;q10</title>
<path fill="none" stroke="#000000" d="M251.1757,-301.6309C251.1757,-289.009 251.1757,-273.4556 251.1757,-259.5615"/>
<polygon fill="#000000" stroke="#000000" points="254.6758,-259.336 251.1757,-249.336 247.6758,-259.336 254.6758,-259.336"/>
<text text-anchor="middle" x="254.6757" y="-271.2746" font-family="Times,serif" font-size="14.00" fill="#000000">1</text>
</g>
<!-- q12 -->
<g id="node15" class="node">
<title>q12</title>
<ellipse fill="none" stroke="#000000" cx="320.1757" cy="-223.5527" rx="25.5439" ry="25.5439"/>
<text text-anchor="middle" x="320.1757" y="-219.3527" font-family="Times,serif" font-size="14.00" fill="#000000">q12</text>
</g>
<!-- q9&#45;&gt;q12 -->
<g id="edge15" class="edge">
<title>q9&#45;&gt;q12</title>
<path fill="none" stroke="#000000" d="M265.1389,-305.7214C275.199,-290.7019 288.922,-270.2137 300.1481,-253.4535"/>
<polygon fill="#000000" stroke="#000000" points="303.1012,-255.3338 305.7583,-245.0775 297.2853,-251.4382 303.1012,-255.3338"/>
<text text-anchor="middle" x="293.6757" y="-271.2746" font-family="Times,serif" font-size="14.00" fill="#000000">1</text>
</g>
<!-- q11 -->
<g id="node14" class="node">
<title>q11</title>
<ellipse fill="none" stroke="#000000" cx="225.1757" cy="-119.7088" rx="25.5439" ry="25.5439"/>
<text text-anchor="middle" x="225.1757" y="-115.5088" font-family="Times,serif" font-size="14.00" fill="#000000">q11</text>
</g>
<!-- q10&#45;&gt;q11 -->
<g id="edge16" class="edge">
<title>q10&#45;&gt;q11</title>
<path fill="none" stroke="#000000" d="M244.9481,-198.6795C241.6599,-185.5464 237.5697,-169.2102 233.9641,-154.8094"/>
<polygon fill="#000000" stroke="#000000" points="237.2667,-153.5894 231.4427,-144.739 230.4763,-155.2896 237.2667,-153.5894"/>
<text text-anchor="middle" x="243.6757" y="-167.4308" font-family="Times,serif" font-size="14.00" fill="#000000">1</text>
</g>
<!-- q11&#45;&gt;q9 -->
<g id="edge18" class="edge">
<title>q11&#45;&gt;q9</title>
<path fill="none" stroke="#000000" d="M216.5012,-143.8892C208.3451,-170.1344 198.6756,-213.1116 208.0151,-249.0746 212.5241,-266.4369 221.8657,-284.0432 230.7086,-298.0768"/>
<polygon fill="#000000" stroke="#000000" points="227.9816,-300.3009 236.3918,-306.7444 233.8355,-296.4626 227.9816,-300.3009"/>
<text text-anchor="middle" x="212.256" y="-219.3527" font-family="Times,serif" font-size="14.00" fill="#000000">ϵ</text>
</g>
<!-- q13 -->
<g id="node16" class="node">
<title>q13</title>
<ellipse fill="none" stroke="#000000" cx="361.1757" cy="-119.7088" rx="25.5439" ry="25.5439"/>
<text text-anchor="middle" x="361.1757" y="-115.5088" font-family="Times,serif" font-size="14.00" fill="#000000">q13</text>
</g>
<!-- q12&#45;&gt;q13 -->
<g id="edge17" class="edge">
<title>q12&#45;&gt;q13</title>
<path fill="none" stroke="#000000" d="M329.582,-199.7288C335.0122,-185.9753 341.9286,-168.4576 347.9048,-153.321"/>
<polygon fill="#000000" stroke="#000000" points="351.2543,-154.3681 351.6713,-143.7815 344.7434,-151.7974 351.2543,-154.3681"/>
<text text-anchor="middle" x="346.6757" y="-167.4308" font-family="Times,serif" font-size="14.00" fill="#000000">0</text>
</g>
<!-- q13&#45;&gt;q9 -->
<g id="edge19" class="edge">
<title>q13&#45;&gt;q9</title>
<path fill="none" stroke="#000000" d="M366.1112,-145.2069C370.073,-172.5788 372.4765,-216.5124 355.1757,-249.0746 339.6933,-278.2146 307.8561,-299.3867 283.4622,-312.1642"/>
<polygon fill="#000000" stroke="#000000" points="281.5688,-309.1982 274.197,-316.8079 284.7053,-315.4562 281.5688,-309.1982"/>
<text text-anchor="middle" x="373.256" y="-219.3527" font-family="Times,serif" font-size="14.00" fill="#000000">ϵ</text>
</g>
</g>
</svg>
