<?xml version="1.0" encoding="UTF-8" standalone="no"?>
<!DOCTYPE svg PUBLIC "-//W3C//DTD SVG 1.1//EN"
 "http://www.w3.org/Graphics/SVG/1.1/DTD/svg11.dtd">
<!-- Generated by graphviz version 2.40.1 (20161225.0304)
 -->
<!-- Title: nfa Pages: 1 -->
<svg width="157pt" height="1145pt"
 viewBox="0.00 0.00 157.39 1144.81" xmlns="http://www.w3.org/2000/svg" xmlns:xlink="http://www.w3.org/1999/xlink">
<g id="graph0" class="graph" transform="scale(1 1) rotate(0) translate(4 1140.8121)">
<title>nfa</title>
<polygon fill="#ffffff" stroke="transparent" points="-4,4 -4,-1140.8121 153.3869,-1140.8121 153.3869,4 -4,4"/>
<g id="node1" class="node">
<title></title>
</g>
<!-- Qs -->
<g id="node2" class="node">
<title>Qs</title>
<ellipse fill="none" stroke="#000000" cx="69.6935" cy="-1026.2486" rx="21.5294" ry="21.5294"/>
<text text-anchor="middle" x="69.6935" y="-1022.0486" font-family="Times,serif" font-size="14.00" fill="#000000">Qs</text>
</g>
<!-- &#45;&gt;Qs -->
<g id="edge1" class="edge">
<title>&#45;&gt;Qs</title>
<path fill="none" stroke="#000000" d="M69.6935,-1100.5245C69.6935,-1088.5168 69.6935,-1072.482 69.6935,-1058.3845"/>
<polygon fill="#000000" stroke="#000000" points="73.1935,-1058.0804 69.6935,-1048.0805 66.1935,-1058.0805 73.1935,-1058.0804"/>
<text text-anchor="middle" x="81.744" y="-1070.2121" font-family="Times,serif" font-size="14.00" fill="#000000">start</text>
</g>
<!-- q0 -->
<g id="node3" class="node">
<title>q0</title>
<ellipse fill="none" stroke="#000000" cx="44.6935" cy="-930.9917" rx="20.8887" ry="20.8887"/>
<text text-anchor="middle" x="44.6935" y="-926.7917" font-family="Times,serif" font-size="14.00" fill="#000000">q0</text>
</g>
<!-- Qs&#45;&gt;q0 -->
<g id="edge2" class="edge">
<title>Qs&#45;&gt;q0</title>
<path fill="none" stroke="#000000" d="M64.1451,-1005.108C60.7419,-992.1409 56.3307,-975.3328 52.5696,-961.002"/>
<polygon fill="#000000" stroke="#000000" points="55.8935,-959.879 49.9695,-951.0951 49.1228,-961.656 55.8935,-959.879"/>
<text text-anchor="middle" x="62.1935" y="-973.8852" font-family="Times,serif" font-size="14.00" fill="#000000">0</text>
</g>
<!-- q1 -->
<g id="node4" class="node">
<title>q1</title>
<ellipse fill="none" stroke="#000000" cx="44.6935" cy="-836.8048" rx="20.8887" ry="20.8887"/>
<text text-anchor="middle" x="44.6935" y="-832.6048" font-family="Times,serif" font-size="14.00" fill="#000000">q1</text>
</g>
<!-- q0&#45;&gt;q1 -->
<g id="edge3" class="edge">
<title>q0&#45;&gt;q1</title>
<path fill="none" stroke="#000000" d="M44.6935,-910.0886C44.6935,-897.6507 44.6935,-881.6389 44.6935,-867.7562"/>
<polygon fill="#000000" stroke="#000000" points="48.1936,-867.6495 44.6935,-857.6495 41.1936,-867.6496 48.1936,-867.6495"/>
<text text-anchor="middle" x="48.1935" y="-879.6983" font-family="Times,serif" font-size="14.00" fill="#000000">0</text>
</g>
<!-- q2 -->
<g id="node5" class="node">
<title>q2</title>
<ellipse fill="none" stroke="#000000" cx="69.6935" cy="-742.6179" rx="20.8887" ry="20.8887"/>
<text text-anchor="middle" x="69.6935" y="-738.4179" font-family="Times,serif" font-size="14.00" fill="#000000">q2</text>
</g>
<!-- q1&#45;&gt;q2 -->
<g id="edge4" class="edge">
<title>q1&#45;&gt;q2</title>
<path fill="none" stroke="#000000" d="M50.1181,-816.3677C53.5155,-803.5679 57.9527,-786.8509 61.7434,-772.5694"/>
<polygon fill="#000000" stroke="#000000" points="65.1826,-773.2549 64.3653,-762.6916 58.4169,-771.459 65.1826,-773.2549"/>
<text text-anchor="middle" x="62.1935" y="-785.5114" font-family="Times,serif" font-size="14.00" fill="#000000">0</text>
</g>
<!-- q2&#45;&gt;Qs -->
<g id="edge5" class="edge">
<title>q2&#45;&gt;Qs</title>
<path fill="none" stroke="#000000" d="M71.4937,-763.5066C72.6676,-778.205 74.0898,-798.3452 74.6935,-816.1114 76.7396,-876.3317 76.7103,-891.4639 74.6935,-951.6852 74.224,-965.7026 73.2595,-981.1773 72.3016,-994.3791"/>
<polygon fill="#000000" stroke="#000000" points="68.8073,-994.1731 71.5445,-1004.4082 75.7875,-994.7001 68.8073,-994.1731"/>
<text text-anchor="middle" x="80.7738" y="-879.6983" font-family="Times,serif" font-size="14.00" fill="#000000">ϵ</text>
</g>
<!-- q3 -->
<g id="node6" class="node">
<title>q3</title>
<ellipse fill="none" stroke="#000000" cx="20.6935" cy="-589.0441" rx="20.8887" ry="20.8887"/>
<text text-anchor="middle" x="20.6935" y="-584.8441" font-family="Times,serif" font-size="14.00" fill="#000000">q3</text>
</g>
<!-- q2&#45;&gt;q3 -->
<g id="edge6" class="edge">
<title>q2&#45;&gt;q3</title>
<path fill="none" stroke="#000000" d="M60.9704,-723.5767C54.487,-708.9137 45.7522,-688.0222 39.6935,-669.1245 34.5186,-652.9837 30.0599,-634.6066 26.7648,-619.5315"/>
<polygon fill="#000000" stroke="#000000" points="30.176,-618.7453 24.675,-609.6905 23.3286,-620.1995 30.176,-618.7453"/>
<text text-anchor="middle" x="56.7738" y="-691.3245" font-family="Times,serif" font-size="14.00" fill="#000000">ϵ</text>
</g>
<!-- q4 -->
<g id="node7" class="node">
<title>q4</title>
<ellipse fill="none" stroke="#000000" cx="69.6935" cy="-648.431" rx="20.8887" ry="20.8887"/>
<text text-anchor="middle" x="69.6935" y="-644.231" font-family="Times,serif" font-size="14.00" fill="#000000">q4</text>
</g>
<!-- q2&#45;&gt;q4 -->
<g id="edge7" class="edge">
<title>q2&#45;&gt;q4</title>
<path fill="none" stroke="#000000" d="M69.6935,-721.7148C69.6935,-709.2769 69.6935,-693.2651 69.6935,-679.3824"/>
<polygon fill="#000000" stroke="#000000" points="73.1936,-679.2757 69.6935,-669.2757 66.1936,-679.2758 73.1936,-679.2757"/>
<text text-anchor="middle" x="73.7738" y="-691.3245" font-family="Times,serif" font-size="14.00" fill="#000000">ϵ</text>
</g>
<!-- q5 -->
<g id="node8" class="node">
<title>q5</title>
<ellipse fill="none" stroke="#000000" cx="128.6935" cy="-648.431" rx="20.8887" ry="20.8887"/>
<text text-anchor="middle" x="128.6935" y="-644.231" font-family="Times,serif" font-size="14.00" fill="#000000">q5</text>
</g>
<!-- q2&#45;&gt;q5 -->
<g id="edge8" class="edge">
<title>q2&#45;&gt;q5</title>
<path fill="none" stroke="#000000" d="M80.7909,-724.9021C89.6086,-710.8256 102.0785,-690.9187 112.085,-674.9445"/>
<polygon fill="#000000" stroke="#000000" points="115.3032,-676.4001 117.6458,-666.0674 109.371,-672.684 115.3032,-676.4001"/>
<text text-anchor="middle" x="106.7738" y="-691.3245" font-family="Times,serif" font-size="14.00" fill="#000000">ϵ</text>
</g>
<!-- Qf -->
<g id="node16" class="node">
<title>Qf</title>
<ellipse fill="none" stroke="#000000" cx="69.6935" cy="-336.7542" rx="21.4117" ry="21.4117"/>
<ellipse fill="none" stroke="#000000" cx="69.6935" cy="-336.7542" rx="25.4473" ry="25.4473"/>
<text text-anchor="middle" x="69.6935" y="-332.5542" font-family="Times,serif" font-size="14.00" fill="#000000">Qf</text>
</g>
<!-- q3&#45;&gt;Qf -->
<g id="edge9" class="edge">
<title>q3&#45;&gt;Qf</title>
<path fill="none" stroke="#000000" d="M21.2361,-568.089C22.4788,-535.0563 26.5359,-469.0512 39.6935,-414.7769 43.4078,-399.4554 49.3719,-383.0876 55.0076,-369.3204"/>
<polygon fill="#000000" stroke="#000000" points="58.3583,-370.382 59.0163,-359.8076 51.9076,-367.6636 58.3583,-370.382"/>
<text text-anchor="middle" x="33.7738" y="-478.3638" font-family="Times,serif" font-size="14.00" fill="#000000">ϵ</text>
</g>
<!-- q6 -->
<g id="node9" class="node">
<title>q6</title>
<ellipse fill="none" stroke="#000000" cx="69.6935" cy="-529.6572" rx="20.8887" ry="20.8887"/>
<text text-anchor="middle" x="69.6935" y="-525.4572" font-family="Times,serif" font-size="14.00" fill="#000000">q6</text>
</g>
<!-- q4&#45;&gt;q6 -->
<g id="edge10" class="edge">
<title>q4&#45;&gt;q6</title>
<path fill="none" stroke="#000000" d="M69.6935,-627.4701C69.6935,-608.8973 69.6935,-581.5373 69.6935,-560.4731"/>
<polygon fill="#000000" stroke="#000000" points="73.1936,-560.4086 69.6935,-550.4086 66.1936,-560.4087 73.1936,-560.4086"/>
<text text-anchor="middle" x="73.1935" y="-584.8441" font-family="Times,serif" font-size="14.00" fill="#000000">0</text>
</g>
<!-- q8 -->
<g id="node11" class="node">
<title>q8</title>
<ellipse fill="none" stroke="#000000" cx="128.6935" cy="-529.6572" rx="20.8887" ry="20.8887"/>
<text text-anchor="middle" x="128.6935" y="-525.4572" font-family="Times,serif" font-size="14.00" fill="#000000">q8</text>
</g>
<!-- q5&#45;&gt;q8 -->
<g id="edge13" class="edge">
<title>q5&#45;&gt;q8</title>
<path fill="none" stroke="#000000" d="M128.6935,-627.4701C128.6935,-608.8973 128.6935,-581.5373 128.6935,-560.4731"/>
<polygon fill="#000000" stroke="#000000" points="132.1936,-560.4086 128.6935,-550.4086 125.1936,-560.4087 132.1936,-560.4086"/>
<text text-anchor="middle" x="132.1935" y="-584.8441" font-family="Times,serif" font-size="14.00" fill="#000000">0</text>
</g>
<!-- q7 -->
<g id="node10" class="node">
<title>q7</title>
<ellipse fill="none" stroke="#000000" cx="69.6935" cy="-435.4703" rx="20.8887" ry="20.8887"/>
<text text-anchor="middle" x="69.6935" y="-431.2703" font-family="Times,serif" font-size="14.00" fill="#000000">q7</text>
</g>
<!-- q6&#45;&gt;q7 -->
<g id="edge11" class="edge">
<title>q6&#45;&gt;q7</title>
<path fill="none" stroke="#000000" d="M69.6935,-508.7541C69.6935,-496.3162 69.6935,-480.3044 69.6935,-466.4217"/>
<polygon fill="#000000" stroke="#000000" points="73.1936,-466.315 69.6935,-456.315 66.1936,-466.315 73.1936,-466.315"/>
<text text-anchor="middle" x="73.1935" y="-478.3638" font-family="Times,serif" font-size="14.00" fill="#000000">1</text>
</g>
<!-- q7&#45;&gt;Qf -->
<g id="edge12" class="edge">
<title>q7&#45;&gt;Qf</title>
<path fill="none" stroke="#000000" d="M69.6935,-414.5352C69.6935,-402.3582 69.6935,-386.68 69.6935,-372.5935"/>
<polygon fill="#000000" stroke="#000000" points="73.1935,-372.2161 69.6935,-362.2162 66.1935,-372.2162 73.1935,-372.2161"/>
<text text-anchor="middle" x="73.1935" y="-384.1769" font-family="Times,serif" font-size="14.00" fill="#000000">1</text>
</g>
<!-- q9 -->
<g id="node12" class="node">
<title>q9</title>
<ellipse fill="none" stroke="#000000" cx="128.6935" cy="-435.4703" rx="20.8887" ry="20.8887"/>
<text text-anchor="middle" x="128.6935" y="-431.2703" font-family="Times,serif" font-size="14.00" fill="#000000">q9</text>
</g>
<!-- q8&#45;&gt;q9 -->
<g id="edge14" class="edge">
<title>q8&#45;&gt;q9</title>
<path fill="none" stroke="#000000" d="M128.6935,-508.7541C128.6935,-496.3162 128.6935,-480.3044 128.6935,-466.4217"/>
<polygon fill="#000000" stroke="#000000" points="132.1936,-466.315 128.6935,-456.315 125.1936,-466.315 132.1936,-466.315"/>
<text text-anchor="middle" x="132.1935" y="-478.3638" font-family="Times,serif" font-size="14.00" fill="#000000">0</text>
</g>
<!-- q9&#45;&gt;Qf -->
<g id="edge15" class="edge">
<title>q9&#45;&gt;Qf</title>
<path fill="none" stroke="#000000" d="M117.8719,-417.3643C109.5073,-403.369 97.7391,-383.6789 87.9275,-367.2627"/>
<polygon fill="#000000" stroke="#000000" points="90.8466,-365.3244 82.712,-358.5363 84.838,-368.9156 90.8466,-365.3244"/>
<text text-anchor="middle" x="107.1935" y="-384.1769" font-family="Times,serif" font-size="14.00" fill="#000000">1</text>
</g>
<!-- q10 -->
<g id="node13" class="node">
<title>q10</title>
<ellipse fill="none" stroke="#000000" cx="107.6935" cy="-233.2096" rx="25.5439" ry="25.5439"/>
<text text-anchor="middle" x="107.6935" y="-229.0096" font-family="Times,serif" font-size="14.00" fill="#000000">q10</text>
</g>
<!-- q11 -->
<g id="node14" class="node">
<title>q11</title>
<ellipse fill="none" stroke="#000000" cx="107.6935" cy="-129.3658" rx="25.5439" ry="25.5439"/>
<text text-anchor="middle" x="107.6935" y="-125.1658" font-family="Times,serif" font-size="14.00" fill="#000000">q11</text>
</g>
<!-- q10&#45;&gt;q11 -->
<g id="edge17" class="edge">
<title>q10&#45;&gt;q11</title>
<path fill="none" stroke="#000000" d="M107.6935,-207.5404C107.6935,-194.8093 107.6935,-179.2207 107.6935,-165.3227"/>
<polygon fill="#000000" stroke="#000000" points="111.1936,-165.0996 107.6935,-155.0996 104.1936,-165.0997 111.1936,-165.0996"/>
<text text-anchor="middle" x="111.1935" y="-177.0877" font-family="Times,serif" font-size="14.00" fill="#000000">1</text>
</g>
<!-- q12 -->
<g id="node15" class="node">
<title>q12</title>
<ellipse fill="none" stroke="#000000" cx="69.6935" cy="-25.5219" rx="25.5439" ry="25.5439"/>
<text text-anchor="middle" x="69.6935" y="-21.3219" font-family="Times,serif" font-size="14.00" fill="#000000">q12</text>
</g>
<!-- q11&#45;&gt;q12 -->
<g id="edge18" class="edge">
<title>q11&#45;&gt;q12</title>
<path fill="none" stroke="#000000" d="M98.88,-105.2809C93.8801,-91.6174 87.5439,-74.3025 82.0538,-59.2996"/>
<polygon fill="#000000" stroke="#000000" points="85.3142,-58.0241 78.5908,-49.8359 78.7405,-60.4297 85.3142,-58.0241"/>
<text text-anchor="middle" x="95.1935" y="-73.2439" font-family="Times,serif" font-size="14.00" fill="#000000">1</text>
</g>
<!-- q12&#45;&gt;Qf -->
<g id="edge19" class="edge">
<title>q12&#45;&gt;Qf</title>
<path fill="none" stroke="#000000" d="M69.6935,-51.3433C69.6935,-106.833 69.6935,-237.5473 69.6935,-300.9791"/>
<polygon fill="#000000" stroke="#000000" points="66.1935,-301.2847 69.6935,-311.2848 73.1935,-301.2848 66.1935,-301.2847"/>
<text text-anchor="middle" x="73.7738" y="-177.0877" font-family="Times,serif" font-size="14.00" fill="#000000">ϵ</text>
</g>
<!-- Qf&#45;&gt;q10 -->
<g id="edge16" class="edge">
<title>Qf&#45;&gt;q10</title>
<path fill="none" stroke="#000000" d="M78.4114,-312.999C83.4443,-299.2851 89.8546,-281.8179 95.3936,-266.725"/>
<polygon fill="#000000" stroke="#000000" points="98.7249,-267.8065 98.8845,-257.2129 92.1534,-265.3948 98.7249,-267.8065"/>
<text text-anchor="middle" x="95.1935" y="-280.9316" font-family="Times,serif" font-size="14.00" fill="#000000">1</text>
</g>
</g>
</svg>
