<?xml version="1.0" encoding="UTF-8" standalone="no"?>
<!DOCTYPE svg PUBLIC "-//W3C//DTD SVG 1.1//EN"
 "http://www.w3.org/Graphics/SVG/1.1/DTD/svg11.dtd">
<!-- Generated by graphviz version 2.40.1 (20161225.0304)
 -->
<!-- Title: nfa Pages: 1 -->
<svg width="552pt" height="745pt"
 viewBox="0.00 0.00 551.85 745.09" xmlns="http://www.w3.org/2000/svg" xmlns:xlink="http://www.w3.org/1999/xlink">
<g id="graph0" class="graph" transform="scale(1 1) rotate(0) translate(4 741.0922)">
<title>nfa</title>
<polygon fill="#ffffff" stroke="transparent" points="-4,4 -4,-741.0922 547.8541,-741.0922 547.8541,4 -4,4"/>
<g id="node1" class="node">
<title></title>
</g>
<!-- Qs -->
<g id="node2" class="node">
<title>Qs</title>
<ellipse fill="none" stroke="#000000" cx="252.6935" cy="-622.5288" rx="21.5654" ry="21.5654"/>
<ellipse fill="none" stroke="#000000" cx="252.6935" cy="-622.5288" rx="25.529" ry="25.529"/>
<text text-anchor="middle" x="252.6935" y="-618.3288" font-family="Times,serif" font-size="14.00" fill="#000000">Qs</text>
</g>
<!-- &#45;&gt;Qs -->
<g id="edge1" class="edge">
<title>&#45;&gt;Qs</title>
<path fill="none" stroke="#000000" d="M252.6935,-700.9294C252.6935,-689.0595 252.6935,-673.1459 252.6935,-658.7579"/>
<polygon fill="#000000" stroke="#000000" points="256.1936,-658.6304 252.6935,-648.6304 249.1936,-658.6305 256.1936,-658.6304"/>
<text text-anchor="middle" x="264.744" y="-670.4922" font-family="Times,serif" font-size="14.00" fill="#000000">start</text>
</g>
<!-- q0 -->
<g id="node3" class="node">
<title>q0</title>
<ellipse fill="none" stroke="#000000" cx="118.6935" cy="-518.4434" rx="20.8887" ry="20.8887"/>
<text text-anchor="middle" x="118.6935" y="-514.2434" font-family="Times,serif" font-size="14.00" fill="#000000">q0</text>
</g>
<!-- Qs&#45;&gt;q0 -->
<g id="edge2" class="edge">
<title>Qs&#45;&gt;q0</title>
<path fill="none" stroke="#000000" d="M232.3417,-606.7205C208.5297,-588.2243 169.1115,-557.606 143.5223,-537.7294"/>
<polygon fill="#000000" stroke="#000000" points="145.4614,-534.8038 135.4169,-531.4335 141.1673,-540.332 145.4614,-534.8038"/>
<text text-anchor="middle" x="198.7738" y="-566.1654" font-family="Times,serif" font-size="14.00" fill="#000000">ϵ</text>
</g>
<!-- q7 -->
<g id="node10" class="node">
<title>q7</title>
<ellipse fill="none" stroke="#000000" cx="252.6935" cy="-518.4434" rx="20.8887" ry="20.8887"/>
<text text-anchor="middle" x="252.6935" y="-514.2434" font-family="Times,serif" font-size="14.00" fill="#000000">q7</text>
</g>
<!-- Qs&#45;&gt;q7 -->
<g id="edge3" class="edge">
<title>Qs&#45;&gt;q7</title>
<path fill="none" stroke="#000000" d="M252.6935,-596.5322C252.6935,-582.2869 252.6935,-564.5338 252.6935,-549.556"/>
<polygon fill="#000000" stroke="#000000" points="256.1935,-549.2301 252.6935,-539.2302 249.1935,-549.2302 256.1935,-549.2301"/>
<text text-anchor="middle" x="256.7738" y="-566.1654" font-family="Times,serif" font-size="14.00" fill="#000000">ϵ</text>
</g>
<!-- q14 -->
<g id="node17" class="node">
<title>q14</title>
<ellipse fill="none" stroke="#000000" cx="422.6935" cy="-518.4434" rx="25.5439" ry="25.5439"/>
<text text-anchor="middle" x="422.6935" y="-514.2434" font-family="Times,serif" font-size="14.00" fill="#000000">q14</text>
</g>
<!-- Qs&#45;&gt;q14 -->
<g id="edge4" class="edge">
<title>Qs&#45;&gt;q14</title>
<path fill="none" stroke="#000000" d="M274.918,-608.9214C304.9084,-590.5593 358.4556,-557.7742 392.1937,-537.1174"/>
<polygon fill="#000000" stroke="#000000" points="394.032,-540.0958 400.7329,-531.8892 390.3768,-534.1259 394.032,-540.0958"/>
<text text-anchor="middle" x="352.7738" y="-566.1654" font-family="Times,serif" font-size="14.00" fill="#000000">ϵ</text>
</g>
<!-- q1 -->
<g id="node4" class="node">
<title>q1</title>
<ellipse fill="none" stroke="#000000" cx="25.6935" cy="-414.5996" rx="20.8887" ry="20.8887"/>
<text text-anchor="middle" x="25.6935" y="-410.3996" font-family="Times,serif" font-size="14.00" fill="#000000">q1</text>
</g>
<!-- q0&#45;&gt;q1 -->
<g id="edge5" class="edge">
<title>q0&#45;&gt;q1</title>
<path fill="none" stroke="#000000" d="M104.5688,-502.6718C89.1163,-485.4176 64.1946,-457.5899 46.5033,-437.8359"/>
<polygon fill="#000000" stroke="#000000" points="48.9251,-435.2937 39.6464,-430.1794 43.7105,-439.9637 48.9251,-435.2937"/>
<text text-anchor="middle" x="82.7738" y="-462.3215" font-family="Times,serif" font-size="14.00" fill="#000000">ϵ</text>
</g>
<!-- q4 -->
<g id="node7" class="node">
<title>q4</title>
<ellipse fill="none" stroke="#000000" cx="86.6935" cy="-414.5996" rx="20.8887" ry="20.8887"/>
<text text-anchor="middle" x="86.6935" y="-410.3996" font-family="Times,serif" font-size="14.00" fill="#000000">q4</text>
</g>
<!-- q0&#45;&gt;q4 -->
<g id="edge9" class="edge">
<title>q0&#45;&gt;q4</title>
<path fill="none" stroke="#000000" d="M112.5235,-498.4213C107.7867,-483.0497 101.1732,-461.588 95.8241,-444.2295"/>
<polygon fill="#000000" stroke="#000000" points="99.1342,-443.0861 92.8444,-434.5602 92.4446,-445.1475 99.1342,-443.0861"/>
<text text-anchor="middle" x="108.7738" y="-462.3215" font-family="Times,serif" font-size="14.00" fill="#000000">ϵ</text>
</g>
<!-- q2 -->
<g id="node5" class="node">
<title>q2</title>
<ellipse fill="none" stroke="#000000" cx="20.6935" cy="-276.5119" rx="20.8887" ry="20.8887"/>
<text text-anchor="middle" x="20.6935" y="-272.3119" font-family="Times,serif" font-size="14.00" fill="#000000">q2</text>
</g>
<!-- q1&#45;&gt;q2 -->
<g id="edge6" class="edge">
<title>q1&#45;&gt;q2</title>
<path fill="none" stroke="#000000" d="M24.9341,-393.627C24.1033,-370.683 22.7634,-333.6789 21.8123,-307.4106"/>
<polygon fill="#000000" stroke="#000000" points="25.3033,-307.0961 21.4436,-297.2293 18.3078,-307.3495 25.3033,-307.0961"/>
<text text-anchor="middle" x="28.1935" y="-341.3557" font-family="Times,serif" font-size="14.00" fill="#000000">0</text>
</g>
<!-- q3 -->
<g id="node6" class="node">
<title>q3</title>
<ellipse fill="none" stroke="#000000" cx="20.6935" cy="-138.4242" rx="20.8887" ry="20.8887"/>
<text text-anchor="middle" x="20.6935" y="-134.2242" font-family="Times,serif" font-size="14.00" fill="#000000">q3</text>
</g>
<!-- q2&#45;&gt;q3 -->
<g id="edge7" class="edge">
<title>q2&#45;&gt;q3</title>
<path fill="none" stroke="#000000" d="M20.6935,-255.5393C20.6935,-232.5953 20.6935,-195.5912 20.6935,-169.3229"/>
<polygon fill="#000000" stroke="#000000" points="24.1936,-169.1416 20.6935,-159.1416 17.1936,-169.1417 24.1936,-169.1416"/>
<text text-anchor="middle" x="24.1935" y="-203.268" font-family="Times,serif" font-size="14.00" fill="#000000">1</text>
</g>
<!-- Qf1 -->
<g id="node25" class="node">
<title>Qf1</title>
<ellipse fill="none" stroke="#000000" cx="79.6935" cy="-30.0511" rx="26.0955" ry="26.0955"/>
<ellipse fill="none" stroke="#000000" cx="79.6935" cy="-30.0511" rx="30.1023" ry="30.1023"/>
<text text-anchor="middle" x="79.6935" y="-25.8511" font-family="Times,serif" font-size="14.00" fill="#000000">Qf1</text>
</g>
<!-- q3&#45;&gt;Qf1 -->
<g id="edge8" class="edge">
<title>q3&#45;&gt;Qf1</title>
<path fill="none" stroke="#000000" d="M30.702,-120.0402C38.7651,-105.2297 50.3445,-83.9603 60.2215,-65.8178"/>
<polygon fill="#000000" stroke="#000000" points="63.4962,-67.1226 65.2038,-56.6662 57.3482,-63.7755 63.4962,-67.1226"/>
<text text-anchor="middle" x="56.7738" y="-82.3023" font-family="Times,serif" font-size="14.00" fill="#000000">ϵ</text>
</g>
<!-- q5 -->
<g id="node8" class="node">
<title>q5</title>
<ellipse fill="none" stroke="#000000" cx="79.6935" cy="-276.5119" rx="20.8887" ry="20.8887"/>
<text text-anchor="middle" x="79.6935" y="-272.3119" font-family="Times,serif" font-size="14.00" fill="#000000">q5</text>
</g>
<!-- q4&#45;&gt;q5 -->
<g id="edge10" class="edge">
<title>q4&#45;&gt;q5</title>
<path fill="none" stroke="#000000" d="M85.6455,-393.9265C84.4856,-371.0465 82.6038,-333.9247 81.2669,-307.5503"/>
<polygon fill="#000000" stroke="#000000" points="84.7505,-307.1363 80.7486,-297.3263 77.7594,-307.4907 84.7505,-307.1363"/>
<text text-anchor="middle" x="88.1935" y="-341.3557" font-family="Times,serif" font-size="14.00" fill="#000000">1</text>
</g>
<!-- q6 -->
<g id="node9" class="node">
<title>q6</title>
<ellipse fill="none" stroke="#000000" cx="79.6935" cy="-138.4242" rx="20.8887" ry="20.8887"/>
<text text-anchor="middle" x="79.6935" y="-134.2242" font-family="Times,serif" font-size="14.00" fill="#000000">q6</text>
</g>
<!-- q5&#45;&gt;q6 -->
<g id="edge11" class="edge">
<title>q5&#45;&gt;q6</title>
<path fill="none" stroke="#000000" d="M79.6935,-255.5393C79.6935,-232.5953 79.6935,-195.5912 79.6935,-169.3229"/>
<polygon fill="#000000" stroke="#000000" points="83.1936,-169.1416 79.6935,-159.1416 76.1936,-169.1417 83.1936,-169.1416"/>
<text text-anchor="middle" x="83.1935" y="-203.268" font-family="Times,serif" font-size="14.00" fill="#000000">0</text>
</g>
<!-- q6&#45;&gt;Qf1 -->
<g id="edge12" class="edge">
<title>q6&#45;&gt;Qf1</title>
<path fill="none" stroke="#000000" d="M79.6935,-117.5288C79.6935,-104.2085 79.6935,-86.5061 79.6935,-70.5118"/>
<polygon fill="#000000" stroke="#000000" points="83.1936,-70.3111 79.6935,-60.3111 76.1936,-70.3111 83.1936,-70.3111"/>
<text text-anchor="middle" x="83.7738" y="-82.3023" font-family="Times,serif" font-size="14.00" fill="#000000">ϵ</text>
</g>
<!-- q8 -->
<g id="node11" class="node">
<title>q8</title>
<ellipse fill="none" stroke="#000000" cx="188.6935" cy="-414.5996" rx="20.8887" ry="20.8887"/>
<text text-anchor="middle" x="188.6935" y="-410.3996" font-family="Times,serif" font-size="14.00" fill="#000000">q8</text>
</g>
<!-- q7&#45;&gt;q8 -->
<g id="edge14" class="edge">
<title>q7&#45;&gt;q8</title>
<path fill="none" stroke="#000000" d="M241.5455,-500.3552C231.4506,-483.9757 216.452,-459.6394 205.0086,-441.0719"/>
<polygon fill="#000000" stroke="#000000" points="207.94,-439.1572 199.7137,-432.4805 201.9808,-442.8299 207.94,-439.1572"/>
<text text-anchor="middle" x="228.7738" y="-462.3215" font-family="Times,serif" font-size="14.00" fill="#000000">ϵ</text>
</g>
<!-- q11 -->
<g id="node14" class="node">
<title>q11</title>
<ellipse fill="none" stroke="#000000" cx="252.6935" cy="-414.5996" rx="25.5439" ry="25.5439"/>
<text text-anchor="middle" x="252.6935" y="-410.3996" font-family="Times,serif" font-size="14.00" fill="#000000">q11</text>
</g>
<!-- q7&#45;&gt;q11 -->
<g id="edge18" class="edge">
<title>q7&#45;&gt;q11</title>
<path fill="none" stroke="#000000" d="M252.6935,-497.4291C252.6935,-484.0427 252.6935,-466.3468 252.6935,-450.7491"/>
<polygon fill="#000000" stroke="#000000" points="256.1935,-450.3647 252.6935,-440.3647 249.1935,-450.3648 256.1935,-450.3647"/>
<text text-anchor="middle" x="256.7738" y="-462.3215" font-family="Times,serif" font-size="14.00" fill="#000000">ϵ</text>
</g>
<!-- q9 -->
<g id="node12" class="node">
<title>q9</title>
<ellipse fill="none" stroke="#000000" cx="188.6935" cy="-276.5119" rx="20.8887" ry="20.8887"/>
<text text-anchor="middle" x="188.6935" y="-272.3119" font-family="Times,serif" font-size="14.00" fill="#000000">q9</text>
</g>
<!-- q8&#45;&gt;q9 -->
<g id="edge15" class="edge">
<title>q8&#45;&gt;q9</title>
<path fill="none" stroke="#000000" d="M188.6935,-393.627C188.6935,-370.683 188.6935,-333.6789 188.6935,-307.4106"/>
<polygon fill="#000000" stroke="#000000" points="192.1936,-307.2293 188.6935,-297.2293 185.1936,-307.2294 192.1936,-307.2293"/>
<text text-anchor="middle" x="192.1935" y="-341.3557" font-family="Times,serif" font-size="14.00" fill="#000000">0</text>
</g>
<!-- q10 -->
<g id="node13" class="node">
<title>q10</title>
<ellipse fill="none" stroke="#000000" cx="190.6935" cy="-138.4242" rx="25.5439" ry="25.5439"/>
<text text-anchor="middle" x="190.6935" y="-134.2242" font-family="Times,serif" font-size="14.00" fill="#000000">q10</text>
</g>
<!-- q9&#45;&gt;q10 -->
<g id="edge16" class="edge">
<title>q9&#45;&gt;q10</title>
<path fill="none" stroke="#000000" d="M188.9972,-255.5393C189.3084,-234.0542 189.7981,-200.2401 190.1716,-174.4575"/>
<polygon fill="#000000" stroke="#000000" points="193.6732,-174.361 190.3185,-164.3113 186.674,-174.2595 193.6732,-174.361"/>
<text text-anchor="middle" x="194.1935" y="-203.268" font-family="Times,serif" font-size="14.00" fill="#000000">0</text>
</g>
<!-- Qf2 -->
<g id="node26" class="node">
<title>Qf2</title>
<ellipse fill="none" stroke="#000000" cx="259.6935" cy="-30.0511" rx="26.0955" ry="26.0955"/>
<ellipse fill="none" stroke="#000000" cx="259.6935" cy="-30.0511" rx="30.1023" ry="30.1023"/>
<text text-anchor="middle" x="259.6935" y="-25.8511" font-family="Times,serif" font-size="14.00" fill="#000000">Qf2</text>
</g>
<!-- q10&#45;&gt;Qf2 -->
<g id="edge17" class="edge">
<title>q10&#45;&gt;Qf2</title>
<path fill="none" stroke="#000000" d="M204.4908,-116.7537C214.069,-101.71 227.0256,-81.36 237.9793,-64.1559"/>
<polygon fill="#000000" stroke="#000000" points="241.0779,-65.806 243.4963,-55.4908 235.1731,-62.0464 241.0779,-65.806"/>
<text text-anchor="middle" x="231.7738" y="-82.3023" font-family="Times,serif" font-size="14.00" fill="#000000">ϵ</text>
</g>
<!-- q12 -->
<g id="node15" class="node">
<title>q12</title>
<ellipse fill="none" stroke="#000000" cx="252.6935" cy="-276.5119" rx="25.5439" ry="25.5439"/>
<text text-anchor="middle" x="252.6935" y="-272.3119" font-family="Times,serif" font-size="14.00" fill="#000000">q12</text>
</g>
<!-- q11&#45;&gt;q12 -->
<g id="edge19" class="edge">
<title>q11&#45;&gt;q12</title>
<path fill="none" stroke="#000000" d="M252.6935,-388.95C252.6935,-367.4804 252.6935,-336.5965 252.6935,-312.6268"/>
<polygon fill="#000000" stroke="#000000" points="256.1936,-312.4927 252.6935,-302.4927 249.1936,-312.4928 256.1936,-312.4927"/>
<text text-anchor="middle" x="256.1935" y="-341.3557" font-family="Times,serif" font-size="14.00" fill="#000000">1</text>
</g>
<!-- q13 -->
<g id="node16" class="node">
<title>q13</title>
<ellipse fill="none" stroke="#000000" cx="259.6935" cy="-138.4242" rx="25.5439" ry="25.5439"/>
<text text-anchor="middle" x="259.6935" y="-134.2242" font-family="Times,serif" font-size="14.00" fill="#000000">q13</text>
</g>
<!-- q12&#45;&gt;q13 -->
<g id="edge20" class="edge">
<title>q12&#45;&gt;q13</title>
<path fill="none" stroke="#000000" d="M253.9937,-250.8623C255.0889,-229.2568 256.6675,-198.1175 257.8857,-174.0848"/>
<polygon fill="#000000" stroke="#000000" points="261.3893,-174.1008 258.4002,-163.9364 254.3983,-173.7464 261.3893,-174.1008"/>
<text text-anchor="middle" x="261.1935" y="-203.268" font-family="Times,serif" font-size="14.00" fill="#000000">1</text>
</g>
<!-- q13&#45;&gt;Qf2 -->
<g id="edge21" class="edge">
<title>q13&#45;&gt;Qf2</title>
<path fill="none" stroke="#000000" d="M259.6935,-112.7413C259.6935,-100.0487 259.6935,-84.4392 259.6935,-70.2143"/>
<polygon fill="#000000" stroke="#000000" points="263.1936,-70.1625 259.6935,-60.1626 256.1936,-70.1626 263.1936,-70.1625"/>
<text text-anchor="middle" x="263.7738" y="-82.3023" font-family="Times,serif" font-size="14.00" fill="#000000">ϵ</text>
</g>
<!-- q15 -->
<g id="node18" class="node">
<title>q15</title>
<ellipse fill="none" stroke="#000000" cx="368.6935" cy="-414.5996" rx="25.5439" ry="25.5439"/>
<text text-anchor="middle" x="368.6935" y="-410.3996" font-family="Times,serif" font-size="14.00" fill="#000000">q15</text>
</g>
<!-- q14&#45;&gt;q15 -->
<g id="edge23" class="edge">
<title>q14&#45;&gt;q15</title>
<path fill="none" stroke="#000000" d="M406.9539,-497.8114C401.9774,-490.769 396.6955,-482.7033 392.5329,-474.9215 388.0949,-466.625 384.0144,-457.3183 380.5308,-448.5446"/>
<polygon fill="#000000" stroke="#000000" points="383.7026,-447.0397 376.8639,-438.9475 377.1636,-449.5381 383.7026,-447.0397"/>
<text text-anchor="middle" x="396.7738" y="-462.3215" font-family="Times,serif" font-size="14.00" fill="#000000">ϵ</text>
</g>
<!-- q17 -->
<g id="node20" class="node">
<title>q17</title>
<ellipse fill="none" stroke="#000000" cx="422.6935" cy="-345.5557" rx="25.5439" ry="25.5439"/>
<text text-anchor="middle" x="422.6935" y="-341.3557" font-family="Times,serif" font-size="14.00" fill="#000000">q17</text>
</g>
<!-- q14&#45;&gt;q17 -->
<g id="edge26" class="edge">
<title>q14&#45;&gt;q17</title>
<path fill="none" stroke="#000000" d="M422.6935,-492.5604C422.6935,-463.0654 422.6935,-414.6671 422.6935,-381.5169"/>
<polygon fill="#000000" stroke="#000000" points="426.1936,-381.3329 422.6935,-371.333 419.1936,-381.333 426.1936,-381.3329"/>
<text text-anchor="middle" x="426.1935" y="-462.3215" font-family="Times,serif" font-size="14.00" fill="#000000">1</text>
</g>
<!-- q19 -->
<g id="node22" class="node">
<title>q19</title>
<ellipse fill="none" stroke="#000000" cx="476.6935" cy="-414.5996" rx="25.5439" ry="25.5439"/>
<text text-anchor="middle" x="476.6935" y="-410.3996" font-family="Times,serif" font-size="14.00" fill="#000000">q19</text>
</g>
<!-- q14&#45;&gt;q19 -->
<g id="edge29" class="edge">
<title>q14&#45;&gt;q19</title>
<path fill="none" stroke="#000000" d="M434.544,-495.6545C442.0703,-481.181 451.9187,-462.2422 460.203,-446.3112"/>
<polygon fill="#000000" stroke="#000000" points="463.3622,-447.8223 464.8706,-437.3354 457.1517,-444.5927 463.3622,-447.8223"/>
<text text-anchor="middle" x="457.1935" y="-462.3215" font-family="Times,serif" font-size="14.00" fill="#000000">1</text>
</g>
<!-- q16 -->
<g id="node19" class="node">
<title>q16</title>
<ellipse fill="none" stroke="#000000" cx="367.6935" cy="-207.468" rx="25.5439" ry="25.5439"/>
<text text-anchor="middle" x="367.6935" y="-203.268" font-family="Times,serif" font-size="14.00" fill="#000000">q16</text>
</g>
<!-- q15&#45;&gt;q16 -->
<g id="edge24" class="edge">
<title>q15&#45;&gt;q16</title>
<path fill="none" stroke="#000000" d="M368.5688,-388.785C368.3921,-352.1718 368.0678,-285.0064 367.8674,-243.5005"/>
<polygon fill="#000000" stroke="#000000" points="371.3664,-243.2647 367.8181,-233.2818 364.3665,-243.2986 371.3664,-243.2647"/>
<text text-anchor="middle" x="372.1935" y="-341.3557" font-family="Times,serif" font-size="14.00" fill="#000000">1</text>
</g>
<!-- Qf3 -->
<g id="node27" class="node">
<title>Qf3</title>
<ellipse fill="none" stroke="#000000" cx="443.6935" cy="-30.0511" rx="26.0955" ry="26.0955"/>
<ellipse fill="none" stroke="#000000" cx="443.6935" cy="-30.0511" rx="30.1023" ry="30.1023"/>
<text text-anchor="middle" x="443.6935" y="-25.8511" font-family="Times,serif" font-size="14.00" fill="#000000">Qf3</text>
</g>
<!-- q16&#45;&gt;Qf3 -->
<g id="edge25" class="edge">
<title>q16&#45;&gt;Qf3</title>
<path fill="none" stroke="#000000" d="M377.7857,-183.9084C390.5558,-154.0974 412.6974,-102.4093 427.7602,-67.2461"/>
<polygon fill="#000000" stroke="#000000" points="431.0869,-68.3687 431.8074,-57.7984 424.6524,-65.6123 431.0869,-68.3687"/>
<text text-anchor="middle" x="411.7738" y="-134.2242" font-family="Times,serif" font-size="14.00" fill="#000000">ϵ</text>
</g>
<!-- q18 -->
<g id="node21" class="node">
<title>q18</title>
<ellipse fill="none" stroke="#000000" cx="423.6935" cy="-207.468" rx="25.5439" ry="25.5439"/>
<text text-anchor="middle" x="423.6935" y="-203.268" font-family="Times,serif" font-size="14.00" fill="#000000">q18</text>
</g>
<!-- q17&#45;&gt;q18 -->
<g id="edge27" class="edge">
<title>q17&#45;&gt;q18</title>
<path fill="none" stroke="#000000" d="M422.8792,-319.9061C423.0347,-298.4365 423.2583,-267.5527 423.4319,-243.583"/>
<polygon fill="#000000" stroke="#000000" points="426.9327,-243.474 423.5053,-233.4489 419.9329,-243.4232 426.9327,-243.474"/>
<text text-anchor="middle" x="427.1935" y="-272.3119" font-family="Times,serif" font-size="14.00" fill="#000000">0</text>
</g>
<!-- q18&#45;&gt;Qf3 -->
<g id="edge28" class="edge">
<title>q18&#45;&gt;Qf3</title>
<path fill="none" stroke="#000000" d="M425.3865,-181.7376C426.7462,-162.6968 428.8666,-136.1429 431.5329,-112.9023 433.1437,-98.8607 435.2849,-83.5354 437.3213,-69.9264"/>
<polygon fill="#000000" stroke="#000000" points="440.8021,-70.3167 438.8475,-59.9037 433.8819,-69.2628 440.8021,-70.3167"/>
<text text-anchor="middle" x="435.7738" y="-134.2242" font-family="Times,serif" font-size="14.00" fill="#000000">ϵ</text>
</g>
<!-- q20 -->
<g id="node23" class="node">
<title>q20</title>
<ellipse fill="none" stroke="#000000" cx="473.6935" cy="-276.5119" rx="25.5439" ry="25.5439"/>
<text text-anchor="middle" x="473.6935" y="-272.3119" font-family="Times,serif" font-size="14.00" fill="#000000">q20</text>
</g>
<!-- q19&#45;&gt;q20 -->
<g id="edge30" class="edge">
<title>q19&#45;&gt;q20</title>
<path fill="none" stroke="#000000" d="M476.1362,-388.95C475.6698,-367.4804 474.9988,-336.5965 474.4781,-312.6268"/>
<polygon fill="#000000" stroke="#000000" points="477.9744,-312.4143 474.2579,-302.4927 470.976,-312.5664 477.9744,-312.4143"/>
<text text-anchor="middle" x="480.1935" y="-341.3557" font-family="Times,serif" font-size="14.00" fill="#000000">0</text>
</g>
<!-- q21 -->
<g id="node24" class="node">
<title>q21</title>
<ellipse fill="none" stroke="#000000" cx="474.6935" cy="-138.4242" rx="25.5439" ry="25.5439"/>
<text text-anchor="middle" x="474.6935" y="-134.2242" font-family="Times,serif" font-size="14.00" fill="#000000">q21</text>
</g>
<!-- q20&#45;&gt;q21 -->
<g id="edge31" class="edge">
<title>q20&#45;&gt;q21</title>
<path fill="none" stroke="#000000" d="M473.8792,-250.8623C474.0347,-229.3927 474.2583,-198.5088 474.4319,-174.5391"/>
<polygon fill="#000000" stroke="#000000" points="477.9327,-174.4301 474.5053,-164.405 470.9329,-174.3794 477.9327,-174.4301"/>
<text text-anchor="middle" x="478.1935" y="-203.268" font-family="Times,serif" font-size="14.00" fill="#000000">0</text>
</g>
<!-- q21&#45;&gt;Qf3 -->
<g id="edge32" class="edge">
<title>q21&#45;&gt;Qf3</title>
<path fill="none" stroke="#000000" d="M467.6591,-113.8327C463.8853,-100.64 459.1458,-84.0712 454.8799,-69.158"/>
<polygon fill="#000000" stroke="#000000" points="458.1353,-67.8117 452.02,-59.1599 451.4052,-69.7369 458.1353,-67.8117"/>
<text text-anchor="middle" x="466.7738" y="-82.3023" font-family="Times,serif" font-size="14.00" fill="#000000">ϵ</text>
</g>
<!-- Qf1&#45;&gt;q0 -->
<g id="edge13" class="edge">
<title>Qf1&#45;&gt;q0</title>
<path fill="none" stroke="#000000" d="M99.95,-52.7688C116.3335,-73.5412 136.6935,-105.8987 136.6935,-138.4242 136.6935,-414.5996 136.6935,-414.5996 136.6935,-414.5996 136.6935,-439.8005 131.4833,-467.9428 126.6692,-488.567"/>
<polygon fill="#000000" stroke="#000000" points="123.2582,-487.7816 124.2901,-498.3261 130.059,-489.4396 123.2582,-487.7816"/>
<text text-anchor="middle" x="140.7738" y="-272.3119" font-family="Times,serif" font-size="14.00" fill="#000000">ϵ</text>
</g>
<!-- Qf2&#45;&gt;q7 -->
<g id="edge22" class="edge">
<title>Qf2&#45;&gt;q7</title>
<path fill="none" stroke="#000000" d="M279.2393,-52.8873C295.0478,-73.7375 314.6935,-106.1426 314.6935,-138.4242 314.6935,-414.5996 314.6935,-414.5996 314.6935,-414.5996 314.6935,-446.5261 292.8214,-477.1607 275.0591,-496.7752"/>
<polygon fill="#000000" stroke="#000000" points="272.3407,-494.556 268.0193,-504.2295 277.43,-499.3622 272.3407,-494.556"/>
<text text-anchor="middle" x="318.7738" y="-272.3119" font-family="Times,serif" font-size="14.00" fill="#000000">ϵ</text>
</g>
<!-- Qf3&#45;&gt;q14 -->
<g id="edge33" class="edge">
<title>Qf3&#45;&gt;q14</title>
<path fill="none" stroke="#000000" d="M469.8109,-45.6258C497.0101,-64.0501 535.6935,-97.4552 535.6935,-138.4242 535.6935,-414.5996 535.6935,-414.5996 535.6935,-414.5996 535.6935,-458.2496 489.4154,-488.5599 456.0908,-504.7277"/>
<polygon fill="#000000" stroke="#000000" points="454.2579,-501.7196 446.6578,-509.1013 457.2024,-508.0702 454.2579,-501.7196"/>
<text text-anchor="middle" x="539.7738" y="-272.3119" font-family="Times,serif" font-size="14.00" fill="#000000">ϵ</text>
</g>
</g>
</svg>
