<?xml version="1.0" encoding="UTF-8" standalone="no"?>
<!DOCTYPE svg PUBLIC "-//W3C//DTD SVG 1.1//EN"
 "http://www.w3.org/Graphics/SVG/1.1/DTD/svg11.dtd">
<!-- Generated by graphviz version 2.40.1 (20161225.0304)
 -->
<!-- Title: dfa Pages: 1 -->
<svg width="99pt" height="407pt"
 viewBox="0.00 0.00 99.01 407.23" xmlns="http://www.w3.org/2000/svg" xmlns:xlink="http://www.w3.org/1999/xlink">
<g id="graph0" class="graph" transform="scale(1 1) rotate(0) translate(4 403.2314)">
<title>dfa</title>
<polygon fill="#ffffff" stroke="transparent" points="-4,4 -4,-403.2314 95.0079,-403.2314 95.0079,4 -4,4"/>
<g id="node1" class="node">
<title></title>
</g>
<!-- A -->
<g id="node2" class="node">
<title>A</title>
<ellipse fill="none" stroke="#000000" cx="45" cy="-292.4236" rx="18.0157" ry="18.0157"/>
<text text-anchor="middle" x="45" y="-288.2236" font-family="Times,serif" font-size="14.00" fill="#000000">A</text>
</g>
<!-- &#45;&gt;A -->
<g id="edge1" class="edge">
<title>&#45;&gt;A</title>
<path fill="none" stroke="#000000" d="M45,-362.8304C45,-350.7236 45,-334.6349 45,-320.8935"/>
<polygon fill="#000000" stroke="#000000" points="48.5001,-320.4972 45,-310.4972 41.5001,-320.4972 48.5001,-320.4972"/>
<text text-anchor="middle" x="57.0505" y="-332.6314" font-family="Times,serif" font-size="14.00" fill="#000000">start</text>
</g>
<!-- A&#45;&gt;A -->
<g id="edge2" class="edge">
<title>A&#45;&gt;A</title>
<path fill="none" stroke="#000000" d="M61.2938,-300.0915C71.3949,-301.9405 81.0079,-299.3845 81.0079,-292.4236 81.0079,-287.9642 77.0627,-285.3127 71.5714,-284.4689"/>
<polygon fill="#000000" stroke="#000000" points="71.1923,-280.978 61.2938,-284.7557 71.3876,-287.9753 71.1923,-280.978"/>
<text text-anchor="middle" x="84.5079" y="-288.2236" font-family="Times,serif" font-size="14.00" fill="#000000">1</text>
</g>
<!-- B -->
<g id="node3" class="node">
<title>B</title>
<ellipse fill="none" stroke="#000000" cx="18" cy="-203.6157" rx="18" ry="18"/>
<text text-anchor="middle" x="18" y="-199.4157" font-family="Times,serif" font-size="14.00" fill="#000000">B</text>
</g>
<!-- A&#45;&gt;B -->
<g id="edge3" class="edge">
<title>A&#45;&gt;B</title>
<path fill="none" stroke="#000000" d="M32.1783,-279.6102C26.6781,-273.2139 20.8658,-265.0145 18,-256.4157 15.4205,-248.6759 14.6346,-239.936 14.7069,-231.8269"/>
<polygon fill="#000000" stroke="#000000" points="18.211,-231.8303 15.2176,-221.6672 11.2199,-231.4788 18.211,-231.8303"/>
<text text-anchor="middle" x="21.5" y="-243.8157" font-family="Times,serif" font-size="14.00" fill="#000000">0</text>
</g>
<!-- B&#45;&gt;A -->
<g id="edge4" class="edge">
<title>B&#45;&gt;A</title>
<path fill="none" stroke="#000000" d="M23.3232,-221.1248C27.1295,-233.6443 32.3271,-250.7402 36.6786,-265.0531"/>
<polygon fill="#000000" stroke="#000000" points="33.4081,-266.3285 39.6657,-274.878 40.1055,-264.2923 33.4081,-266.3285"/>
<text text-anchor="middle" x="36.5" y="-243.8157" font-family="Times,serif" font-size="14.00" fill="#000000">0</text>
</g>
<!-- C -->
<g id="node4" class="node">
<title>C</title>
<ellipse fill="none" stroke="#000000" cx="21" cy="-114.8157" rx="18" ry="18"/>
<text text-anchor="middle" x="21" y="-110.6157" font-family="Times,serif" font-size="14.00" fill="#000000">C</text>
</g>
<!-- B&#45;&gt;C -->
<g id="edge5" class="edge">
<title>B&#45;&gt;C</title>
<path fill="none" stroke="#000000" d="M8.6845,-188.0224C3.5794,-177.5714 -1.132,-163.4601 2,-150.8157 2.985,-146.8392 4.4981,-142.8177 6.2497,-138.9754"/>
<polygon fill="#000000" stroke="#000000" points="9.447,-140.4119 10.93,-129.9214 3.2287,-137.1975 9.447,-140.4119"/>
<text text-anchor="middle" x="5.5" y="-155.0157" font-family="Times,serif" font-size="14.00" fill="#000000">1</text>
</g>
<!-- C&#45;&gt;B -->
<g id="edge6" class="edge">
<title>C&#45;&gt;B</title>
<path fill="none" stroke="#000000" d="M20.3895,-132.8877C19.9789,-145.04 19.4292,-161.3115 18.9605,-175.1837"/>
<polygon fill="#000000" stroke="#000000" points="15.4613,-175.1038 18.6216,-185.2163 22.4573,-175.3402 15.4613,-175.1038"/>
<text text-anchor="middle" x="22.5" y="-155.0157" font-family="Times,serif" font-size="14.00" fill="#000000">1</text>
</g>
<!-- D -->
<g id="node5" class="node">
<title>D</title>
<ellipse fill="none" stroke="#000000" cx="44" cy="-22.0079" rx="18.0143" ry="18.0143"/>
<ellipse fill="none" stroke="#000000" cx="44" cy="-22.0079" rx="22.0157" ry="22.0157"/>
<text text-anchor="middle" x="44" y="-17.8079" font-family="Times,serif" font-size="14.00" fill="#000000">D</text>
</g>
<!-- C&#45;&gt;D -->
<g id="edge7" class="edge">
<title>C&#45;&gt;D</title>
<path fill="none" stroke="#000000" d="M25.4346,-96.9214C28.4809,-84.6295 32.6069,-67.9802 36.1957,-53.499"/>
<polygon fill="#000000" stroke="#000000" points="39.6825,-53.9793 38.6908,-43.431 32.8881,-52.2954 39.6825,-53.9793"/>
<text text-anchor="middle" x="36.5" y="-66.2157" font-family="Times,serif" font-size="14.00" fill="#000000">0</text>
</g>
<!-- D&#45;&gt;A -->
<g id="edge9" class="edge">
<title>D&#45;&gt;A</title>
<path fill="none" stroke="#000000" d="M45.5014,-44.2542C46.4282,-59.1262 47.5276,-79.1338 48,-96.8157 49.5892,-156.3006 47.5979,-225.9852 46.1827,-264.0457"/>
<polygon fill="#000000" stroke="#000000" points="42.6733,-264.2245 45.7845,-274.3522 49.6681,-264.4948 42.6733,-264.2245"/>
<text text-anchor="middle" x="51.5" y="-155.0157" font-family="Times,serif" font-size="14.00" fill="#000000">1</text>
</g>
<!-- D&#45;&gt;D -->
<g id="edge8" class="edge">
<title>D&#45;&gt;D</title>
<path fill="none" stroke="#000000" d="M64.5848,-30.742C74.8508,-31.9505 84.0079,-29.0391 84.0079,-22.0079 84.0079,-17.5035 80.2498,-14.6899 74.8496,-13.5671"/>
<polygon fill="#000000" stroke="#000000" points="74.6808,-10.0609 64.5848,-13.2737 74.4808,-17.058 74.6808,-10.0609"/>
<text text-anchor="middle" x="87.5079" y="-17.8079" font-family="Times,serif" font-size="14.00" fill="#000000">0</text>
</g>
</g>
</svg>
