<?xml version="1.0" encoding="UTF-8" standalone="no"?>
<!DOCTYPE svg PUBLIC "-//W3C//DTD SVG 1.1//EN"
 "http://www.w3.org/Graphics/SVG/1.1/DTD/svg11.dtd">
<!-- Generated by graphviz version 2.40.1 (20161225.0304)
 -->
<!-- Title: dfa Pages: 1 -->
<svg width="170pt" height="525pt"
 viewBox="0.00 0.00 169.60 525.07" xmlns="http://www.w3.org/2000/svg" xmlns:xlink="http://www.w3.org/1999/xlink">
<g id="graph0" class="graph" transform="scale(1 1) rotate(0) translate(4 521.0745)">
<title>dfa</title>
<polygon fill="#ffffff" stroke="transparent" points="-4,4 -4,-521.0745 165.6015,-521.0745 165.6015,4 -4,4"/>
<g id="node1" class="node">
<title></title>
</g>
<!-- Qs -->
<g id="node2" class="node">
<title>Qs</title>
<ellipse fill="none" stroke="#000000" cx="123.6935" cy="-406.5111" rx="21.5294" ry="21.5294"/>
<text text-anchor="middle" x="123.6935" y="-402.3111" font-family="Times,serif" font-size="14.00" fill="#000000">Qs</text>
</g>
<!-- &#45;&gt;Qs -->
<g id="edge1" class="edge">
<title>&#45;&gt;Qs</title>
<path fill="none" stroke="#000000" d="M123.6935,-480.7869C123.6935,-468.7792 123.6935,-452.7444 123.6935,-438.6469"/>
<polygon fill="#000000" stroke="#000000" points="127.1935,-438.3429 123.6935,-428.3429 120.1935,-438.3429 127.1935,-438.3429"/>
<text text-anchor="middle" x="135.744" y="-450.4745" font-family="Times,serif" font-size="14.00" fill="#000000">start</text>
</g>
<!-- q0 -->
<g id="node3" class="node">
<title>q0</title>
<ellipse fill="none" stroke="#000000" cx="99.6935" cy="-311.2542" rx="20.8887" ry="20.8887"/>
<text text-anchor="middle" x="99.6935" y="-307.0542" font-family="Times,serif" font-size="14.00" fill="#000000">q0</text>
</g>
<!-- Qs&#45;&gt;q0 -->
<g id="edge2" class="edge">
<title>Qs&#45;&gt;q0</title>
<path fill="none" stroke="#000000" d="M118.3671,-385.3705C115.1,-372.4033 110.8652,-355.5953 107.2545,-341.2644"/>
<polygon fill="#000000" stroke="#000000" points="110.5956,-340.1993 104.7585,-331.3575 103.8078,-341.9096 110.5956,-340.1993"/>
<text text-anchor="middle" x="115.8008" y="-354.1476" font-family="Times,serif" font-size="14.00" fill="#000000">a</text>
</g>
<!-- q3 -->
<g id="node5" class="node">
<title>q3</title>
<ellipse fill="none" stroke="#000000" cx="102.6935" cy="-20.6935" rx="20.8887" ry="20.8887"/>
<text text-anchor="middle" x="102.6935" y="-16.4935" font-family="Times,serif" font-size="14.00" fill="#000000">q3</text>
</g>
<!-- Qs&#45;&gt;q3 -->
<g id="edge9" class="edge">
<title>Qs&#45;&gt;q3</title>
<path fill="none" stroke="#000000" d="M132.297,-386.1043C139.5286,-367.0859 148.6935,-337.7556 148.6935,-311.2542 148.6935,-311.2542 148.6935,-311.2542 148.6935,-118.8804 148.6935,-91.9042 134.279,-64.362 121.588,-45.3407"/>
<polygon fill="#000000" stroke="#000000" points="124.3461,-43.1771 115.7522,-36.9807 118.6063,-47.1839 124.3461,-43.1771"/>
<text text-anchor="middle" x="152.1935" y="-212.8673" font-family="Times,serif" font-size="14.00" fill="#000000">b</text>
</g>
<!-- q1 -->
<g id="node4" class="node">
<title>q1</title>
<ellipse fill="none" stroke="#000000" cx="28.6935" cy="-217.0673" rx="20.8887" ry="20.8887"/>
<text text-anchor="middle" x="28.6935" y="-212.8673" font-family="Times,serif" font-size="14.00" fill="#000000">q1</text>
</g>
<!-- q0&#45;&gt;q1 -->
<g id="edge3" class="edge">
<title>q0&#45;&gt;q1</title>
<path fill="none" stroke="#000000" d="M87.0001,-294.4154C75.995,-279.8164 59.919,-258.4904 47.4331,-241.9269"/>
<polygon fill="#000000" stroke="#000000" points="50.0914,-239.6387 41.2769,-233.7602 44.5016,-243.8524 50.0914,-239.6387"/>
<text text-anchor="middle" x="71.8008" y="-259.9607" font-family="Times,serif" font-size="14.00" fill="#000000">a</text>
</g>
<!-- q0&#45;&gt;q3 -->
<g id="edge10" class="edge">
<title>q0&#45;&gt;q3</title>
<path fill="none" stroke="#000000" d="M99.9092,-290.3578C100.4303,-239.8884 101.7597,-111.1334 102.3737,-51.664"/>
<polygon fill="#000000" stroke="#000000" points="105.8761,-51.4362 102.4797,-41.4005 98.8765,-51.3638 105.8761,-51.4362"/>
<text text-anchor="middle" x="105.1935" y="-165.7738" font-family="Times,serif" font-size="14.00" fill="#000000">b</text>
</g>
<!-- q1&#45;&gt;q1 -->
<g id="edge4" class="edge">
<title>q1&#45;&gt;q1</title>
<path fill="none" stroke="#000000" d="M47.8056,-225.3364C58.052,-226.7416 67.3869,-223.9852 67.3869,-217.0673 67.3869,-212.6354 63.5559,-209.9115 58.1084,-208.8955"/>
<polygon fill="#000000" stroke="#000000" points="57.8383,-205.3929 47.8056,-208.7981 57.772,-212.3926 57.8383,-205.3929"/>
<text text-anchor="middle" x="70.4942" y="-212.8673" font-family="Times,serif" font-size="14.00" fill="#000000">a</text>
</g>
<!-- q2 -->
<g id="node6" class="node">
<title>q2</title>
<ellipse fill="none" stroke="#000000" cx="24.6935" cy="-118.8804" rx="20.8568" ry="20.8568"/>
<ellipse fill="none" stroke="#000000" cx="24.6935" cy="-118.8804" rx="24.8884" ry="24.8884"/>
<text text-anchor="middle" x="24.6935" y="-114.6804" font-family="Times,serif" font-size="14.00" fill="#000000">q2</text>
</g>
<!-- q1&#45;&gt;q2 -->
<g id="edge5" class="edge">
<title>q1&#45;&gt;q2</title>
<path fill="none" stroke="#000000" d="M27.8452,-196.2443C27.3481,-184.0429 26.707,-168.3073 26.133,-154.2165"/>
<polygon fill="#000000" stroke="#000000" points="29.6148,-153.6967 25.7106,-143.8475 22.6206,-153.9817 29.6148,-153.6967"/>
<text text-anchor="middle" x="31.1935" y="-165.7738" font-family="Times,serif" font-size="14.00" fill="#000000">b</text>
</g>
<!-- q3&#45;&gt;q3 -->
<g id="edge8" class="edge">
<title>q3&#45;&gt;q3</title>
<path fill="none" stroke="#000000" d="M121.8056,-28.9626C132.052,-30.3678 141.3869,-27.6114 141.3869,-20.6935 141.3869,-16.2616 137.5559,-13.5377 132.1084,-12.5217"/>
<polygon fill="#000000" stroke="#000000" points="131.8383,-9.0191 121.8056,-12.4243 131.772,-16.0188 131.8383,-9.0191"/>
<text text-anchor="middle" x="151.4942" y="-16.4935" font-family="Times,serif" font-size="14.00" fill="#000000">a, b</text>
</g>
<!-- q2&#45;&gt;q3 -->
<g id="edge7" class="edge">
<title>q2&#45;&gt;q3</title>
<path fill="none" stroke="#000000" d="M40.1037,-99.4818C52.4289,-83.9667 69.7891,-62.1136 83.1008,-45.3568"/>
<polygon fill="#000000" stroke="#000000" points="86.1652,-47.1262 89.6449,-37.1191 80.6841,-42.7721 86.1652,-47.1262"/>
<text text-anchor="middle" x="73.8008" y="-63.5869" font-family="Times,serif" font-size="14.00" fill="#000000">a</text>
</g>
<!-- q2&#45;&gt;q2 -->
<g id="edge6" class="edge">
<title>q2&#45;&gt;q2</title>
<path fill="none" stroke="#000000" d="M47.9685,-128.1089C58.3813,-128.9878 67.3869,-125.9116 67.3869,-118.8804 67.3869,-114.376 63.691,-111.4947 58.2969,-110.2367"/>
<polygon fill="#000000" stroke="#000000" points="58.1504,-106.7229 47.9685,-109.6518 57.7546,-113.7117 58.1504,-106.7229"/>
<text text-anchor="middle" x="70.8869" y="-114.6804" font-family="Times,serif" font-size="14.00" fill="#000000">b</text>
</g>
</g>
</svg>
