<?xml version="1.0" encoding="UTF-8" standalone="no"?>
<!DOCTYPE svg PUBLIC "-//W3C//DTD SVG 1.1//EN"
 "http://www.w3.org/Graphics/SVG/1.1/DTD/svg11.dtd">
<!-- Generated by graphviz version 2.40.1 (20161225.0304)
 -->
<!-- Title: dfa Pages: 1 -->
<svg width="171pt" height="558pt"
 viewBox="0.00 0.00 171.39 557.66" xmlns="http://www.w3.org/2000/svg" xmlns:xlink="http://www.w3.org/1999/xlink">
<g id="graph0" class="graph" transform="scale(1 1) rotate(0) translate(4 553.6614)">
<title>dfa</title>
<polygon fill="#ffffff" stroke="transparent" points="-4,4 -4,-553.6614 167.3869,-553.6614 167.3869,4 -4,4"/>
<g id="node1" class="node">
<title></title>
</g>
<!-- Qs -->
<g id="node2" class="node">
<title>Qs</title>
<ellipse fill="none" stroke="#000000" cx="65.6935" cy="-439.098" rx="21.5294" ry="21.5294"/>
<text text-anchor="middle" x="65.6935" y="-434.898" font-family="Times,serif" font-size="14.00" fill="#000000">Qs</text>
</g>
<!-- &#45;&gt;Qs -->
<g id="edge1" class="edge">
<title>&#45;&gt;Qs</title>
<path fill="none" stroke="#000000" d="M65.6935,-513.3739C65.6935,-501.3661 65.6935,-485.3313 65.6935,-471.2338"/>
<polygon fill="#000000" stroke="#000000" points="69.1935,-470.9298 65.6935,-460.9298 62.1935,-470.9298 69.1935,-470.9298"/>
<text text-anchor="middle" x="77.744" y="-483.0614" font-family="Times,serif" font-size="14.00" fill="#000000">start</text>
</g>
<!-- q0 -->
<g id="node3" class="node">
<title>q0</title>
<ellipse fill="none" stroke="#000000" cx="24.6935" cy="-343.8411" rx="20.8887" ry="20.8887"/>
<text text-anchor="middle" x="24.6935" y="-339.6411" font-family="Times,serif" font-size="14.00" fill="#000000">q0</text>
</g>
<!-- Qs&#45;&gt;q0 -->
<g id="edge2" class="edge">
<title>Qs&#45;&gt;q0</title>
<path fill="none" stroke="#000000" d="M56.9984,-418.8964C51.1751,-405.3669 43.424,-387.3584 36.9739,-372.3727"/>
<polygon fill="#000000" stroke="#000000" points="40.1249,-370.8405 32.9565,-363.0389 33.6952,-373.608 40.1249,-370.8405"/>
<text text-anchor="middle" x="50.8008" y="-386.7345" font-family="Times,serif" font-size="14.00" fill="#000000">a</text>
</g>
<!-- q3 -->
<g id="node6" class="node">
<title>q3</title>
<ellipse fill="none" stroke="#000000" cx="107.6935" cy="-343.8411" rx="20.8887" ry="20.8887"/>
<text text-anchor="middle" x="107.6935" y="-339.6411" font-family="Times,serif" font-size="14.00" fill="#000000">q3</text>
</g>
<!-- Qs&#45;&gt;q3 -->
<g id="edge6" class="edge">
<title>Qs&#45;&gt;q3</title>
<path fill="none" stroke="#000000" d="M74.6006,-418.8964C80.5659,-405.3669 88.5061,-387.3584 95.1135,-372.3727"/>
<polygon fill="#000000" stroke="#000000" points="98.397,-373.6011 99.2289,-363.0389 91.9919,-370.7769 98.397,-373.6011"/>
<text text-anchor="middle" x="94.1935" y="-386.7345" font-family="Times,serif" font-size="14.00" fill="#000000">b</text>
</g>
<!-- q0&#45;&gt;q0 -->
<g id="edge3" class="edge">
<title>q0&#45;&gt;q0</title>
<path fill="none" stroke="#000000" d="M43.8056,-352.1102C54.052,-353.5154 63.3869,-350.759 63.3869,-343.8411 63.3869,-339.4093 59.5559,-336.6853 54.1084,-335.6694"/>
<polygon fill="#000000" stroke="#000000" points="53.8383,-332.1667 43.8056,-335.5719 53.772,-339.1664 53.8383,-332.1667"/>
<text text-anchor="middle" x="66.4942" y="-339.6411" font-family="Times,serif" font-size="14.00" fill="#000000">a</text>
</g>
<!-- q1 -->
<g id="node4" class="node">
<title>q1</title>
<ellipse fill="none" stroke="#000000" cx="24.6935" cy="-186.2673" rx="20.8568" ry="20.8568"/>
<ellipse fill="none" stroke="#000000" cx="24.6935" cy="-186.2673" rx="24.8884" ry="24.8884"/>
<text text-anchor="middle" x="24.6935" y="-182.0673" font-family="Times,serif" font-size="14.00" fill="#000000">q1</text>
</g>
<!-- q0&#45;&gt;q1 -->
<g id="edge4" class="edge">
<title>q0&#45;&gt;q1</title>
<path fill="none" stroke="#000000" d="M24.6935,-322.9165C24.6935,-296.9675 24.6935,-252.3552 24.6935,-221.1871"/>
<polygon fill="#000000" stroke="#000000" points="28.1936,-221.1789 24.6935,-211.1789 21.1936,-221.1789 28.1936,-221.1789"/>
<text text-anchor="middle" x="28.1935" y="-292.5476" font-family="Times,serif" font-size="14.00" fill="#000000">b</text>
</g>
<!-- q2 -->
<g id="node5" class="node">
<title>q2</title>
<ellipse fill="none" stroke="#000000" cx="40.6935" cy="-20.6935" rx="20.8887" ry="20.8887"/>
<text text-anchor="middle" x="40.6935" y="-16.4935" font-family="Times,serif" font-size="14.00" fill="#000000">q2</text>
</g>
<!-- q1&#45;&gt;q2 -->
<g id="edge5" class="edge">
<title>q1&#45;&gt;q2</title>
<path fill="none" stroke="#000000" d="M27.0244,-161.6435C28.7845,-143.0971 31.2665,-117.0441 33.4789,-94.1869 34.8335,-80.1907 36.3517,-64.6972 37.6446,-51.5585"/>
<polygon fill="#000000" stroke="#000000" points="41.1283,-51.8949 38.6258,-41.5999 34.1621,-51.2085 41.1283,-51.8949"/>
<text text-anchor="middle" x="43.8008" y="-114.6804" font-family="Times,serif" font-size="14.00" fill="#000000">a, b</text>
</g>
<!-- q2&#45;&gt;q2 -->
<g id="edge12" class="edge">
<title>q2&#45;&gt;q2</title>
<path fill="none" stroke="#000000" d="M59.8056,-28.9626C70.052,-30.3678 79.3869,-27.6114 79.3869,-20.6935 79.3869,-16.2616 75.5559,-13.5377 70.1084,-12.5217"/>
<polygon fill="#000000" stroke="#000000" points="69.8383,-9.0191 59.8056,-12.4243 69.772,-16.0188 69.8383,-9.0191"/>
<text text-anchor="middle" x="89.4942" y="-16.4935" font-family="Times,serif" font-size="14.00" fill="#000000">a, b</text>
</g>
<!-- q4 -->
<g id="node7" class="node">
<title>q4</title>
<ellipse fill="none" stroke="#000000" cx="87.6935" cy="-118.8804" rx="20.8568" ry="20.8568"/>
<ellipse fill="none" stroke="#000000" cx="87.6935" cy="-118.8804" rx="24.8884" ry="24.8884"/>
<text text-anchor="middle" x="87.6935" y="-114.6804" font-family="Times,serif" font-size="14.00" fill="#000000">q4</text>
</g>
<!-- q3&#45;&gt;q4 -->
<g id="edge7" class="edge">
<title>q3&#45;&gt;q4</title>
<path fill="none" stroke="#000000" d="M98.9405,-324.9859C92.6831,-310.4204 84.8044,-289.5693 81.4789,-270.3476 74.6359,-230.7948 78.1525,-184.6085 82.1136,-153.7318"/>
<polygon fill="#000000" stroke="#000000" points="85.6276,-153.8673 83.517,-143.4848 78.6924,-152.9174 85.6276,-153.8673"/>
<text text-anchor="middle" x="84.8008" y="-245.4542" font-family="Times,serif" font-size="14.00" fill="#000000">a</text>
</g>
<!-- q5 -->
<g id="node8" class="node">
<title>q5</title>
<ellipse fill="none" stroke="#000000" cx="117.6935" cy="-249.6542" rx="20.8887" ry="20.8887"/>
<text text-anchor="middle" x="117.6935" y="-245.4542" font-family="Times,serif" font-size="14.00" fill="#000000">q5</text>
</g>
<!-- q3&#45;&gt;q5 -->
<g id="edge9" class="edge">
<title>q3&#45;&gt;q5</title>
<path fill="none" stroke="#000000" d="M109.9128,-322.9379C111.2333,-310.5 112.9333,-294.4882 114.4073,-280.6056"/>
<polygon fill="#000000" stroke="#000000" points="117.9049,-280.8125 115.4803,-270.4989 110.944,-280.0734 117.9049,-280.8125"/>
<text text-anchor="middle" x="117.1935" y="-292.5476" font-family="Times,serif" font-size="14.00" fill="#000000">b</text>
</g>
<!-- q4&#45;&gt;q2 -->
<g id="edge8" class="edge">
<title>q4&#45;&gt;q2</title>
<path fill="none" stroke="#000000" d="M77.0284,-96.6002C70.2744,-82.4904 61.4799,-64.1181 54.2349,-48.9827"/>
<polygon fill="#000000" stroke="#000000" points="57.2093,-47.09 49.7347,-39.5813 50.8954,-50.1124 57.2093,-47.09"/>
<text text-anchor="middle" x="77.8008" y="-63.5869" font-family="Times,serif" font-size="14.00" fill="#000000">a, b</text>
</g>
<!-- q5&#45;&gt;q4 -->
<g id="edge11" class="edge">
<title>q5&#45;&gt;q4</title>
<path fill="none" stroke="#000000" d="M113.006,-229.2208C108.334,-208.8552 101.0752,-177.213 95.5266,-153.0262"/>
<polygon fill="#000000" stroke="#000000" points="98.9133,-152.1356 93.2659,-143.1714 92.0906,-153.7009 98.9133,-152.1356"/>
<text text-anchor="middle" x="111.8008" y="-182.0673" font-family="Times,serif" font-size="14.00" fill="#000000">a</text>
</g>
<!-- q5&#45;&gt;q5 -->
<g id="edge10" class="edge">
<title>q5&#45;&gt;q5</title>
<path fill="none" stroke="#000000" d="M136.8056,-257.9233C147.052,-259.3285 156.3869,-256.5721 156.3869,-249.6542 156.3869,-245.2223 152.5559,-242.4984 147.1084,-241.4825"/>
<polygon fill="#000000" stroke="#000000" points="146.8383,-237.9798 136.8056,-241.385 146.772,-244.9795 146.8383,-237.9798"/>
<text text-anchor="middle" x="159.8869" y="-245.4542" font-family="Times,serif" font-size="14.00" fill="#000000">b</text>
</g>
</g>
</svg>
