<?xml version="1.0" encoding="UTF-8" standalone="no"?>
<!DOCTYPE svg PUBLIC "-//W3C//DTD SVG 1.1//EN"
 "http://www.w3.org/Graphics/SVG/1.1/DTD/svg11.dtd">
<!-- Generated by graphviz version 2.40.1 (20161225.0304)
 -->
<!-- Title: dfa Pages: 1 -->
<svg width="84pt" height="541pt"
 viewBox="0.00 0.00 83.91 541.07" xmlns="http://www.w3.org/2000/svg" xmlns:xlink="http://www.w3.org/1999/xlink">
<g id="graph0" class="graph" transform="scale(1 1) rotate(0) translate(4 537.0745)">
<title>dfa</title>
<polygon fill="#ffffff" stroke="transparent" points="-4,4 -4,-537.0745 79.9081,-537.0745 79.9081,4 -4,4"/>
<g id="node1" class="node">
<title></title>
</g>
<!-- Qs -->
<g id="node2" class="node">
<title>Qs</title>
<ellipse fill="none" stroke="#000000" cx="27" cy="-422.5111" rx="21.5294" ry="21.5294"/>
<text text-anchor="middle" x="27" y="-418.3111" font-family="Times,serif" font-size="14.00" fill="#000000">Qs</text>
</g>
<!-- &#45;&gt;Qs -->
<g id="edge1" class="edge">
<title>&#45;&gt;Qs</title>
<path fill="none" stroke="#000000" d="M27,-496.7869C27,-484.7792 27,-468.7444 27,-454.6469"/>
<polygon fill="#000000" stroke="#000000" points="30.5001,-454.3429 27,-444.3429 23.5001,-454.3429 30.5001,-454.3429"/>
<text text-anchor="middle" x="39.0505" y="-466.4745" font-family="Times,serif" font-size="14.00" fill="#000000">start</text>
</g>
<!-- q0 -->
<g id="node3" class="node">
<title>q0</title>
<ellipse fill="none" stroke="#000000" cx="27" cy="-323.2542" rx="20.8568" ry="20.8568"/>
<ellipse fill="none" stroke="#000000" cx="27" cy="-323.2542" rx="24.8884" ry="24.8884"/>
<text text-anchor="middle" x="27" y="-319.0542" font-family="Times,serif" font-size="14.00" fill="#000000">q0</text>
</g>
<!-- Qs&#45;&gt;q0 -->
<g id="edge2" class="edge">
<title>Qs&#45;&gt;q0</title>
<path fill="none" stroke="#000000" d="M27,-400.4827C27,-388.1035 27,-372.3649 27,-358.3297"/>
<polygon fill="#000000" stroke="#000000" points="30.5001,-358.0129 27,-348.0129 23.5001,-358.0129 30.5001,-358.0129"/>
<text text-anchor="middle" x="30.1073" y="-370.1476" font-family="Times,serif" font-size="14.00" fill="#000000">a</text>
</g>
<!-- q1 -->
<g id="node4" class="node">
<title>q1</title>
<ellipse fill="none" stroke="#000000" cx="27" cy="-221.0673" rx="20.8568" ry="20.8568"/>
<ellipse fill="none" stroke="#000000" cx="27" cy="-221.0673" rx="24.8884" ry="24.8884"/>
<text text-anchor="middle" x="27" y="-216.8673" font-family="Times,serif" font-size="14.00" fill="#000000">q1</text>
</g>
<!-- q0&#45;&gt;q1 -->
<g id="edge3" class="edge">
<title>q0&#45;&gt;q1</title>
<path fill="none" stroke="#000000" d="M27,-298.5176C27,-285.8089 27,-270.1042 27,-256.1658"/>
<polygon fill="#000000" stroke="#000000" points="30.5001,-255.9302 27,-245.9302 23.5001,-255.9303 30.5001,-255.9302"/>
<text text-anchor="middle" x="30.1073" y="-267.9607" font-family="Times,serif" font-size="14.00" fill="#000000">a</text>
</g>
<!-- q2 -->
<g id="node5" class="node">
<title>q2</title>
<ellipse fill="none" stroke="#000000" cx="27" cy="-122.8804" rx="20.8887" ry="20.8887"/>
<text text-anchor="middle" x="27" y="-118.6804" font-family="Times,serif" font-size="14.00" fill="#000000">q2</text>
</g>
<!-- q1&#45;&gt;q2 -->
<g id="edge4" class="edge">
<title>q1&#45;&gt;q2</title>
<path fill="none" stroke="#000000" d="M27,-196.2906C27,-183.47 27,-167.6894 27,-154.0489"/>
<polygon fill="#000000" stroke="#000000" points="30.5001,-153.6657 27,-143.6658 23.5001,-153.6658 30.5001,-153.6657"/>
<text text-anchor="middle" x="30.1073" y="-165.7738" font-family="Times,serif" font-size="14.00" fill="#000000">a</text>
</g>
<!-- q3 -->
<g id="node6" class="node">
<title>q3</title>
<ellipse fill="none" stroke="#000000" cx="27" cy="-24.6935" rx="20.8568" ry="20.8568"/>
<ellipse fill="none" stroke="#000000" cx="27" cy="-24.6935" rx="24.8884" ry="24.8884"/>
<text text-anchor="middle" x="27" y="-20.4935" font-family="Times,serif" font-size="14.00" fill="#000000">q3</text>
</g>
<!-- q2&#45;&gt;q3 -->
<g id="edge5" class="edge">
<title>q2&#45;&gt;q3</title>
<path fill="none" stroke="#000000" d="M27,-102.0574C27,-89.856 27,-74.1203 27,-60.0295"/>
<polygon fill="#000000" stroke="#000000" points="30.5001,-59.6606 27,-49.6606 23.5001,-59.6607 30.5001,-59.6606"/>
<text text-anchor="middle" x="30.1073" y="-71.5869" font-family="Times,serif" font-size="14.00" fill="#000000">a</text>
</g>
<!-- q3&#45;&gt;q3 -->
<g id="edge6" class="edge">
<title>q3&#45;&gt;q3</title>
<path fill="none" stroke="#000000" d="M50.275,-33.922C60.6878,-34.8009 69.6935,-31.7247 69.6935,-24.6935 69.6935,-20.1891 65.9975,-17.3078 60.6034,-16.0498"/>
<polygon fill="#000000" stroke="#000000" points="60.4569,-12.536 50.275,-15.4649 60.0611,-19.5248 60.4569,-12.536"/>
<text text-anchor="middle" x="72.8008" y="-20.4935" font-family="Times,serif" font-size="14.00" fill="#000000">a</text>
</g>
</g>
</svg>
